<svg width="600" height="560" viewBox="0 0 158.75 148.167" xmlns="http://www.w3.org/2000/svg"><path style="fill:#e6e6e6;stroke:gray;stroke-width:.79375;stroke-linecap:butt;stroke-linejoin:miter;stroke-miterlimit:4;stroke-dasharray:none;stroke-opacity:1" d="M83.194 113.452c.896-2.741 1.577-4.179 2.095-6.499l10.367-2.016V99.18l-10.458-6.294-.263-48.45c1.992-2.563 4.687-2.882 9.067-3.107l-9.199-15.632c-1.016-11.27-2.376-12.037-3.827-23.382-.11-.855-.548-1.704-1.601-1.704s-1.499.888-1.601 1.704c-1.425 11.35-2.81 12.112-3.828 23.382l-9.198 15.632c4.38.225 7.075.544 9.066 3.107l-.262 48.45-10.458 6.294v5.757l10.367 2.016c.518 2.32 1.198 3.758 2.095 6.499z"/><path style="fill:none;stroke:gray;stroke-width:.79375;stroke-linecap:butt;stroke-linejoin:miter;stroke-miterlimit:4;stroke-dasharray:none;stroke-opacity:1" d="m84.935 44.436-.132-18.74m-10.989 18.74.132-18.74m11.252 67.19.091 14.067M73.552 92.886l-.091 14.067"/><path style="fill:#f3c242;fill-opacity:1;stroke:#956c29;stroke-width:.79375;stroke-linecap:butt;stroke-linejoin:miter;stroke-miterlimit:4;stroke-dasharray:none;stroke-opacity:1" d="M62.204 42.748v25.537l-18.593-1.6 16.842-23.243-59.355-.669 40.816 11.086-23.339 27.934 43.629-4.567v19.008c2.49-2.112 9.96-10.464 9.96-26.743 0-16.28-6.67-23.919-9.96-26.743zm34.342 0c-3.29 2.824-9.96 10.464-9.96 26.743 0 16.279 7.47 24.631 9.96 26.743V77.226l43.629 4.567-23.339-27.934 40.816-11.086-59.355.669 16.842 23.243-18.593 1.6zM43.84 104.317c-3.84.013-7.696.188-11.828.485 1.189 4.58 3.547 8.812 5.775 13.083h9.876c.935 2.93 2.37 5.556 4.097 8.882 5.427.228 11.119.386 16.77.47-1.233 3.505-3.158 6.795-5.795 9.865 3.073-2.352 6.681-4.055 10.158-4.802.686 4.182 2.784 10.291 6.483 15.01 3.699-4.719 5.797-10.828 6.483-15.01 3.477.747 7.085 2.45 10.158 4.802-2.637-3.07-4.562-6.36-5.794-9.865 5.65-.084 11.342-.242 16.77-.47 1.727-3.326 3.16-5.952 4.095-8.882h9.877c2.228-4.271 4.586-8.503 5.775-13.083-8.264-.593-15.424-.702-23.563 0l-4.938 9.725H60.512l-4.938-9.725c-4.07-.35-7.894-.5-11.735-.485z"/><path style="fill:none;stroke:#956c29;stroke-width:.79375;stroke-linecap:butt;stroke-linejoin:miter;stroke-miterlimit:4;stroke-dasharray:none;stroke-opacity:1" d="M68.528 127.237h21.694m-4.364 5.063c-2.89-1.008-4.253-2.933-5.208-4.98m-2.493-.07c-1.005 2.093-2.487 4.074-5.265 5.05m39.406-17.773c1.852-3.632-10.178-8.391-9.122-9.725m-4.938 9.725h14.06l-1.21 3.358m-64.636-3.358c-1.852-3.632 10.178-8.391 9.121-9.725m4.939 9.725h-14.06l1.21 3.358m48.884-49.6v8.941m13.169-27.214-11.418-6.57m41.877 38.351-15.086-9.078m32.564-29.942-47.937 7.239 15.373 22.703-28.54.278m-34.344-4.708v8.941m-13.17-27.214 11.419-6.57M18.575 81.793l15.087-9.078M1.098 42.773l47.937 7.239-15.373 22.703 28.54.278"/><path style="font-weight:700;font-size:7.76111px;line-height:1.25;font-family:Z003;-inkscape-font-specification:Z003;letter-spacing:0;word-spacing:0;fill:#956c29;fill-opacity:1;stroke-width:.264584;stroke:#956c29;stroke-opacity:1" d="M107.254 117.593a9.936 9.936 0 0 1-.523.488c.053.198.122.357.288.658.212-.235.235-.263.492-.507a2.477 2.477 0 0 0-.098-.217c-.046-.112-.053-.112-.114-.3zm.287 4.698-.128.085c-.523.357-.613.404-.704.404-.084 0-.137-.103-.137-.263 0-.16 0-.16.25-1.4.28-1.429.28-1.429.28-1.504 0-.056-.037-.094-.09-.094-.13 0-.576.31-1.197.827l-.015.263c.462-.31.485-.32.553-.32.06 0 .09.057.09.16 0 .132-.022.263-.135.8-.356 1.634-.356 1.634-.356 1.879 0 .225.068.376.181.376.13 0 .333-.123.735-.442a13.9 13.9 0 0 0 .431-.348c.068-.047.121-.094.212-.16zm-5.117 1.175.537-.272.447-2.19c.076-.066.144-.113.182-.141.196-.16.333-.263.363-.282.5-.338.5-.338.568-.338.045 0 .083.056.083.14 0 .132-.03.31-.136.809-.22 1.062-.326 1.673-.326 1.926 0 .123.03.226.114.404.416-.263.969-.695 1.378-1.07l.053-.273c-.629.46-.75.535-.848.535-.068 0-.114-.094-.114-.244 0-.254.038-.442.34-1.823.198-.912.198-.912.198-.968 0-.094-.06-.16-.16-.16-.166 0-.658.338-1.627 1.118l.257-1.259c.182-.92.258-1.212.356-1.447.106-.263.265-.385.47-.385.098 0 .159.01.454.084l.325-.573a.992.992 0 0 0-.318-.047c-.408 0-.628.14-1.18.742-.394.433-.455.592-.69 1.833zm-.023-1.316c-.553.47-.681.564-.757.564-.053 0-.09-.075-.09-.188 0-.253.173-1.24.453-2.528.084-.15.099-.169.22-.338a3.181 3.181 0 0 0-.954-.14c-.31 0-.462.037-.651.187-.273.197-.59.489-.689.62-.288.395-.598 1.664-.598 2.425 0 .45.121.752.31.752.167 0 .417-.188 1.363-1.034-.083.48-.113.714-.113.836 0 .132.045.198.12.198.099 0 .16-.038.697-.48.258-.216.401-.338.681-.592zm-1.332-.065c-.265.244-.402.366-.41.376-.25.197-.446.32-.544.32-.129 0-.197-.17-.197-.47 0-.48.113-1.1.31-1.645.182-.517.348-.715.606-.715.136 0 .394.047.643.123-.151.676-.204.93-.212.977-.045.235-.083.47-.128.714-.008.047-.03.16-.068.32zm-3.468-1.917c-.045-.32-.06-.47-.06-.677 0-.733.31-1.128.893-1.128h.114l-.417 2.068c-.144.15-.166.178-.303.347a.442.442 0 0 1 .182.273c-.06.235-.06.235-.174.77-.22.978-.235 1.025-.379 1.373-.204.488-.545.751-.991.751-.152 0-.273-.018-.508-.094l-.302.63c.143.038.212.047.333.047.47 0 .795-.188 1.506-.893.636-.63.697-.752.924-1.889l.696-3.467.25-.273c-.537 0-.75.019-1.06.094-.832.207-1.347.921-1.347 1.86 0 .189.015.292.068.536zm-5.86 3.035.447-2.208.19-.15c.704-.546.787-.602.893-.602.045 0 .076.047.076.122 0 .15-.053.423-.28 1.57-.167.826-.197.995-.197 1.174 0 .132.03.244.113.423.34-.188.87-.602 1.4-1.09l.054-.263c-.735.526-.788.554-.863.554-.076 0-.121-.094-.121-.254 0-.253.03-.413.363-1.907.19-.837.19-.837.19-.893 0-.104-.054-.16-.145-.16-.166 0-.189.019-1.007.64-.302.234-.5.384-.59.46.076-.33.182-.903.182-.978 0-.075-.038-.122-.099-.122-.083 0-.598.329-1.188.761l-.046.245c.485-.273.515-.282.583-.282.053 0 .091.056.091.131 0 .207-.136.959-.333 1.833l-.174.761c-.015.066-.053.244-.106.507zm-2.225-1.062c-.576.489-.84.686-.939.686-.083 0-.144-.132-.144-.31 0-.216.06-.592.19-1.194.075-.357.15-.714.158-.77.069-.357.122-.592.137-.658.022-.103.038-.197.038-.254 0-.075-.038-.122-.091-.122-.076 0-.621.367-1.174.79l-.053.253c.326-.207.462-.272.553-.272.06 0 .106.065.106.178 0 .132-.068.498-.212 1.166-.19.883-.235 1.137-.235 1.41 0 .262.091.46.212.46.114 0 .242-.085.629-.395.59-.47.59-.47.78-.63-.069.32-.107.64-.107.809 0 .131.053.216.137.216.151 0 .863-.517 1.385-1.006l.053-.282c-.537.395-.787.564-.87.564-.054 0-.084-.066-.084-.226 0-.479.273-1.87.606-3.072l-.197.131c-.09.056-.182.113-.28.16-.023.019-.068.047-.152.103-.053.235-.174.865-.37 1.89zm-4.217 1.334.583-.272.568-2.678c.257-.245.431-.33.636-.33.166 0 .265.076.4.292l.228-.893c-.136-.056-.204-.075-.28-.075-.144 0-.295.085-.5.263a4.588 4.588 0 0 1-.303.273 1.82 1.82 0 0 1-.143.131l.09-.564c0-.056-.045-.103-.098-.103-.098 0-.765.404-1.226.742l-.023.254c.439-.263.446-.272.545-.272.098 0 .144.065.144.197s-.076.564-.167.977zm-.454-1.278c-.576.433-.818.583-.924.583-.098 0-.22-.235-.22-.442 0-.131.008-.16.175-1.052.038-.17.068-.348.098-.526.008-.029.038-.179.053-.264.257-.01.492-.028.75-.047l.287-.272h-.969c.038-.216.053-.282.076-.423.023-.094.076-.348.182-.855l.045-.245-.129.085c-.045.019-.106.056-.189.104-.053.037-.113.065-.174.103a.68.68 0 0 1-.106.056l-.068.386-.083.45-.061.339c-.068.01-.114.01-.136.01h-.182c-.015 0-.053 0-.114.01-.037.028-.068.056-.075.056-.023.02-.068.066-.144.141-.015.01-.053.057-.114.104H83.52l-.076.413c-.325 1.664-.325 1.664-.325 1.964 0 .301.159.63.302.63.167 0 .682-.385 1.409-1.071zm-2.203-.047c-.553.47-.682.564-.757.564-.053 0-.091-.075-.091-.188 0-.253.174-1.24.454-2.528.083-.15.098-.169.22-.338a3.182 3.182 0 0 0-.954-.14c-.31 0-.462.037-.651.187-.273.197-.59.489-.69.62-.287.395-.597 1.664-.597 2.425 0 .45.12.752.31.752.167 0 .416-.188 1.363-1.034-.084.48-.114.714-.114.836 0 .132.046.198.121.198.099 0 .16-.038.697-.48.257-.216.401-.338.681-.592zm-1.333-.065c-.265.244-.401.366-.409.376-.25.197-.446.32-.545.32-.128 0-.197-.17-.197-.47 0-.48.114-1.1.31-1.645.183-.517.35-.715.607-.715.136 0 .393.047.643.123-.151.676-.204.93-.212.977-.045.235-.083.47-.129.714-.007.047-.03.16-.068.32zm-5.155 1.381.537-.272.447-2.19c.076-.066.144-.113.182-.141a6.65 6.65 0 0 1 .363-.282c.5-.338.5-.338.568-.338.045 0 .083.056.083.14 0 .132-.03.31-.136.809-.22 1.062-.326 1.673-.326 1.926 0 .123.03.226.114.404.416-.263.969-.695 1.378-1.07l.053-.273c-.629.46-.75.535-.848.535-.068 0-.114-.094-.114-.244 0-.254.038-.442.34-1.823.198-.912.198-.912.198-.968 0-.094-.06-.16-.16-.16-.166 0-.658.338-1.627 1.118l.257-1.259c.182-.92.258-1.212.356-1.447.106-.263.265-.385.47-.385.098 0 .159.01.454.084l.325-.573a.992.992 0 0 0-.318-.047c-.408 0-.628.14-1.18.742-.394.433-.455.592-.69 1.833zm-3.589-1.043-.333.977c.265.442.613.649 1.113.649 1.158 0 2.294-1.166 2.294-2.368 0-.386-.114-.583-.682-1.128-.552-.536-.643-.696-.643-1.1 0-.62.37-1.137.818-1.137.318 0 .431.17.514.77l.5-.44c-.045-.508-.272-.771-.674-.771-.78 0-1.665 1.061-1.665 2.001 0 .432.151.724.598 1.156.515.508.65.761.65 1.194 0 .742-.567 1.381-1.226 1.381a1.1 1.1 0 0 1-.863-.46c-.159-.217-.22-.414-.28-.827zm-1.696-.329c-.605.639-.93.874-1.219.874-.196 0-.348-.16-.4-.404a2.32 2.32 0 0 1-.039-.526c.349-.273.56-.46 1.007-.874.417-.386.568-.696.568-1.119 0-.329-.159-.526-.431-.526-.167 0-.28.047-.462.17a2.93 2.93 0 0 0-.697.685c-.287.433-.545 1.466-.545 2.227 0 .555.235.903.62.903.448 0 1.023-.414 1.59-1.137zm-1.635-.395c.129-1.015.47-1.785.803-1.785.12 0 .204.15.204.385 0 .47-.22.77-1.007 1.4zm-4.005 1.767.538-.272.446-2.19c.076-.066.144-.113.182-.141.197-.16.333-.263.363-.282.5-.338.5-.338.568-.338.046 0 .084.056.084.14 0 .132-.03.31-.137.809-.22 1.062-.325 1.673-.325 1.926 0 .123.03.226.113.404.417-.263.97-.695 1.378-1.07l.053-.273c-.628.46-.75.535-.848.535-.068 0-.113-.094-.113-.244 0-.254.038-.442.34-1.823.197-.912.197-.912.197-.968 0-.094-.06-.16-.159-.16-.166 0-.658.338-1.627 1.118l.257-1.259c.182-.92.257-1.212.356-1.447.106-.263.265-.385.47-.385.098 0 .158.01.453.084l.326-.573a.992.992 0 0 0-.318-.047c-.409 0-.628.14-1.181.742-.394.433-.454.592-.689 1.833zm-2.665-.865c-.007.085-.015.16-.015.217 0 .413.227.686.56.686.243 0 .56-.113.803-.292.454-.32.72-.798.72-1.268 0-.348-.046-.423-.478-.752-.257-.207-.363-.385-.363-.63 0-.32.22-.601.477-.601.174 0 .31.103.47.366.257-.31.257-.31.355-.488-.151-.226-.295-.32-.507-.32-.553 0-1.265.808-1.265 1.438 0 .291.122.517.41.77.378.33.43.414.43.649 0 .338-.348.733-.643.733-.166 0-.295-.113-.37-.32-.054-.14-.069-.282-.076-.61-.084.084-.144.131-.175.16-.06.046-.128.093-.196.15-.008 0-.076.065-.137.112zm.023-.45c-.553.47-.681.563-.757.563-.053 0-.09-.075-.09-.188 0-.253.173-1.24.453-2.528.084-.15.099-.169.22-.338a3.182 3.182 0 0 0-.954-.14c-.31 0-.462.037-.651.187-.273.197-.59.489-.689.62-.288.395-.598 1.664-.598 2.425 0 .45.121.752.31.752.167 0 .417-.188 1.363-1.034-.083.48-.113.714-.113.836 0 .132.045.198.12.198.1 0 .16-.038.697-.48.258-.216.401-.338.681-.592zm-1.332-.066c-.265.244-.402.366-.41.376-.249.197-.446.32-.544.32-.129 0-.197-.17-.197-.47 0-.48.113-1.1.31-1.645.182-.517.349-.715.606-.715.136 0 .394.047.643.123-.151.676-.204.93-.212.977-.045.235-.083.47-.128.714-.008.047-.03.16-.068.32zm-4.808 1.4c.084-.038.16-.075.182-.085.045-.019.121-.047.204-.084.023-.01.091-.038.167-.066l.295-1.673.174-.131c.152.432.182.516.424 1.221.326.959.523 1.344.833 1.645.326.31.795.507 1.196.507.348 0 .59-.094.825-.329l-.151-.676c-.242.507-.462.705-.78.705-.25 0-.454-.15-.689-.498-.204-.301-.204-.301-1.014-2.434l-.22-.583.507-.573c.303-.33.387-.395.53-.395.13 0 .22.075.341.273l.386-.715c-.151-.14-.257-.188-.424-.188-.204 0-.333.085-.56.348-.235.282-.242.291-.325.385l-.977 1.081.288-1.438c.242-1.24.325-1.54.454-1.804.136-.273.333-.404.59-.404.068 0 .129.01.265.037l.303-.545c-.098-.019-.144-.028-.22-.028-.272 0-.446.075-.688.291-.485.423-.826.837-.924 1.11-.076.206-.22.826-.318 1.371zm-5.239-.188a.97.97 0 0 0 .402.084c.514 0 .87-.338 1.862-1.747.598 0 1.045.01 1.34.037a5.14 5.14 0 0 0-.038.338c-.015.094-.038.292-.06.498a5.163 5.163 0 0 1-.046.386c-.023.16-.038.31-.038.404 0 .122.076.207.174.207.03 0 .235-.047.614-.132l.431-.094c.053-.01.136-.028.265-.056l.121-.226c-.31.028-.5.047-.56.047-.303 0-.386-.094-.386-.423 0-.601.295-3.233.537-4.727l-.106-.094c-.227.292-.242.3-.4.3-.1 0-.137-.01-.432-.065-.341-.066-.538-.094-.69-.094-.347 0-.71.216-1.067.649-.4.479-.575.892-.575 1.39 0 .226.023.376.106.649l.56-.376c-.121-.442-.159-.658-.159-.874 0-.536.326-.855.878-.855.084 0 .182.01.28.019l.182.028c.106.01.182.019.235.028.121.019.19.019.394.037l-1.31 2.106c-.318.507-.81 1.221-1.015 1.466-.302.366-.53.498-.878.498a.73.73 0 0 1-.333-.066zm2.499-2.049 1.46-2.377-.31 2.377z"/></svg>