<svg xmlns="http://www.w3.org/2000/svg" xml:space="preserve" width="971.796" height="832.061" viewBox="0 0 257.121 220.149"><path d="M144.66 881.151c2.345.044-11.542-2.43-17.722-4.198-6.702-1.919-11-3.817-18.89-7.626-8.817-4.257-12.41-4.69-18.655-4.674-3.893.009-4.57.314-10.57 1.439-9.616 1.803-14.314 1.932-21.092.453-2.657-.58-6.767-1.95-7.352-2.507-.41-.391-.372-1.746.951-9.022.371-2.037.874-5.008 1.019-6.41l.311-3.021-2.422-.764c-.37-.116-16.472-4.697-21.444-10.143-2.063-2.26-3.512-3.976-3.288-4.56.099-.258.43-.211 4.043-.306 4.463-.116 8.917-.607 9.845-1.18.252-.156.883-.658-.04-1.91-2.205-2.992-4.361-7.362-5.425-11.79-.533-2.22-.96-5.108-.555-5.358.13-.08.817.642 2.131 1.506 6.944 4.56 12.644 6.632 20.74 7.54 5.48.615 7.689 1.248 8.905 2.553l.493.83 1.57-1.302c2.523-2.092 5.298-3.514 9.877-3.51 3.282.001 6.545.65 9.25 1.837l1.858.816 2.582-.791c5.333-1.633 10.735-2.196 15.617-1.628 3.451.402 5.19.857 8.007 2.099l2.257.995 1.315-.577c3.037-1.33 8.903-2.482 12.7-2.492 4.08-.01 8.402.812 11.812 2.249l2.03.855 3.13-1.133c5.092-1.843 8.127-2.373 13.58-2.37 4.834.001 6.635.093 10.01 1.424 2.368.935 2.322.102-.153-1.082-8.718-4.173-12.08-7.336-17.895-13.54-2.489-2.656-4.576-3.707-6.971-5.16-8.422-5.109-15.232-11.401-19.384-18.522-.66-1.133-1.804-2.625-1.925-2.7-.122-.075-1.77.56-2.35 1.026-1.257 1.01-3.088 1.353-4.041.15-1.651-2.082-.977.33-2.194.892-1.528.707-4.033-1.148-6.097-.494-1.338.424-2.131.518-3.384.693-1.285.18-1.904.022-2.088.038-.784.07-1.837.385-2.347.419-.509.034-2.392.007-2.673-.512-.91-.006-1.922-.153-2.323-.155-.4-.002-.572.403-2.463.439-3.94.076-4.395.764-6.747 2.89-1.713 1.547-3.586 1.99-5.233 2.13-.651.054-2.113.172-2.763.505-2.848 1.455-1.627 1.81-2.383-.419l.419-1.494-.895-.86c-.302-.29-1.603.028-1.994-.15-.67-.306-1.041.429-1.979 1.518-1.107 1.286-.67.55-1.141-.667-.563-1.45.955-2.406.943-4.316l.566-1.573-1.334-.678-1.256-.46-1.662.884c-.625.332-1.132.581-1.396.757-.395.264.134-.034-.181-.46-1.179-1.586.177-3.695 2.387-5.308.51-.373 1.911-1.092 1.911-1.193s-.556-.574-.912-.808c-.673-.44-1.718-.42-3.105.275-1.188.595-1.726-.441.373-3.202.73-.96 1.606-2.016 2.288-2.016.248 0 1.058-.221 1.701-.664 1.736-1.194 3.092-1.764 5.46-1.797 1.89-.026 2.385.08 4.63 1 2.92 1.198 4.842 1.426 7.895.937 2.514-.403 7.465-1.811 11.219-3.192 3.051-1.123 10.166-4.004 10.321-4.254.04-.066-.047-.513-.289-.78-.261-.29-.555-.585-.555-1.242 0-1.044-.788-1.024-1.32-1.087-1.323-.157-1.92-1.2-1.169-3.053.146-.359-.51-.578-1.71-.48-1.165.096-1.535-.32-2.172-.822-.595-.47-1.227-.39-2.214-.338-.996.053-.808-.35-1.249-.792-.339-.339-.22-.93-.13-1.215.136-.432-.855.115-2.732.211-1.616.083-1.277-.195-2.005-.572-1.224-.634-2.154-.61-.935-1.007 1.12-.366 2.366-1.257 2.754-3.134.232-1.119-.124-1.836-1.526-1.317-2.59.96-5.332-.177-5.488-2.736-.06-.988-.654-.756.168-.835 1.494-.144 2.02-1.336-.606-4.798-1.666-2.197-2.335-3.422-3.22-6.561-.812-2.875-1.638-3.654-2.905-4.177-.509-.21-1.184-.57-1.443-.8-.434-.386-.74.332-1.16.913-.664.919-6.047 8.762-9.143 13.32-1.469 2.163-2.688 3.432-2.88 3.505-.486.187-3.261-1.983-3.227-2.455.027-.36 1.139-1.458 8.93-13.984l4.223-5.236-1.74-1.622c-1.358-1.267-1.54-1.717-1.22-3.137.245-1.087.586-2.512 1.458-2.731.53-.133 1.267-.313 1.138-1.736-.118-1.292-.23-1.584.266-2.388.75-1.213 1.118-1.864 2.491-2.05.964-.13 1.683.067 1.84-.704.612-2.995 3.603-5.241 6.104-3.937.417.217 1.024.652 1.064.652.111 0 6.445-8.995 6.445-9.152 0-.131-1.773-2.125-2.473-2.13-.047 0-1.016 1.09-1.562 1.882-.545.791-.843.537-1.025.607-.309.119-1.058-1.877-3.574-2l-.532-.476.692-.978c.575-.814 1.095-2 1.022-2.117-.072-.118-1.145-.85-1.94-1.305s-.562-.017-.644-.15c-.082-.132-.072-.531.174-1.008.66-1.28 1.76-3.811 2.022-3.811.125 0 .93.477 1.79 1.06l1.56 1.06 1.07-1.573c.587-.865.971-1.91 1.083-1.979.17-.105 3.411 1.913 4.5 2.801.264.215-.277.32-.83 1.28-.386.671-.707 1.384-.905 1.613s-.36.481-.36.558.639.565 1.42 1.084l1.421.943 2.879-3.676c1.549-1.978 3.013-4.372 3.006-4.494-.007-.123-.855-.722-1.643-1.22-.788-.5-1.357-.892-1.42-1.058-.142-.37 2.179-4.108 2.696-4.306.206-.08.821.196 1.681.872l1.655 1.354 1.64-1.504c.856-.786.892-2.067 1.11-2.067.725 0 4.392 2.658 4.234 3.07-.08.209-.624 1.083-1.207 1.943l-1.061 1.562.988.775c.544.427 1.257.916 1.584 1.088.328.171.596.496.596.722 0 .493-2.243 3.708-2.696 3.881-.175.068-.974-.406-1.883-1.075-.91-.67-1.768-1.151-1.887-1.11-.257.088-5.71 7.887-5.695 8.147.006.099.55.577 1.21 1.062 1.356.998 1.577 1.465 3.056-.816.4-.618.682-1.404.855-1.405.32 0 3.416 2.022 4.117 2.687.334.318.238.573-.729 1.945l-1.114 1.58 1.59 1.078c.873.594 1.586 1.224 1.583 1.4-.006.402-2.684 3.997-3.05 4.113-.148.047-.635-.901-1.603-1.144l-1.567-.81-.919 1.206c-.36.472-.9 1.14-1.19 1.49l-.389-.322-1.236-1.07c-2.575-2.232-3.378-.966-2.111-2.87l1.329-1.996-1.628-1.18c-1-.726-1.497-.517-1.795-.213-1.046 1.068-5.688 8.406-5.415 8.497.749.25 2.248 1.857 2.756 2.954.472 1.021.555 1.738.58 5.028.044 5.92.272 6.514 3.787 9.859 4.444 4.229 10.827 8.54 13.825 9.338 2.392.637 6.846.273 6.7-.632-.037-.228.086-1.017.879-1.893 1.404-1.551 3.535-3.31 5.472-3.87.437-.125 3.532-.23 6.88-.232 5.72-.003 6.48.052 7.885-.516 2.672-1.08 5.972-4.303 5.972-6.133 0-1.099-.716-2.22-2-2.213-1.318.007-3.602 1.183-5.837 2.745-2.25 1.572-2.8 1.199-4.5 1.559-2.663.564-4.204.382-4.923-1.509-.33-.865-.5-.567-.208-1.83.19-.82.43-1.947.478-2.506s.784-1.446.982-1.613c.665-.562-1.17-1.66-2.857-1.662-.901-.001-1.754-.452-2.296-.603-2.536-.704-4.282-2.534-4.282-5.174 0-2.11-.551-2.105 1.02-.484 3.169 3.27 6.27 3.348 12.329.312 1.552-.778 3.189-1.488 3.638-1.578s2.286-.752 2.282-.843-.94-1.243-1.336-1.704c-.717-.833-3.024-1.197-4.664-.024l-.963.688-.168 1.268c-.093.698-.315 1.069-.575 1.39-.425.524-.089.183-.626-.144-.735-.446-2.56-2.542-2.56-3.052 0-.216-.565-.983-.938-.983-.944 0-2.373-1.182-3.07-2.547-.492-.964-.675-1.425-.68-3.274-.005-1.311-.147-2.502.069-3.112.329-.932.423-1.303.058-2.318-.504-1.4-.597-2.745.24-3.7.693-.79 3.848-2.437 6.785-3.168 1.62-.403 8.788-1.588 9.627-1.592.084 0 .912-.659 1.841-1.463.93-.805 2.35-1.787 3.156-2.183 1.434-.704 1.608-.724 7.948-.905 3.566-.102 6.959-.293 7.54-.425 3.232-.733 5.244-1.298 5.752-2.414.262-.575.624-1.405.019-2.638-.83-1.69-1.171-2.483-.492-3.979.598-1.316 1.758-3.098 3.119-3.506 1.477-.442 1.67-.13 1.244 2.015-.31 1.562-.298 1.84.12 2.715l.679 1.165.722-.768c.434-.463 1.188-.901 1.304-.901.295 0 .491.577.973 1.513l.64 1.075.493-.783c.796-1.265 1.498-3.129 2.877-3.752 1.621-.732 3.71-1.082 3.968-.664.1.16-.374 1.182-1.052 2.27-.79 1.268-1.278 2.381-1.36 3.106l-.127 1.129.847-.241c1.335-.381 2.527-2.497 4.047-2.705 1.584-.217 1.71.277.557 2.192-.554.92-.913 1.862-.913 2.396 0 1.001.644 3.286.928 3.286.104 0 .898-.636 1.482-1.635 1.843-3.157 4.033-5.27 7.033-5.275.9 0 1.713.119 1.804.267.092.148-.183.713-.61 1.257-1.284 1.631-1.836 2.991-2.284 5.626-.547 3.223-1.74 5.31-3.512 6.903-.739.664-1.519 1.092-1.713 1.092-.193 0-.242.288-.31.397-.067.109 1.215.198 2.85.198h2.972l3.057 1.522c2.764 1.374 3.22 1.52 4.742 1.518 1.761-.003 3.582-.653 5.222-1.865 1.596-1.18 2.042-.091 1.06 2.586-.754 2.053-3.017 3.65-5.103 4.43-1.722.645-2.784.564-5.427.277-2.731-.296-3.045.734-1.492 1.763 1.522 1.008 2.922 2.837 4.325 5.647 2.396 4.802 5.92 6.473 8.783 3.833.622-.573 1.157-1.099 1.32-1.099.794 0 .503 2.418-.517 4.723-1.15 2.602-3.533 3.713-5.94 4.017-1.1.139-1.325 1.062-1.265 1.415.09.535-.98.396-2.162.633-.655.13-.68 1.07-.55 1.394.44 1.095.443 3.452.007 4.699-.247.706-.516 2.182-.597 3.279-.125 1.687-.063 2.16.403 3.075 1.14 2.234 3.05 3.04 4.905 2.072.417-.217.923-.395 1.124-.395.604 0 .419 1.139-.39 2.396-.939 1.46-1.687 1.549-3.212 2.34-1.439.748-4.103.857-5.914.35-.648-.182-1.875.25-1.959.334-.272.272 1.193 3.258 1.763 3.563.644.344.751 1.336.144 1.336-.225 0-.791.197-1.257.439l-.847.438.927.335c.509.184 1.357.344 1.885.355s1.113.205 1.3.43c.291.35.13.627-1.091 1.866-.816.829-2.146 1.345-3.089 1.81-1.399.691-2.084-.019-3.739.582l-2.216.293-.01 1.84c-.011 1.906-1.258 3.887-3.071 5.767-1.915 1.986-2.868 3.05-2.867 3.844.001.9.898 2.233 1.971 2.928.513.332.933.798.935 1.036.008 1.049-2.678.756-5.202.174-.931-.215-2.038-1.423-2.48-1.044-.709.606.07 3.66.889 6.1 1.956 5.829 5.012 9.675 13.231 16.658 9.245 7.853 12.747 13.98 13.325 22.664.128 1.93.215 3.731.192 4.001-.058.68.855.538 2.918-.456 4.151-2 7.437-7.24 7.006-13.091-.39-5.281-1.828-9.599-7.961-17.672-4.913-6.467-7.2-9.595-8.44-14.273-.924-3.478-1.228-7.534-.408-10.585 1.874-6.973 6.607-12.754 13.222-14.446 2.759-.706 6.594-.707 8.873-.002 4.666 1.442 7.875 5.263 8.044 9.578.101 2.58.458 3.29 2.064 4.103 2.14 1.085 2.803 1.693 3.954 3.628.847 1.423 1.32 1.929 2.157 2.31 2.21 1.003 5.027.712 6.57-1.16.582-.707.812-1.274 1.132-1.15.66.253.406 3.555-.405 5.264-1.23 2.587-3.753 4.353-6.356 5.086-1.483.417-1.47.827-1.057 1.323.49.59-.513 1.009-2.564 1.937-3.166 1.434-6.5-.434-9.219-.685l-1.315-1.048-.724 1.08c-.71 1.061-2.998.302-5.325-1.24-2.395-1.586-3.757-3.876-3.49-6.827.161-1.774.176-2.897 1.448-4.33l1.056-1.19-.763-.73c-.672-.643-.768-.215-1.248.031-.543.28-.696-.117.42-.488.788-.263 3.729-1.891 5.495-3.39 2.016-1.713.31-5.661-3.033-6.275-5.357-.982-12.15 4.66-13.26 10.7-.999 5.44.71 10.437 5.885 17.216 1.555 2.038 3.611 4.657 4.568 5.821s2.458 3.205 3.336 4.535c1.432 2.172 1.693 2.435 2.556 2.574 1.425.229 2.153.841 2.153 1.81 0 .63.246 1.03 1.058 1.726.845.724 1.058 1.085 1.058 1.796 0 .489-.13.97-.288 1.068-.181.112.052.537.623 1.14 1.208 1.273 1.342 1.753.804 2.886-.337.709-.369.978-.128 1.058.467.156 1.106 1.503 1.106 2.331 0 .39-.25 1.114-.556 1.609-.528.855-.534.943-.124 1.807.53 1.116.347 2.052-.647 3.326-.628.805-.716 1.119-.601 2.14.171 1.517-.479 2.482-1.873 3.446-.655.453-.945 1.09-.952 1.454-.013.784-1.344 1.752-2.406 2.196-.552.23-.779.993-.779 1.31 0 .666-1.306 1.283-2.83 1.866-2.5.954-.795 1.822 2.349 1.064 1.21-.292 3.57-.6 5.244-.685 2.719-.138 3.324-.081 5.688.532 3.181.825 4.949 1.653 6.566 3.077 1.186 1.043 1.38 1.451 1.676.899.544-1.016 2.603-2.18 6.31-2.631 10.547-1.283 15.262-2.854 22.49-7.492 3.642-2.337 3.792-2.284 3.306 1.182-.668 4.77-2.829 10.333-5.426 13.974-.688.964-1.18 1.823-1.095 1.909.086.085 1.201.387 2.48.669 1.623.359 3.823.558 7.305.66 3.76.112 5.016.233 5.116.495.33.859-3.558 5.188-6.92 7.704-2.143 1.606-5.344 2.853-8.515 4.208-2.06.88-8.104 2.184-10.67 2.563-.99.146-1.059 1.011-1.059 2.28 0 1.22.61 5.703 1.463 10.741a83 83 0 0 1 .613 4.457c.25 2.466.057 1.856-3.474 3.079-3.035 1.052-6.017 1.625-9.62 2.015-3.451.373-8.123-.08-13.023-.965-1.657-.299-4.911-.657-6.585-.959-2.205-.397-4.237-.682-7.21-.686-3.635-.005-4.533.34-6.879.974-3.265.881-6.266 2.268-11.243 4.65-5.734 2.745-8.508 3.526-12.017 4.812-6.512 2.387-15.102 4.846-21.75 5.71-4.537.59-16.757.35-21.034.27zm20.272-27.57c4.333-.63 9.856-1.896 14.075-3.225 3.855-1.215 7.232-2.678 13.39-5.801 8.999-4.564 14.305-6.096 22.144-6.393 4.405-.167 8.248.133 14.195 1.11 8.734 1.433 13.68 1.474 17.53.144 5.598-1.933 6.947-6.41.649-11.435l-3.804-3.034-.326 2.629c-.36 2.894-2.584 3.866-5.404 5.125-3.312 1.479-5.63 1.565-9.05.891-1.389-.274-3.468-.817-4.728-.78-2.388.07-4.138-1.153-7.035-.917l-2.083-.485-1.905.546c-1.655.474-7.972 1.34-11.466.384-.516-.14-2.335-.021-3.11.22-.68.21-1.938.447-3.604.463-3.106.03-4.67-.53-6.634-1.532-.77-.392-2.63-.207-2.866-.01-.486.403-3.285.873-5.416 1.44-2.826.752-5.792.923-8.156.412-1.08-.233-3.11-.746-4.431-.735-2.234.018-5.051.176-6.268-.505-.239-.133-1.99.49-3.302 1.057-3.776 1.632-7.714 1.65-12.42.677-1.566-.323-2.34-.342-4.234.111-4.05.97-7.328-.621-10.752-.956l-1.342-.74-2.335.758c-3.687 1.197-8.277 1.417-10.988.736-.582-.146-2.335-.358-3.815-.35-3.486.021-4.968-1.97-8.3-1.89l-2.205-.459-2.315.679c-3.392.994-8.852 1.73-11.7 1.215-1.176-.212-1.942.318-2.745.57-1.171.366-4.06.916-6.245.934-2.519.008-5.945-.723-7.671-1.865-2.386-1.578-4.844-4.308-4.844-6.523 0-.338-.524-.623-.895-.427-.286.15-4.903 4.351-5.765 5.405-3.712 4.543-2.034 7.888 4.546 9.061 3.56.635 7.142.459 13.788-.677 8.968-1.534 15.302-1.734 21.477-.678 5.625.962 8.98 2.138 15.279 5.356 2.995 1.53 6.695 3.296 8.223 3.922 7.425 3.043 15.85 5.158 23.68 5.945 1.456.146 3.123.315 3.705.375 2.687.277 11.288-.14 15.478-.749M136.87 710.347c.254-.133 3.074.112 3.098.07.108-.195-.367-.875-.969-1.274-.601-.398-1.475-1.228-2.114-1.817-.638-.588-1.4-1.367-1.495-1.273-.306.307 4.923 3.864 5.26 4.27.18.217-5.054.78-4.737.845.736.15.355-.505.957-.82m5.03-1.107c.95-.63-.549 1.618-.916 1.477-.486-.186-.923-1.421-.923-.954 0 .458.63.28 1.838-.523m4.085-1.976.823-.35-2.673 1.565c-1.404.823-.695-2.43-1.328-1.893-.618.523.036.53.561.936.552.426 1.145.368 2.617-.258m2.937-.648c.459-.16 1.458-.43 1.458-.53 0-.203 2.048-.466 1.953-.322-.305.466-3.96.883-3.834 1.008.219.22-.534.178.423-.156m-11.078-6.019c.118-.763.516-1.793.521-1.924.014-.35-.895 3.617-1.455 3.795-.546.173-2.812-3.27-2.373-2.415.42.818 1.865 2.3 2.102 2.155.108-.068 1.088-.847 1.205-1.61m8.016.153c.373-1.74-.004 1.5-.38 1.5-.265 0-2.503-3.961-2.739-3.726-.15.15 2.342 3.562 2.603 3.562.126 0 .358-.601.516-1.336m4.644-4.064c0-.34-1.625.94-2.167 1.134-.965.346-1.386-1.292-1.093-.648l.274.602 1.431-.527c.787-.29 1.555-.447 1.555-.56m14.06-12.3c-.096.03-3.466 1.301-3.145.684l1.679-3.225-.01.886c-.004.486-.249 1.223-.543 1.635l-.534.751 1.342-.473c.738-.26 1.572-.372 1.476-.342zm-6.705.115c-.238-.142-2.213-.913-2.282-1.313-.148-.863 1.757-.834.888-.143-.555.442-.598.566-.264.77.218.134.582.502.873.726.707.543 1.561.426 1.033.109zm1.064-1.872c0-.4.272-.932-.173-.868-.731.104-.384.924.28 1.074.66.149-.107.416-.107-.206" style="fill:#e7bc35;fill-opacity:1" transform="translate(-25.483 -661.118)"/><path d="M146.735 881.394c-6.58-.471-16.442-2.5-23.784-4.894-4.492-1.465-8.78-3.216-13.734-5.609-10.13-4.893-12.25-5.561-18.343-5.785-3.566-.13-4.357-.072-7.805.571-10.315 1.925-11.105 2.03-15.61 2.051-5.996.029-11.038-.878-15.49-2.786l-2.105-.903.078-1.293c.043-.71.426-3.257.852-5.658.749-4.218 1.584-10.078 1.584-11.114 0-.377-.25-.544-.993-.664-8.705-1.402-15.555-4.338-21.398-9.17-2.783-2.3-5.1-5.303-4.764-6.176.16-.417.43-.449 2.488-.294 3.302.25 11.303-.685 12.05-1.407.119-.114-.464-1.206-1.296-2.426-1.705-2.503-2.887-4.938-3.904-8.04-1.388-4.235-1.933-8.334-1.109-8.334.215 0 1.495.727 2.845 1.615 1.35.889 3.705 2.238 5.233 2.998 5.041 2.51 8 3.351 14.949 4.25 6.056.784 7.608 1.206 8.793 2.39l.884.885 1.075-1.167c3.73-4.047 12.705-4.724 19.869-1.499l1.601.721 2.277-.762c2.78-.93 6.742-1.668 10.27-1.91 4.678-.323 10.518.725 14.088 2.527l1.55.783 1.63-.663c2.306-.936 6.524-1.893 9.93-2.25 4.695-.494 9.644.172 14.028 1.886l2.7 1.056 1.2-.514c2.454-1.052 6.25-2.113 9.588-2.68 5.753-.976 11.027-.521 15.327 1.322 2.49 1.067 1.693.018-.907-1.196-8.093-3.775-12.693-7.018-18.063-12.733-3.29-3.5-3.71-3.843-7.655-6.237-7.535-4.572-13.95-10.999-18.223-18.257q-1.833-3.114-1.832-2.075c0 .131-.556.608-1.236 1.058-1.396.924-2.378 1.023-4.162.417-1.112-.378-1.245-.369-2.23.144-1.567.817-2.75.914-4.92.403-1.716-.404-2.028-.413-2.7-.074-1.306.66-2.114.735-3.311.31-.98-.348-1.401-.36-2.815-.08-1.31.259-1.85.26-2.552.006-.676-.245-1.199-.251-2.174-.027-.79.182-2.232.23-3.746.123-2.971-.209-3.724.08-6.499 2.488q-2.751 2.389-5.043 2.406c-.448.003-1.528.358-2.4.788-1.796.884-2.975 1.014-3.228.356-.092-.24-.05-1.015.095-1.72.262-1.28.26-1.282-.446-1.282-.39 0-1.1-.136-1.577-.303-.83-.29-.913-.255-1.911.794-.574.603-1.13 1.096-1.235 1.096-.567 0-.827-.797-.827-2.54 0-1.74.08-2.023.933-3.29.513-.764.9-1.404.86-1.424-.853-.43-2.144-.948-2.366-.948-.16 0-.881.425-1.604.945-1.704 1.224-2.056 1.079-2.056-.847 0-2.338 1.104-3.913 3.678-5.243l.9-.466-.856-.541-.855-.542-1.424.59c-1.545.64-1.976.569-1.967-.327.017-1.7 2.498-4.698 4.197-5.071.461-.102 1.44-.589 2.174-1.083 1.808-1.217 3.107-1.522 5.794-1.358 1.783.108 2.715.332 4.498 1.082 2.025.852 2.493.947 4.685.95 3.852.008 9.85-1.677 18.988-5.331 2.179-.871 4.05-1.639 4.158-1.706s-.038-.355-.324-.64c-.353-.354-.52-.88-.52-1.645 0-1.064-.043-1.126-.786-1.152-1.516-.053-1.928-1.147-1.173-3.114.133-.347-.042-.39-1.124-.272-1.03.11-1.464.022-2.208-.453-.584-.374-1.251-.566-1.81-.523-1.42.11-2.423-.434-2.423-1.315v-.747l-1.803.152c-1.48.124-2.028.051-3.063-.407-1.47-.65-1.572-1.336-.249-1.679 1.21-.313 2.204-1.605 2.204-2.863 0-.563-.116-1.095-.259-1.183-.142-.088-.788.02-1.435.239-1.02.346-1.364.35-2.58.036-1.904-.495-2.87-1.568-2.87-3.193 0-1.132.036-1.186.766-1.186 1.527 0 1.186-1.167-1.276-4.366-1.677-2.178-2.392-3.656-3.307-6.83-.37-1.283-.765-2.497-.878-2.7-.113-.201-.919-.727-1.79-1.167l-1.584-.801-.458.59c-.252.324-3.037 4.37-6.188 8.99-3.152 4.62-5.842 8.4-5.978 8.4-.625 0-3.913-2.212-3.913-2.632 0-.433 1.268-2.333 9.507-14.254l3.533-5.113-1.272-1.29c-1.141-1.16-1.281-1.434-1.374-2.693-.127-1.706.514-2.906 1.905-3.57.92-.438.923-.447.762-1.82-.276-2.352 1.218-4.291 3.507-4.55.92-.103 1.16-.235 1.16-.635 0-.824.96-2.46 1.957-3.336 1.438-1.263 3.995-1.477 5.048-.424.236.236.465.384.511.33.482-.567 6.027-8.518 6.132-8.791.125-.327-1.796-2.022-2.292-2.022-.1 0-.675.655-1.279 1.455s-1.237 1.456-1.406 1.456c-.458 0-4.438-2.671-4.438-2.979 0-.146.417-.845.926-1.554s.925-1.378.923-1.487-.716-.609-1.587-1.11c-1.16-.668-1.585-1.065-1.585-1.48 0-.528 2.319-4.121 2.885-4.472.14-.086.937.322 1.771.906s1.587 1.062 1.672 1.06c.085 0 .614-.715 1.176-1.587s1.14-1.585 1.284-1.585c.51 0 4.441 2.72 4.441 3.072 0 .197-.417 1.009-.926 1.805s-.926 1.497-.926 1.558c0 .092 1.445 1.13 2.553 1.834.208.133 1.206-1.13 2.965-3.752l2.65-3.951-1.568-1.01c-.863-.556-1.57-1.19-1.572-1.408-.004-.46 2.857-4.762 3.167-4.762.114 0 .898.535 1.741 1.19s1.602 1.19 1.686 1.19.48-.506.88-1.124c.91-1.403 1.676-2.315 1.943-2.315.35 0 4.057 2.496 4.183 2.817.066.167-.407 1.029-1.052 1.914-.644.886-1.172 1.702-1.171 1.813 0 .112.597.61 1.327 1.107 2.133 1.454 2.122 1.346.398 3.884-.991 1.459-1.659 2.204-1.894 2.114-.2-.076-1.013-.63-1.808-1.23s-1.565-1.05-1.71-1-1.452 1.782-2.903 3.85l-2.639 3.76 1.324.972c.729.535 1.415.867 1.526.738.11-.128.648-.859 1.195-1.623s1.053-1.389 1.125-1.389c.237 0 3.654 2.279 4.127 2.752.443.444.414.538-.647 2.05-.675.963-1.005 1.656-.84 1.765.15.1.888.58 1.64 1.068s1.366.99 1.366 1.116c0 .248-1.723 2.806-2.743 4.073l-.632.784-1.476-1.138c-.811-.626-1.596-1.064-1.743-.973-.146.09-.648.696-1.115 1.345-.466.65-.976 1.181-1.134 1.181-.574 0-4.386-2.64-4.386-3.037 0-.226.435-1.066.967-1.868.934-1.407.95-1.47.463-1.835-.801-.6-2.194-1.318-2.299-1.186-1.029 1.303-5.562 7.879-5.584 8.1-.016.17.387.586.896.927.58.387 1.224 1.214 1.72 2.207.778 1.556.793 1.657.727 5.159-.105 5.556.464 6.995 4.005 10.135 4.444 3.94 8.31 6.68 11.835 8.385 1.852.895 2.451 1.059 3.873 1.059.926 0 2.212-.133 2.859-.296.962-.242 1.175-.406 1.175-.902 0-.91 2.946-3.693 4.895-4.623 2.4-1.145 4.695-1.419 8.936-1.063 3.928.33 6.282.033 8.582-1.08 2.296-1.112 4.58-3.96 4.57-5.702-.005-1.207-.376-1.55-1.64-1.521-1.314.03-3.475 1.06-6.026 2.872-2.794 1.984-6.039 2.572-8.177 1.481-1.41-.72-2.082-2.565-1.587-4.36.153-.552.378-1.557.5-2.232s.305-1.495.407-1.822c.179-.575.126-.596-1.5-.597-3.081-.003-5.161-.984-6.56-3.095-1.14-1.721-1.445-5.106-.46-5.106.174 0 .846.546 1.493 1.214 3.091 3.19 6.52 3.259 12.256.248 1.194-.627 2.647-1.286 3.229-1.465 1.513-.465 1.558-.587.568-1.546-.884-.858-.896-.86-2.853-.683l-1.964.178-.39 1.622c-.285 1.192-.52 1.647-.882 1.714-.639.119-2.61-1.804-3.208-3.127-.343-.761-.679-1.065-1.426-1.289-1.096-.328-2.503-1.584-3.138-2.803-.63-1.207-.75-4.514-.231-6.301.317-1.091.36-1.662.164-2.178-.337-.887-.343-2.81-.012-3.682.627-1.649 7.232-3.85 14.03-4.677 3.132-.38 3.471-.511 5.087-1.964.721-.649 2.102-1.568 3.069-2.044l1.758-.866 6.62-.164c6.64-.166 8.003-.346 10.457-1.383.51-.215 1.217-.702 1.574-1.083.71-.757.677-1.066-.407-3.872-.418-1.08-.43-1.35-.106-2.505.454-1.62 2.065-3.296 3.81-3.962 1.074-.41 1.296-.426 1.505-.106.135.206.18.613.1.904-.437 1.589-.438 3.242-.004 4.082l.45.873.714-.855c.946-1.133 1.6-.987 2.324.523l.567 1.182.411-.984c.65-1.556 1.71-2.764 2.95-3.364 1.372-.664 3.71-1.083 4.065-.728.156.157-.235 1.048-1.047 2.384-.958 1.578-1.296 2.4-1.296 3.153v1.02l1.124-1.15c.811-.83 1.55-1.282 2.651-1.62 2.465-.755 2.863-.264 1.537 1.897-1.071 1.745-1.22 2.529-.73 3.852.227.612.45 1.38.495 1.709.065.47.334.164 1.27-1.439 2.122-3.632 4.162-5.117 7.307-5.32 1.73-.11 1.956-.071 1.956.335 0 .253-.316.834-.702 1.291-.958 1.135-1.938 3.303-1.941 4.296-.001.45-.243 1.76-.536 2.91-.78 3.059-2.123 4.869-4.927 6.637-.39.245-.023.28 1.766.163 2.71-.177 4.502.262 7.266 1.779 3.575 1.961 5.671 1.96 8.87-.007 1.406-.865 1.763-.987 2.05-.7.525.526-.04 2.666-1.145 4.342-2.028 3.073-6.127 4.717-9.38 3.763-.99-.29-2.908-.1-2.908.288 0 .129.327.404.727.611 1.307.678 2.946 2.6 4.071 4.777 1.616 3.126 2.523 4.341 3.882 5.203 2.021 1.282 4.092.977 6.062-.892.74-.702.874-.748 1.025-.356.571 1.49-.77 5.348-2.486 7.142-1.197 1.253-3.278 2.278-4.633 2.281-.888.002-.999.072-.926.587.097.683-.813 1.258-2 1.264-.719.004-.751.052-.582.864.447 2.15.455 3.273.03 4.431-.24.655-.505 2.162-.59 3.349-.135 1.893-.08 2.31.447 3.399.999 2.063 3.13 2.832 5.07 1.829 1.674-.865 1.675.595.003 2.709-1.981 2.505-5.525 3.581-9.03 2.74-.75-.18-1.429-.262-1.508-.183-.3.3.537 2.141 1.417 3.115.977 1.082.962 1.563-.049 1.563-.5 0-.786-.321-1.433-1.617-.444-.889-.888-2.05-.986-2.58-.104-.56-.647-1.516-1.297-2.285-.615-.728-1.36-1.8-1.657-2.381-.297-.582-1.074-1.502-1.728-2.043-1.7-1.409-2.224-2.886-1.833-5.169.454-2.65.86-2.7.86-.104 0 2.347.279 3.178 1.43 4.253l.686.641v-1.132c0-1.14.621-3.93 1.056-4.74.733-1.368 1.076-3.368 1.23-7.17.212-5.24-.032-6.518-1.664-8.714-1.371-1.845-1.363-1.709-.362-6.25.724-3.285.588-5.367-.502-7.672-.774-1.638-2.34-3.643-3.21-4.108-.432-.232-.532-.123-.792.863-.992 3.751-4.987 6.91-9.187 7.262-1.195.1-1.902.054-2.017-.132-.11-.179.2-.345.823-.442 1.992-.308 4.197-.977 5.255-1.594 3.412-1.99 5.214-6.418 3.859-9.483-.707-1.597-1.655-2.024-4.492-2.024-1.812 0-2.303.11-3.769.843-.927.463-2.315 1.452-3.085 2.197-1.622 1.572-1.939 1.151-.53-.704.617-.812 1.473-1.453 2.945-2.203 2.002-1.022 2.165-1.059 4.663-1.059 2.457 0 2.649.041 3.737.805.631.442 1.357 1.246 1.612 1.786s.538.981.627.981c.09 0 .857-.422 1.706-.938 2.965-1.801 4.372-4.054 4.977-7.973.358-2.314.596-2.964 1.632-4.47l.805-1.17h-.887c-1.144 0-3.448 1.151-4.593 2.297-.494.493-1.267 1.637-1.719 2.54-1.663 3.33-3.557 5.216-5.235 5.216-.848 0-.663-.477.35-.9 1.378-.576 1.82-1.442 1.633-3.192l-.314-2.916c-.134-1.245-.059-1.628.529-2.68.377-.674.686-1.272.686-1.329s-.447.083-.992.31c-1.4.581-3.94 3.18-4.675 4.782-.63 1.377-1.798 2.483-3.168 3.004-.42.16-.836.211-.925.114s.004-.234.206-.306c.833-.296 2.381-2 2.884-3.173.295-.69.612-1.85.705-2.577.342-2.702.447-3.047 1.324-4.35.493-.733.816-1.382.717-1.443-.413-.256-2.306.667-3.24 1.578-1.151 1.125-1.95 2.832-2.221 4.744-.238 1.683-1.078 3.19-2.146 3.85-1.223.756-1.329.635-.385-.44 1.04-1.185 1.332-1.932 1.332-3.405 0-1.01-.832-3.577-1.16-3.577-.065 0-.382.424-.702.943-.494.8-.557 1.173-.413 2.452.155 1.364.098 1.625-.593 2.714-.717 1.13-2.213 2.126-2.605 1.735-.091-.091.027-.613.263-1.16.236-.548.508-1.573.605-2.279.118-.86.25-1.166.402-.926.387.61.259 1.785-.32 2.948l-.556 1.114.838-.817c.889-.867 1.403-2.432 1.166-3.549-.077-.364-.503-1.479-.948-2.477-.709-1.593-.788-2.007-.645-3.374.09-.856.063-1.557-.059-1.557-.559 0-2.068 1.307-2.606 2.256-.775 1.369-.757 2.373.078 4.196.852 1.862.706 2.713-.684 3.97-1.75 1.58-5.313 2.349-10.845 2.338-3.864-.007-4.546.17-5.537 1.43-.306.388-.63 1.164-.719 1.724-.173 1.084-.742 1.37-1.015.51-.18-.569.445-2.259 1.103-2.987.404-.446.37-.473-.605-.473-1.352 0-3.96 1.262-5.112 2.473-.75.79-.829.974-.463 1.09 1.287.412 1.32.524.176.598-2.193.144-9.105 1.167-11.245 1.665-3.626.845-7.596 2.508-7.904 3.313-.699 1.82 1.256 5.332 2.835 5.094.285-.043.763-.406 1.062-.808l.544-.731-.583-.409c-1.351-.946-.402-2.128 1.637-2.04 1.076.047 1.542-.078 2.333-.626.994-.689 1.796-.691 1.796-.005 0 .615-.987 1.67-1.909 2.04-1.22.49-2.017 1.143-3.327 2.721-1.092 1.318-1.128 1.417-.96 2.691.367 2.788 2.046 4.6 4.792 5.17 2.099.436 3.43.143 6.78-1.49 4.398-2.145 6.45-2.194 8.65-.206 1.365 1.233 2.17 3.206 2.32 5.686.194 3.2-.558 4.759-2.859 5.925-.702.356-2.149.78-3.215.941-2.34.356-3.691.919-6.303 2.628-2.424 1.585-4.495 2.185-6.75 1.954-1.87-.191-2.198.045-2.525 1.82-.275 1.492-.06 2.429.744 3.233.579.578.895.664 2.416.66 2.044-.008 3.277-.492 5.762-2.265 2.321-1.657 4.252-2.494 5.83-2.53 1.66-.037 2.341.33 2.715 1.462.862 2.613-2.04 6.325-6.376 8.154-1.34.566-1.773.6-7.77.604l-6.35.004-1.983.95c-1.092.522-2.52 1.475-3.175 2.116l-1.191 1.167 1.984.148c1.901.143 3.292.63 4.287 1.5.383.337.655.346 1.827.065.978-.234 2.15-.268 4.048-.115 4.47.36 6.152.256 8.624-.535 1.237-.396 2.694-.967 3.238-1.27.544-.301 1.06-.478 1.145-.393.277.277-1.813 1.514-3.986 2.36-2.585 1.005-4.845 1.213-8.304.764-2.217-.288-2.782-.274-4.39.104-2.27.535-3.663 1.328-5.134 2.924-1.036 1.124-2.404 3.551-2.41 4.275-.001.167.92-.162 2.047-.731 3.109-1.567 6.407-2.158 10.783-1.933 2.321.12 3.957.073 5.027-.143 2.32-.468 5.069-1.902 6.812-3.551.837-.792 1.522-1.299 1.522-1.127 0 .744-2.568 3.14-5.384 5.022-3.814 2.551-4.848 3.713-6.243 7.021-1.67 3.957-3.078 5.058-7.688 6.012-2.123.439-2.337.548-3.836 1.962-2.468 2.327-4.208 3.33-8.755 5.041a426 426 0 0 0-5.797 2.223c-7.4 2.968-13.065 5.056-16.462 6.068-8.062 2.4-10.803 2.544-15.156.797-3.427-1.375-5.367-1.402-8.154-.114-1.7.786-1.913.963-1.745 1.443.402 1.142.236 2.583-.352 3.06-.422.342-.489.533-.263.758.477.478 1.336.357 3.007-.424 1.38-.646 1.863-.727 4.332-.732 1.528-.003 2.924-.098 3.103-.212s.596-.06.926.12c.59.322.585.332-.325.58-.51.138-2.07.282-3.47.32-2.349.062-2.736.154-5.091 1.203-2.54 1.13-2.547 1.137-2.051 1.68.79.866.867 1.537.302 2.644-.61 1.197-.558 1.35.536 1.568.678.136 1.2-.067 3.005-1.17 1.787-1.093 2.565-1.398 4.278-1.681 1.152-.19 2.414-.497 2.805-.682.392-.185.926-.248 1.19-.14.402.163.415.223.084.365-.219.093-.695.366-1.059.605-.364.24-1.376.519-2.249.621-2.02.237-2.896.608-5.041 2.139l-1.735 1.238.794.483c.902.548 1.322 1.957.847 2.844-.47.877-.341 1.103.625 1.103.777 0 1.182-.27 2.719-1.816.993-1 2.279-2.05 2.857-2.337 1.321-.654 3.914-1.264 4.468-1.051.684.262.478.706-.327.706-.889 0-3.088.711-4.016 1.299-.62.392-2.381 2.101-2.381 2.31 0 .053.279.096.62.096.88 0 1.496.803 1.496 1.95v.984l.992-.18c1.493-.27 2.78-1.01 4.617-2.648 2.571-2.294 2.727-2.348 6.827-2.372 1.964-.011 3.78-.114 4.035-.229.31-.14.463-.507.463-1.114 0-1.132.546-2.453 1.286-3.113.66-.589.729-.267.17.804-.575 1.105-.515 2.82.12 3.395.426.385.781.437 1.972.288 1.793-.224 2.7-.905 3.08-2.311.215-.803.366-1.001.589-.778.292.292.1 1.416-.473 2.772-.224.529-.225.529 3.646.018 1.517-.2 1.898-.738 1.71-2.412-.148-1.31.24-1.437.811-.263.252.516.274.958.084 1.647-.24.871-.21.961.4 1.194 1.5.57 3.63.04 4.43-1.103.553-.79.557-2.566.006-3.174-.233-.258-.372-.624-.309-.813q.115-.345.988.528c.833.833.865.94.705 2.308-.187 1.584-.325 1.45 1.901 1.823 2.9.484 4.51-2.778 2.53-5.131-.895-1.063-.204-1.094.923-.042.552.516.87 1.119.992 1.88.218 1.363 1.086 1.986 3.12 2.24 3.45.432 5.896-1.5 3.712-2.931-.335-.22-1.108-1.075-1.717-1.901-.61-.827-1.469-1.812-1.91-2.19-.778-.668-.784-.69-.22-.837.6-.157 1.126.284 3.612 3.032 1.571 1.738 4.862 2.672 7.83 2.223 1.899-.287 1.953-.45.617-1.844-.661-.69-1.269-1.59-1.351-2-.137-.684-.267-.756-1.615-.895-1.507-.156-3.583-1.204-4.135-2.088-.394-.632-.002-.911.563-.4 1.47 1.33 4.607 1.912 6.11 1.135.578-.299 1.362-1.363 1.362-1.848 0-.045-.64-.148-1.422-.23-1.514-.155-3.264-.91-3.888-1.676-.33-.407-.329-.448.018-.323 2.64.953 3.353 1.078 5.435.948 1.756-.11 2.522-.305 3.946-1.006 2.242-1.104 4.652-3.64 5.426-5.71.295-.787.836-2.024 1.203-2.748l.668-1.318h-.777c-.427 0-.935-.06-1.129-.133-.227-.087-.53.299-.852 1.084-.741 1.805-2.883 3.869-4.736 4.562-1.926.72-4.397.753-5.877.078-1.047-.479-3.307-2.673-3.307-3.212 0-.45.823-.635 1.354-.304.675.421 3.5.386 4.56-.057 1.229-.513 2.72-1.891 3.514-3.244.372-.635.784-1.155.916-1.155.497 0 .209 1.008-.62 2.168-1.685 2.355-3.368 3.352-6.04 3.576-2.139.18-2.11.436.17 1.552 1.209.592 1.624.668 2.817.516 3.1-.393 5.645-2.396 7.114-5.598.494-1.076 1.118-1.918 1.855-2.502 1.132-.896 2.34-3.088 2.749-4.987.194-.902.184-.897-1.316.723-2.132 2.304-4.333 3.365-6.945 3.35-2.446-.013-2.876-.375-1.493-1.257 1.994-1.272 3.007-2.94 3.007-4.953v-1.08l-1.028.827c-1.006.808-3.33 2.126-6.523 3.7-1.637.807-4.382 1.467-5.043 1.214-.204-.079-.37-.388-.37-.688 0-.603.746-1.034 1.02-.59.21.34 2.17.017 3.653-.602 1.52-.635 2.165-1.376 3.27-3.757 1.195-2.578 2.04-3.743 3.39-4.679 1.564-1.084 1.626-.811.116.51-1.337 1.17-2.727 3.483-3.134 5.215-.255 1.086.31.938 2.522-.66 1.539-1.113 2.073-1.691 2.688-2.91.457-.904 1.572-2.325 2.748-3.501l1.98-1.98-.66-.433c-.769-.504-.86-1.117-.197-1.333 2.66-.864 3.902-1.624 6.088-3.726 1.271-1.223 2.594-2.418 2.94-2.656.572-.395.654-.396.934-.012.27.37.593.245 2.68-1.035 1.305-.8 2.94-1.87 3.633-2.378 1.42-1.04 2.576-2.798 2.576-3.914 0-.535.311-1.032 1.102-1.763.607-.56 1.262-1.017 1.456-1.017.503 0 .442.191-.317 1.003-.369.394-.858 1.371-1.087 2.172-.229.8-.926 2.527-1.549 3.836-1.157 2.435-1.722 4.446-1.722 6.137v.951l1.39-1.307c1.802-1.697 3.131-2.589 6.664-4.471 4.283-2.282 5.752-4.004 6.906-8.094.327-1.16.786-2.32 1.02-2.578.596-.659.535-1.053-.374-2.412-1.545-2.308-1.942-4.9-1.162-7.584.297-1.022.395-2.224.331-4.076-.05-1.445-.012-2.628.083-2.628.35.001 1.017 2.514 1.014 3.818-.002.738-.179 1.997-.393 2.797-.816 3.039-.422 5.284 1.292 7.368 1.174 1.428 3.54 3.367 3.796 3.11.086-.086.002-.485-.187-.885-.19-.401-.38-1.898-.426-3.327-.044-1.43-.215-3.003-.378-3.499-.24-.729-.192-1.422.26-3.65.626-3.096.513-4.223-.656-6.53-.894-1.765-.404-1.887.764-.19 1.41 2.05 1.661 3.782.968 6.699-.601 2.533-.476 3.68.544 4.976.525.668 1.793 1.485 2.305 1.485.131 0-.001-.685-.294-1.522-.381-1.088-.48-1.805-.345-2.52.253-1.342.69-.993.693.551.002.763.257 1.787.662 2.657.715 1.535.802 2.037.397 2.287-.347.215-2.618-.804-3.373-1.512l-.599-.563.003 1.568c.002.862.18 2.152.397 2.866.547 1.803.505 2.235-.239 2.422-.746.187-1.886-.35-2.786-1.314-.353-.378-.786-.687-.963-.687s-.524.804-.771 1.786c-.587 2.328-1.359 4.06-2.598 5.832-.552.79-1.233 2.04-1.514 2.777s-.861 1.662-1.292 2.055c-1.002.916-1.473 2.515-1.478 5.02-.003 1.804.084 2.14.927 3.572 1.11 1.886 2.787 5.523 3.017 6.54.27 1.196-.262.828-1.047-.723-.404-.799-.954-1.65-1.222-1.894-.268-.242-.488-.628-.488-.858s-.422-1.101-.939-1.938c-1.525-2.47-1.702-5.842-.489-9.281.625-1.771.498-1.847-1.284-.764-1.897 1.154-2.93 2.724-3.651 5.548-.234.916-.535 1.655-.669 1.642-.448-.043-.113-2.462.538-3.885.355-.773.606-1.406.559-1.406-.341 0-3.381 2.62-4.185 3.607-.834 1.024-.992 1.417-.992 2.466 0 1.102.155 1.442 1.323 2.897 2.336 2.91 2.364 3.6.041 1.032-.631-.699-1.3-1.27-1.484-1.27-.22 0-.397.597-.512 1.716-.222 2.163-.36 2.516-.992 2.516-.666 0-.721.187-.974 3.308-.161 1.987-.125 2.942.145 3.836.198.655.38 2.024.404 3.043.038 1.59-.094 2.189-.935 4.233-1.038 2.523-1.436 4.52-1.022 5.134.397.587 5.1-4.409 6.181-6.566.8-1.595.857-1.903.957-5.09.058-1.866.21-3.327.339-3.248.128.08.236.643.24 1.253.01 1.716.423 3.114 1.13 3.821.608.608.689.622 1.408.248.957-.498 1.835-1.45 2.08-2.257.143-.47.021-.796-.503-1.343-.818-.854-1.211-2.071-1.211-3.748 0-1.718-.613-3.547-1.734-5.174-1.39-2.02-.983-2.33.53-.403.705.897 1.34 1.63 1.41 1.63s.057-.446-.03-.992l-.157-.992.494.648c.596.782.886 2.381.654 3.616-.304 1.622.13 4.264.839 5.106 1.159 1.378.584 3.329-1.332 4.513-.532.328-.908.657-.835.73s.757-.019 1.52-.202c3.013-.723 5.507-4.858 4.073-6.754-.496-.655-.503-.91-.024-.91 1.137 0 1.616 3.02.79 4.97-.694 1.633-.06 4.638 1.289 6.11.868.949 3.678 2.15 5.03 2.15.634 0 1.215-.063 1.29-.138.076-.076-.386-.7-1.025-1.386-1.505-1.616-2.06-3.411-1.857-6.004.08-1.026.334-2.308.564-2.85.516-1.218.535-2.058.045-2.058-.276 0-.338-.255-.24-.992.077-.586-.05-1.481-.308-2.183-.729-1.98-.781-2.218-.441-2.008.517.32 1.405 2.288 1.614 3.574l.196 1.212.437-.984c.544-1.226.56-2.968.037-4.448-.22-.623-.36-1.173-.31-1.223s.377.215.726.587c.524.558.654 1.014.733 2.585.086 1.706-.006 2.158-.87 4.282-1.015 2.498-1.581 5.948-.976 5.948.167 0 .303-.107.303-.238 0-.13.816-1.113 1.814-2.183 2.337-2.505 2.954-3.73 3.144-6.235l.149-1.972.935.176c1.808.34 3.97.177 5.266-.396 1.13-.5 2.98-1.975 2.98-2.377 0-.086-.368-.184-.817-.219-1.1-.083-2.421-.66-3.517-1.534l-.905-.723.557-.451c.55-.446.551-.466.078-1.517-.371-.822-.655-1.09-1.246-1.177-.937-.138-.976.195-.2 1.725l.563 1.113-.602-.529c-.332-.29-.825-1.026-1.098-1.634-.278-.621-.87-1.338-1.35-1.637-1.108-.688-2.728-2.641-3.377-4.07-.28-.62-.516-1.72-.522-2.448l-.012-1.323-.515.661c-.284.364-.775 1.145-1.092 1.736-1.049 1.957-.765 2.482 3.856 7.12l4.062 4.077 2.076.656c1.585.5 1.878.66 1.24.677-1.108.029-3.817-.828-4.776-1.512-.422-.3-.995-.97-1.275-1.49s-.64-.945-.798-.945c-.16 0-.76-.506-1.335-1.124a27 27 0 0 0-2.315-2.145c-.697-.561-1.463-1.429-1.7-1.928l-.434-.908-.377.72c-.568 1.085-.667 3.689-.218 5.772.585 2.716.028 3.395-1.838 2.242-1.5-.927-2.883-2.732-3.398-4.434-.262-.865-.417-1.735-.344-1.934.076-.209.22-.026.337.432.461 1.78 3.219 5.16 4.211 5.16.308 0 .307-.214-.006-1.39-.893-3.355-.22-5.883 2.797-10.514 2.242-3.44 2.784-4.796 2.567-6.414-.143-1.073.157-1.316.6-.486.402.75.335 2.392-.156 3.834-.897 2.63.029 6.051 2.2 8.13 1.224 1.172 2.959 2.123 3.538 1.94.618-.197 1.2.592 1.69 2.287.236.819.634 1.665.883 1.88.664.574 2.094.997 3.372.997.686 0 1.25.158 1.458.409.289.348.107.634-1.225 1.929-2.176 2.115-3.637 2.77-6.487 2.906l-2.286.109-.156 1.312c-.243 2.053-1.288 3.988-3.303 6.117-1.01 1.068-2.037 2.327-2.28 2.799-.423.817-.418.91.11 2.001.33.682.986 1.431 1.62 1.85.587.389 1.022.848.967 1.022-.054.173-.508.532-1.009.796-.713.377-1.293.452-2.673.348-1.66-.125-3.67-.861-4.056-1.486-.397-.643-.64-.192-.318.591.194.473.38 1.435.414 2.138.066 1.398 1.006 4.242 2.16 6.538 1.638 3.26 5.85 7.993 10.706 12.028 7.373 6.125 10.784 10.378 12.867 16.042 1.084 2.944 1.533 5.578 1.544 9.048l.009 2.866.86-.174c3.544-.713 6.916-4.265 8.04-8.467.547-2.045.455-6.006-.2-8.615-1.019-4.055-2.689-7.028-7.502-13.357-4.898-6.439-7.222-10.553-8.365-14.806-.81-3.015-.982-7.885-.375-10.628 1.483-6.7 6.67-12.498 13.034-14.57 2.774-.903 6.979-1.12 9.213-.475 5.172 1.493 8.578 5.367 8.579 9.756 0 2.294.565 3.297 2.38 4.228 1.841.945 2.741 1.796 3.795 3.592 1.166 1.986 1.935 2.493 3.98 2.624 2.033.13 3.122-.314 4.666-1.898 1.344-1.38 1.675-1.064 1.47 1.405-.167 2.01-1.026 3.926-2.517 5.62-1.075 1.221-3.488 2.67-4.967 2.983-.764.161-.834.254-.7.926.129.643.009.842-.862 1.434-2.815 1.913-7.523 2.32-10.305.892-.737-.378-1.495-.876-1.686-1.105-.432-.52-.844-.546-.65-.041.227.59-.876 1.025-2.114.834-2.017-.31-3.554-.969-4.777-2.045-1.56-1.373-2.41-2.855-2.803-4.89-.51-2.636.384-5.55 2.032-6.63.911-.596.649-.957-.715-.984-.647-.013-1.217-.142-1.267-.288-.05-.145.51-.575 1.245-.955s1.746-1.034 2.246-1.455c.501-.42 1.41-1.063 2.022-1.426 1.831-1.09 2.233-2.52 1.17-4.164-1.156-1.787-5.085-2.344-8.222-1.165-3.325 1.25-6.392 4.585-7.493 8.15-.375 1.215-.535 2.47-.535 4.204 0 5.281 2.412 10.105 8.989 17.978 2.343 2.805 4.939 6.32 5.796 7.85.608 1.086.826 1.257 1.779 1.4 1.458.22 2.32 1.035 2.126 2.01-.127.632-.016.816.77 1.28 1.2.708 1.642 1.657 1.252 2.69-.266.705-.213.85.611 1.674 1.002 1.002 1.237 2.465.495 3.08-.36.299-.32.429.33 1.108.984 1.027 1.037 2.757.115 3.738-.587.625-.599.7-.199 1.271.818 1.167.346 3.399-.903 4.274-.46.321-.497.485-.255 1.12.558 1.468-.304 3.335-1.95 4.222-.755.406-.922.645-.903 1.293.017.608-.216 1.002-.99 1.67-.556.481-1.23.875-1.497.875-.297 0-.485.191-.485.493 0 .87-.98 1.777-2.628 2.432-.883.35-1.605.719-1.605.817 0 .429 2.07.472 3.44.073.89-.26 2.942-.478 5.291-.56 3.289-.117 4.167-.058 6.15.415 2.7.645 4.612 1.54 6.316 2.958l1.221 1.016.74-.772c.993-1.037 2.51-1.492 6.608-1.98 9.925-1.184 15.194-2.972 22.065-7.492 1.366-.898 2.663-1.633 2.882-1.633.337 0 .374.36.243 2.315-.285 4.254-2.325 9.831-5.107 13.963-1.596 2.371-1.652 2.507-1.094 2.642 3.333.802 4.848.98 9.387 1.11 5.859.168 5.852.164 4.178 2.444-3.125 4.258-9.579 8.757-15.753 10.982-2.303.83-8.096 2.26-9.18 2.266-1.342.007-1.407.177-1.127 2.916.14 1.377.605 4.647 1.033 7.267s.859 5.668.958 6.774l.18 2.012-1.952.81c-7.15 2.963-14.954 3.51-25.06 1.753-9.462-1.644-10.347-1.746-13.933-1.607-5.512.214-8.395 1.116-17.825 5.58-6.856 3.247-10.3 4.65-14.944 6.092-13.252 4.112-24.79 5.528-37.576 4.612zm15.048-.885c12.668-1.084 23.79-4.226 36.777-10.388 14.343-6.806 17.264-7.14 33.734-3.86 3.147.628 12.083.773 15.165.248 3.004-.512 6.637-1.535 8.34-2.349 1.066-.51 1.245-.711 1.32-1.485.074-.78.022-.87-.398-.69-3.723 1.583-7.055 2.363-11.907 2.79-4.331.38-8.677.061-14.422-1.06-8.72-1.704-12.355-2.07-16.09-1.621-4.82.578-8.16 1.734-15.742 5.444-5.943 2.908-8.592 4.029-13.23 5.596-15.806 5.342-30.686 6.643-46.24 4.04-10.874-1.818-19.746-4.723-29.827-9.765-11.923-5.963-16.633-6.585-30.03-3.962-2.91.57-6.92 1.18-8.91 1.358-6.43.574-13.614-.484-19.038-2.802-.334-.143-.457 0-.552.642-.108.74-.015.88.897 1.346 1.42.724 6.808 2.24 9.346 2.628 2.677.41 9.399.415 12.171.008 1.164-.17 3.605-.593 5.424-.94 6.593-1.255 9.183-1.532 12.833-1.372 5.334.233 8.981 1.394 17.877 5.69 7.491 3.618 12.462 5.486 19.804 7.442 11.2 2.983 21.902 3.986 32.698 3.062m4.1-3.541c12.266-1.744 21.378-4.633 33.074-10.487 7.626-3.818 12.45-5.193 18.189-5.188 3.69.004 5.943.27 11.576 1.373 7.893 1.545 11.554 1.825 16.84 1.287 4.562-.464 10.106-1.84 11.02-2.737.283-.276.202-1.192-.445-5.077-1.065-6.39-1.353-9.237-1.353-13.355v-3.476l-1.456 1.33c-1.035.946-2.048 1.556-3.506 2.11-3.18 1.21-5.237 1.51-10.252 1.49-3.758-.014-5.302-.153-9.392-.842-7.5-1.265-9.912-1.476-14.94-1.308-7.447.25-11.713 1.485-20.398 5.908-6.322 3.22-8.219 4.04-13.478 5.829-14.764 5.023-30.246 5.8-45.905 2.3-7.82-1.746-13.761-3.927-22.18-8.141-7.418-3.714-10.11-4.663-15.88-5.6-3.32-.539-11.399-.4-15.386.266-12.744 2.125-17.377 2.235-22.718.54-2.135-.678-4.534-2.094-5.525-3.261l-.594-.7-.001 3.847c-.001 4.183-.393 7.71-1.546 13.93l-.745 4.02 1.475.655c3.935 1.747 10.336 2.724 16.16 2.466 2.573-.114 5.423-.5 10.187-1.383 5.468-1.012 7.348-1.249 10.848-1.365 7.056-.235 10.025.56 20.004 5.354 7.124 3.423 8.612 4.046 13.792 5.776 6.382 2.13 13.992 3.857 20.602 4.673 5.554.685 16.27.571 21.934-.234zm-18.719-2.34c-.713-.137-.733-.54-.225-4.575.192-1.528.32-2.815.283-2.86-.036-.045-.695 1.027-1.464 2.381-.768 1.355-1.729 2.953-2.134 3.552l-.736 1.09-1.654-.296-1.653-.296-.356-1.19c-.196-.655-.75-2.56-1.233-4.234l-.876-3.042-.336 1.984-.646 3.82c-.17 1.009-.432 1.875-.582 1.925-.308.103-3.512-.607-3.732-.827-.079-.078.11-1.545.422-3.258.31-1.713.8-4.53 1.086-6.259.287-1.728.586-3.207.664-3.284.225-.226 5.223.663 5.403.96.09.147.698 2.123 1.353 4.39.654 2.266 1.25 4.116 1.323 4.111s1.131-1.743 2.351-3.863l2.219-3.854 1.75.173c3.33.331 3.47.38 3.47 1.236 0 1.019-1.052 11.65-1.195 12.072-.109.324-2.138.407-3.502.144m13.283-.546c.095-.435 1.09-3.573 2.21-6.974l2.036-6.184 1.72-.318c2.543-.47 2.49-.49 3.636 1.31 4.929 7.743 6.436 10.343 6.114 10.542-.384.238-3.919.876-4.043.73a34 34 0 0 1-.789-1.231c-.5-.802-.842-1.1-1.16-1.006-.248.073-1.43.278-2.627.455l-2.177.324-.418 1.26c-.454 1.367-.439 1.36-3.26 1.707l-1.416.175zm8.595-6.053c.064-.057-.292-.867-.79-1.8l-.906-1.694-.457 1.634c-.667 2.384-.677 2.358.78 2.146.692-.1 1.31-.23 1.373-.286m-53.032-.67c-2.348-.303-3.676-.903-5.31-2.396-2.76-2.522-2.9-3.792-1.04-9.409 1.376-4.154 1.291-4.07 3.375-3.28 2.042.776 2.021.425.353 5.853-.377 1.226-.685 2.634-.685 3.129 0 1.796 2.729 3.444 4.494 2.713 1.035-.43 1.123-.603 2.425-4.83.594-1.929 1.18-3.614 1.301-3.745.222-.24 3.01.49 3.582.938.21.164.032 1.163-.616 3.47-.99 3.529-1.697 5.325-2.399 6.1-1.09 1.205-3.16 1.755-5.48 1.456m69.995-.548c-2.083-1.262-3.04-3.067-3.049-5.748-.006-1.7.1-2.17.717-3.222 1.53-2.602 5.124-4.457 8.635-4.457 2.826 0 5.492 1.979 6.27 4.654 1.508 5.188-2.683 9.633-9.084 9.633-1.868 0-2.209-.084-3.489-.86m6.515-2.828c2.53-1.148 2.893-4.447.702-6.37-.885-.778-1.083-.838-2.389-.73-1.678.14-2.659.768-3.342 2.143-1.163 2.338.69 5.436 3.264 5.454.363.002 1.158-.22 1.765-.497m-95.896-4.706c-.58-.071-1.012-.34-1.312-.817-.246-.39-1.095-1.583-1.886-2.65l-1.44-1.939-.639.64c-.526.526-.666.996-.792 2.662l-.153 2.024-1.616-.108c-.889-.06-1.835-.118-2.103-.129-.465-.019-.48-.311-.31-6.172.098-3.383.238-6.364.31-6.625.116-.412.399-.464 2.162-.397l2.03.077-.091 2.355-.091 2.354.915-.767c.503-.422 1.696-1.458 2.651-2.304l1.736-1.536 2.276.184c1.251.102 2.33.275 2.399.385.101.164-2.602 2.62-4.974 4.519-.524.42-.504.467 1.108 2.735.902 1.27 2.163 2.975 2.802 3.789s1.102 1.577 1.028 1.696c-.133.215-2.36.229-4.01.024m111.525.026c-.187-.31-.85-12.498-.688-12.66.07-.07.978-.247 2.02-.394l1.893-.269 2.341 2.445a289 289 0 0 1 3.43 3.636l1.088 1.19-.047-3.704-.047-3.704 1.826-.079c1.004-.043 1.916.016 2.026.132.11.117.286 3.1.39 6.628l.19 6.416-2.083-.009-2.084-.009-1.985-2.237a380 380 0 0 0-3.26-3.629l-1.274-1.391.18 3.77.18 3.77-.625.002c-.343.001-1.234.076-1.978.165s-1.416.059-1.493-.068zm-43.72-2.38c4.386-.515 8.73-1.427 13.825-2.902 5.407-1.565 9.243-3.128 15.379-6.265 5.036-2.574 8.657-4.137 11.277-4.866 7.544-2.098 14.087-2.17 25.003-.278 4.376.759 5.427.848 9.922.838 4.265-.01 5.378-.099 7.344-.59 3.71-.928 5.808-2.2 7.01-4.25.616-1.052.704-1.492.715-3.597.018-3.56-.375-4.25-4.931-8.654-2.576-2.49-3.686-3.736-3.578-4.017.167-.435.21-.443 6.272-1.123 5.92-.664 10.028-1.84 14.878-4.255 1.27-.633 2.371-1.151 2.447-1.151.302 0 .1.976-.681 3.276-1.193 3.516-2.58 5.721-5.825 9.273-.75.82-1.31 1.545-1.246 1.61.336.336 7.755 2.025 10.445 2.377 1.704.224 3.145.454 3.203.511.242.242-.854 1.49-2.263 2.58-4.28 3.308-8.844 5.305-15.104 6.607l-2.943.612v.99c0 .97.017.987.86.847 8.837-1.474 15.574-4.379 21.062-9.08 1.368-1.173 4.271-4.447 4.271-4.818 0-.1-1.637-.186-3.638-.19-2-.006-4.471-.141-5.49-.301-2.49-.392-5.953-1.333-5.953-1.617 0-.127.583-1.037 1.296-2.022 1.339-1.85 3.025-4.997 3.968-7.401 1.027-2.622 2.19-8.281 1.702-8.281-.107 0-1.23.656-2.494 1.457-2.779 1.762-7.584 4.093-10.294 4.995-2.433.81-6.596 1.59-11.508 2.155-3.98.459-5.695 1.012-6.25 2.018-.738 1.334.138 2.764 3.225 5.264 3.932 3.185 5.226 4.995 5.467 7.65.267 2.944-1.374 4.675-5.562 5.866-1.917.546-2.73.618-6.934.613-3.431-.004-5.392-.132-7.012-.46-6.63-1.338-14.15-1.941-19.21-1.54-7.085.56-11.273 1.884-20.213 6.389-7.83 3.945-12.388 5.725-18.388 7.18-14.832 3.596-27.705 3.42-42.514-.584-5.594-1.512-11.178-3.739-17.679-7.05-9.51-4.841-14.133-6.032-23.283-5.993-4.655.02-6.212.14-10.98.856-8.64 1.296-9.845 1.414-13.097 1.28-3.735-.153-6.377-.753-8.216-1.866-1.863-1.126-2.427-1.949-2.577-3.752-.24-2.887 1.2-5.132 5.443-8.49 2.633-2.084 3.762-3.327 3.762-4.144 0-.235-.301-.784-.67-1.222-1.01-1.2-2.895-1.69-9.338-2.42-6.783-.77-13.821-3.346-19.127-7-1.185-.817-2.22-1.421-2.298-1.342-.277.276 1.005 5.945 1.793 7.929 1.223 3.079 2.727 5.915 4.213 7.948.743 1.015 1.35 1.925 1.35 2.022 0 .21-3.654 1.217-5.763 1.587-.832.146-3.233.321-5.335.39-2.103.068-3.86.16-3.905.205s.609.905 1.452 1.91c4.864 5.8 14.392 10.569 23.671 11.846l.993.136v-1.976l-2.58-.48c-4.932-.914-9.536-2.678-13.163-5.042-2.16-1.407-4.895-3.711-4.895-4.123 0-.248.448-.327 4.233-.754 2.687-.302 7.313-1.346 8.893-2.006l.961-.402-1.701-1.803c-2.141-2.27-2.84-3.191-4.054-5.34-1.352-2.395-2.752-6.88-2.148-6.88.055 0 .62.288 1.257.64 1.903 1.05 6.19 2.794 8.51 3.463 2.355.678 6.409 1.325 9.978 1.593 2.873.215 4.026.556 3.918 1.159-.045.25-1.63 1.883-3.52 3.63-2.749 2.539-3.619 3.52-4.327 4.88-.844 1.62-.88 1.809-.779 3.993.092 1.973.215 2.469.886 3.548 1.002 1.614 2.67 2.747 5.341 3.63 4.773 1.578 10.393 1.592 19.78.051 7.42-1.218 12.483-1.453 17.503-.813 6.249.797 9.857 2.005 17.231 5.766 9.855 5.027 18.544 7.837 28.898 9.344 6.665.97 14.776 1.054 21.829.226m-2.559-3.146c4.6-.462 7.1-.896 11.554-2.008 7.752-1.935 11.824-3.5 19.594-7.525 7.76-4.022 12.811-5.6 19.995-6.245 4.211-.378 9.797-.06 14.783.842 11.688 2.114 18.973 1.618 21.992-1.497.785-.81.894-1.09.89-2.297-.006-1.705-.61-2.975-2.282-4.806-1.245-1.361-4.747-4.374-5.085-4.374-.093 0-.169.42-.169.935 0 2.115-2.123 4.877-4.78 6.218-2.952 1.49-7.534 2.043-10.728 1.294-.711-.167-2.603-.335-4.203-.373-2.988-.072-4.977-.55-7.375-1.774-.964-.492-1.096-.5-2.118-.113-3.292 1.243-8.825 1.625-11.909.821-1.168-.304-1.779-.335-2.548-.127-3.532.95-7.481.757-10.797-.53-1.812-.704-2.037-.737-2.71-.389-4.145 2.144-10.121 3.175-13.928 2.404-1.17-.237-3.482-.469-5.137-.514-2.438-.068-3.405-.22-5.09-.8-1.292-.446-2.194-.628-2.38-.48-.781.613-4.194 1.717-6.278 2.03-2.426.365-5.976.205-8.54-.384-1.077-.248-1.691-.209-3.766.241-4.222.915-7.124.62-10.56-1.071l-1.609-.792-1.443.634c-3.35 1.472-8.033 2.105-11.178 1.512-.955-.18-3.204-.357-4.997-.393-3.59-.072-5.207-.47-8.513-2.093l-1.813-.89-1.759.735c-3.356 1.404-8.333 2.092-11.392 1.576-1.767-.298-2-.28-3.233.25-.855.368-2.38.672-4.285.853-2.651.253-3.227.225-5.571-.266-3.31-.694-5.227-1.629-6.953-3.391-1.383-1.412-2.471-3.622-2.471-5.019 0-.63-.12-.57-2.004.988-2.523 2.087-4.633 4.356-5.287 5.685-.716 1.457-.678 3.446.087 4.518 2.08 2.916 9.842 3.748 19.484 2.088 7.124-1.227 10.528-1.546 14.972-1.4 8.257.27 13.59 1.754 22.54 6.277 7.748 3.915 12.392 5.723 19.014 7.404 9.268 2.353 19.072 3.14 27.986 2.246m-109.55-16.73c-.072-4.527-.051-4.744.574-6.02.786-1.6 2.253-3.205 5.515-6.034 1.668-1.446 2.35-2.193 2.117-2.321-.189-.103-1.891-.327-3.783-.498-3.878-.349-6.958-.863-9.432-1.573-2.1-.603-6.056-2.234-7.572-3.123l-1.146-.672.186.761c.345 1.404 1.845 4.716 2.84 6.268.541.846 2.011 2.604 3.266 3.906 1.256 1.302 2.234 2.414 2.176 2.472-.213.208-4.391 1.474-6.562 1.988-1.221.289-3.397.668-4.835.842l-2.615.317.602.65c.851.918 3.974 2.994 6.159 4.094 3.402 1.713 9.376 3.557 11.716 3.617l.869.022zm208.418 3.763c3.32-.863 6.841-2.297 9.368-3.815 2.15-1.293 4.521-3.105 4.521-3.455 0-.112-.684-.285-1.52-.387-3.275-.395-11.21-2.309-12.31-2.968-.113-.068.376-.646 1.086-1.285 1.819-1.634 4.059-4.45 5.15-6.471 1.033-1.916 2.192-4.962 1.97-5.183-.078-.08-.865.22-1.747.666-5.053 2.55-9.416 3.678-16.464 4.254-1.794.146-3.357.362-3.475.48-.117.116.803 1.084 2.043 2.149 3 2.575 4.953 4.718 5.72 6.277.603 1.224.626 1.48.552 6.01l-.077 4.732 1.347-.178c.74-.099 2.467-.47 3.836-.826m-121.334-7.047 1.741-.307-1.383-.315c-3.348-.763-6.488-3.126-8.197-6.168-.493-.877-.221-.68 1.72 1.242 2.377 2.356 5.117 4.031 7.199 4.402.767.137.53-.074-1.38-1.23-1.267-.766-2.253-1.445-2.19-1.508.062-.063 1.49.56 3.172 1.384 1.682.825 3.799 1.7 4.704 1.945 1.995.54 7.813.614 9.936.125 1.545-.356 4.015-1.347 4.012-1.61-.001-.092-.48-.44-1.064-.773-.905-.517-1.204-.567-2.027-.34-.532.148-1.69.202-2.575.122-.739-.066-3.857.896-3.857.172 0-.141-.198-.18-.44-.088q-.443.172-.25-.14c.246-.398 6.24-.198 6.837-.795.113-.113-.54-.759-1.45-1.435-.91-.677-2.726-2.199-4.036-3.382-3.923-3.544-7.896-5.526-13.01-6.491-3.752-.708-10.12-.416-14.184.65-1.714.451-3.484 1.01-3.932 1.24l-.815.422.89.761c.489.419.96.766 1.046.772s1.742 1.707 3.678 3.78c4.778 5.118 6.87 6.64 10.26 7.46 1.917.465 3.395.493 5.595.105m-56.335-.552.926-.42-1.073-.022c-1.54-.031-4.013-.946-5.5-2.034-.704-.516-1.213-1.006-1.13-1.088.082-.083.312-.015.511.15.2.165.42.242.49.17.072-.07.409.17.75.532.341.364.808.66 1.037.66.23.001 1.057.244 1.84.541.781.298 1.473.489 1.536.426.063-.064-.591-.544-1.455-1.069-2.197-1.335-2.63-1.994-.563-.86 2.45 1.347 5.077 2.275 7.187 2.54 3.337.42 8.823-.427 11.415-1.76l.756-.39-.94-.639c-.802-.545-1.049-.596-1.683-.35-.953.372-6.457.635-5.902.282.219-.138 1.528-.396 2.91-.573s2.6-.372 2.704-.435c.255-.153-6.517-6.842-7.859-7.76-3.334-2.286-6.763-3.261-11.513-3.276-3.59-.012-5.8.489-8.127 1.84-2.004 1.163-3.303 3.388-3.303 5.657 0 3.777 2.953 6.888 7.666 8.076 2.063.52 8.018.394 9.32-.198m3.969-4.036q-242.074-944.245 0 0m109.763 3.08c.524-.147.283-.314-1.514-1.049-1.369-.56-2.591-1.292-3.4-2.038l-1.265-1.165 1.048.52c.577.286 1.186.52 1.353.52s.746.35 1.285.78c.943.748 2.709 1.513 2.947 1.275.063-.063-.544-.568-1.348-1.122-2.362-1.627-1.97-1.595 1.442.115 1.761.883 3.945 1.781 4.853 1.995 2.994.706 8.132.394 10.908-.661l.78-.296-.916-.58c-.813-.515-1.287-.581-4.225-.592-2.42-.009-3.63-.13-4.5-.454-.921-.342-1-.41-.35-.302 1.284.215 5.78.216 6.126.002.393-.243-6.433-6.985-8.38-8.278-2.03-1.348-5.465-2.658-8.304-3.169-4.602-.827-12.028-.493-16.08.724-1.345.405-2.912 1.094-2.902 1.277.005.087.806.694 1.78 1.349.975.655 3.204 2.562 4.953 4.24 1.75 1.676 3.727 3.49 4.395 4.032 1.379 1.116 4.288 2.512 5.902 2.832 1.312.26 4.551.287 5.412.045m4.88-13.446c.467-.244 1.846-.705 3.066-1.024 2.656-.695 2.555-.532 3.603-5.785.649-3.254.712-4.04.594-7.388-.164-4.672-.835-7.626-2.495-10.99-2.226-4.507-5.045-7.782-11.012-12.794-9.452-7.937-12.745-12.87-14.221-21.304-.185-1.055-.348-1.918-.363-1.918-.014 0-1.052.987-2.305 2.193-2.647 2.548-2.97 3.302-2.118 4.938.776 1.489.42 1.67-2.337 1.189-3.595-.628-5.57-2.203-5.975-4.765l-.17-1.075-1.872 1.861c-1.03 1.024-1.916 1.733-1.968 1.576s-.26-.511-.463-.787c-.35-.477-.38-.465-.652.245-.49 1.283-.35 3.583.278 4.6 1.191 1.928-.752 1.836-3.809-.18-2.322-1.53-3.248-2.548-3.638-3.995-.647-2.404-2.08 1.137-1.48 3.658.165.695.124.86-.214.86-.911 0-3.835-4.067-3.85-5.357-.01-.702-.225-.588-1.897 1.006-1.434 1.369-3.804 2.704-5.528 3.115-.459.11-.777.453-1.006 1.088-.185.51-.776 1.292-1.314 1.738l-.977.81.679 1.248c.486.892 1.012 1.418 1.852 1.847.645.33 1.213.718 1.262.864.05.145-.605.59-1.455.988-1.363.638-1.84.72-4.058.696-1.383-.015-2.841-.16-3.241-.324-.695-.284-.728-.263-.728.471 0 1.592-1.713 2.511-4.699 2.52-1.634.005-2.153.09-2.059.336.23.6 2.86 4.402 4.294 6.206 1.712 2.155 5.388 5.82 7.742 7.72 1.818 1.468 4.135 3.073 8.035 5.564 1.413.902 3.031 2.244 4.101 3.399 5.648 6.095 10.205 9.736 15.623 12.482 2.799 1.418 2.816 1.364.49-1.51-3.739-4.619-5.581-7.96-6.598-11.964-.967-3.805-.634-7.804.9-10.81l.527-1.033-.883.156c-2.055.366-3.578.446-4.322.23-.694-.202-.552-.256 1.134-.424 3.282-.329 4.373-.788 6.488-2.731 4.87-4.474 10.918-5.28 17.056-2.271 2.242 1.098 2.868 1.69.774.731-8.673-3.97-17.807-.603-20.568 7.581-.767 2.276-.649 6.645.251 9.23.978 2.81 2.62 5.885 4.471 8.376 2.09 2.812 6.967 7.697 7.925 7.937.411.103 1.81-.11 3.484-.53 1.539-.385 3.006-.701 3.26-.701.255 0 .464-.071.464-.158s-.714-.937-1.586-1.888c-1.306-1.425-3.177-4.538-3.177-5.285 0-.102.595.72 1.321 1.826a15.6 15.6 0 0 0 4.62 4.604c.659.424 1.497.53 5.292.673 4.912.185 6.793.543 10.33 1.97 1.165.468 2.153.864 2.197.878.043.014.46-.174.926-.419m.45-1.273c0-.217-.237-.543-.528-.725s-.53-.48-.53-.664c0-.44.167-.42 1.084.12.83.49 1.091 1.664.372 1.664a.397.397 0 0 1-.397-.395m.53-2.57c0-.174-.379-.708-.842-1.186-.932-.962-.84-1.371.225-.992.9.32 1.751 1.462 1.527 2.047-.197.512-.91.615-.91.132m0-3.775c0-.486-.292-.875-1.048-1.399-1.179-.815-1.323-1.122-.527-1.122 1.841 0 3.431 2.2 2.104 2.91-.465.25-.53.202-.53-.39m-1.143-4.86c-.102-.51-.477-.976-1.094-1.357-.516-.32-.938-.75-.938-.956 0-.463.073-.464 1.133-.012 1.19.507 2.104 1.57 1.997 2.32-.133.94-.91.942-1.098.005m-1.795-5.093c-.326-1.03-.64-1.35-2.682-2.734-1.272-.863-2.27-1.612-2.216-1.665.054-.054.902.233 1.885.637 2.982 1.224 4.652 3.194 3.752 4.424-.346.472-.394.429-.74-.662m-51.236-7.117c-.642-.392-.86-.713-.86-1.269 0-.72.407-1.38.851-1.38.12 0 .19.353.157.784-.04.506.147 1.004.524 1.406 1.018 1.084.704 1.298-.672.459m-3.596-.832c-.269-.156-.66-.693-.869-1.194-.316-.756-.322-1.033-.04-1.624.4-.834 1.476-1.226 1.137-.415-.475 1.134-.43 1.608.23 2.392.851 1.01.606 1.46-.458.841m-4.054-2.498c-.558-.558-.654-.848-.53-1.61.173-1.067.597-1.677 1.164-1.677.271 0 .332.142.198.463-.414.984-.421 1.599-.03 2.534.476 1.14.162 1.254-.802.29m-3.065-2.751c-.611-.864-.585-1.633.085-2.485.68-.864 1.173-.92.908-.102-.106.327-.269 1.19-.362 1.918l-.168 1.323zm-3.213-3.6c-.286-.745-.172-1.348.388-2.06.587-.747 1.303-.93 1.303-.333 0 .2-.178.513-.396.694s-.397.732-.397 1.223c0 .945-.597 1.26-.898.475m-2.542-3.492c0-.954.68-1.911 1.357-1.911.531 0 .531.003-.015.697-.301.383-.548.979-.548 1.323 0 .38-.156.626-.397.626-.258 0-.397-.258-.397-.735m79.846 35.764c.793-.159.798-.17.44-1.025-.542-1.298-.147-1.336 1.105-.106.948.93 1.331 1.12 2.464 1.23.737.07 1.34.051 1.34-.044s-.416-.778-.925-1.518c-.92-1.338-1.16-2.08-.67-2.08.14 0 .376.227.525.505s.696.768 1.216 1.09c.576.355.89.727.805.95-.375.978 3.383.064 4.306-1.048.383-.461.233-.575-1.062-.809-1.098-.198-2.342-1.069-2.342-1.64 0-.334.077-.334.595.005 1.71 1.115 4.41.993 5.657-.254.906-.906.818-1.445-.237-1.445-.96 0-2.616-.783-2.795-1.321-.085-.255.052-.295.515-.153.347.107 1.226.251 1.954.32 2.323.22 4.285-1.296 3.936-3.04-.166-.834-.22-.87-1.076-.71-1.01.19-3.257-.075-3.257-.384 0-.11.744-.284 1.653-.387 2.816-.317 4.168-1.351 4.168-3.188 0-.848-1.09-1.984-1.907-1.989-.886-.005-1.798-.287-1.798-.556 0-.129.692-.234 1.537-.234 1.788 0 2.36-.335 2.593-1.516.144-.735.038-.984-.764-1.786-.822-.822-1.09-.931-2.28-.931-2.296 0-1.595-.687.872-.856 1.339-.091 1.775-.714 1.21-1.723-.458-.814-1.763-1.417-2.059-.95-.1.158-.6.365-1.109.46-.897.166-.904.16-.234-.166.942-.46 2.351-2.138 2.351-2.8 0-.298-.322-.795-.716-1.105-.628-.493-.924-.541-2.382-.385-.915.098-1.664.098-1.664 0s.53-.413 1.18-.7c.648-.287 1.244-.627 1.323-.755.48-.778-.956-1.604-2.792-1.604-.552 0-1.077-.119-1.167-.264s.022-.265.25-.265c.226 0 .412-.078.412-.173 0-.683-2.411-4.127-5.714-8.161-4.812-5.878-7.018-9.2-8.411-12.669-1.073-2.669-1.076-2.688-1.076-6.249 0-3.428.034-3.656.863-5.666 1.776-4.31 4.2-6.561 8.744-8.125 4.583-1.577 9.833 1.17 9.16 4.793-.21 1.134-.663 1.664-2.376 2.778-.727.474-1.799 1.29-2.38 1.813-.881.792-.992.997-.662 1.22.218.148.724.27 1.124.273 1.079.006.884.457-.471 1.094-1.55.728-2.504 2.29-2.689 4.4-.33 3.754 2.615 7.393 6.4 7.912 1.401.192 1.493-.05.41-1.087-.977-.937-1.528-2.084-1.906-3.966-.245-1.218-.216-1.792.17-3.387.695-2.862 1.578-3.805 1.295-1.383-.523 4.495-.42 5.317.933 7.4l.687 1.06.081-1.125c.093-1.277.438-1.482.67-.397.317 1.489 1.19 2.455 2.972 3.289 1.62.758 1.878.8 4.161.693 1.981-.094 2.693-.248 3.824-.83.764-.392 1.389-.879 1.389-1.081 0-.244-.47-.43-1.39-.554-1.8-.242-2.906-.71-4.443-1.883-1.435-1.094-2.228-2.383-2.475-4.024-.095-.632-.416-1.626-.714-2.208-.703-1.378-.511-1.521.498-.372.53.604.913 1.431 1.117 2.416.574 2.76 3.055 4.568 6.613 4.817 2.491.174 4.424-.61 6.419-2.604 1.58-1.58 2.834-3.812 2.839-5.05l.003-.71-1.326.893c-2.022 1.36-4.312 1.538-6.492.504-.7-.333-1.345-1.048-2.35-2.604-1.2-1.86-1.598-2.26-2.997-3.006-1.528-.814-2.925-2.105-3.016-2.788-.023-.17-.067-1.206-.098-2.301-.226-7.993-9.902-11.836-18.879-7.498-5.306 2.565-9.561 8.467-10.405 14.435-.368 2.602.056 6.61 1 9.432 1.442 4.319 2.968 6.91 8.265 14.03 4.875 6.554 6.646 9.921 7.57 14.394 1.111 5.38-.025 10.49-3.076 13.828-1.505 1.646-2.966 2.588-5.34 3.446-1.423.513-1.627.675-1.696 1.342-.07.687-.923 4.915-1.287 6.381-.138.558-.063.596 1.171.596.725 0 1.68-.072 2.12-.16zm15.354-15.102c.191-.076.42-.067.508.021.087.088-.069.15-.348.14-.308-.014-.37-.076-.16-.16m4.268-36.436c-.513-.348-1.28-1.134-1.704-1.747-.67-.967-.794-1.436-.932-3.534-.088-1.331-.12-2.471-.073-2.534.314-.412.725.805.863 2.555.188 2.378.688 3.49 2.206 4.902 1.209 1.124 1.03 1.303-.36.358m-10.04-3.636c-.733-1.17-.62-3.218.247-4.435.76-1.067.941-.928.42.321-.466 1.114-.529 3.417-.115 4.19.493.922.035.858-.551-.076m18.216-.886c-1.655-.609-2.3-1.191-3.563-3.217-.672-1.078-1.468-2.133-1.77-2.344-.3-.211-.481-.45-.4-.53.322-.322 1.532.425 2.227 1.375 1.398 1.911 2.625 3.058 3.944 3.683 1.533.727 2.674.794 4.01.236 1.844-.77 1.837-.155-.007.683-1.267.575-3.061.622-4.44.114zm-11.269-14.027q-454.105-820.42 0 0M80.434 785.116c.576-.294 1.057-.622 1.07-.728.011-.106.078-.539.146-.962.141-.867-.208-1.205-1.252-1.211-1.099-.006-2.305 1.815-1.948 2.941.201.634.682.624 1.984-.04m-4.828-5.33c-.152-.436-.45-.859-.66-.94-.576-.22-1.717.758-2.09 1.792-.34.938-.472 2.44-.237 2.676.073.073.837-.512 1.698-1.3 1.494-1.37 1.553-1.47 1.29-2.228m-6.188-3.263c.476-.363 1.25-.794 1.721-.958 1.105-.385 1.524-1.379.95-2.253-.225-.345-.508-.626-.628-.626-.404 0-1.964 1.183-2.443 1.852-.486.68-.966 2.646-.645 2.646.099 0 .569-.297 1.045-.66m2.671-9.138c0-.832-.076-.924-.823-.997-.7-.068-1.005.122-2.05 1.285-.676.751-1.228 1.586-1.228 1.856 0 .444.188.41 2.05-.37 1.998-.836 2.051-.881 2.051-1.774m89.833-.633c-.404-1.064-.329-3.21.153-4.327.233-.541.758-1.936 1.167-3.1a297 297 0 0 1 1.431-3.97c.566-1.525.66-2.13.533-3.439-.255-2.628-.34-2.736-1.114-1.42-.91 1.552-1.948 2.723-3.734 4.215-1.384 1.157-1.572 1.456-2.634 4.198-1.29 3.335-1.314 4.436-.126 5.849.968 1.15 1.528 1.057 1.238-.208-.388-1.693-.234-3.81.37-5.093 1.2-2.547 2.108-2.902.997-.39-.89 2.015-1.043 3.118-.693 5.027.315 1.713.908 2.722 1.892 3.22.79.4.858.326.52-.562m-7.852-7.3c.406-.917.408-.912.25.895-.157 1.813-.156 1.816.43 1.503.752-.403 2.067-2.475 2.44-3.844.16-.585.338-1.865.398-2.845l.109-1.783-1.225.651c-.673.358-1.634.728-2.136.822-.81.152-1.018.38-1.835 2.003-1.619 3.214-1.68 5.347-.225 7.802l.76 1.283.312-2.782c.172-1.53.497-3.197.722-3.704m19.034 4.04c-.83-1.618-.762-3.814.155-4.98.762-.968 3.473-2.864 3.471-2.427 0 .181-.35.527-.776.77-1.026.583-2.342 2.434-2.561 3.602-.197 1.05.2 2.41 1.06 3.63l.559.794.16-1.667c.135-1.421.29-1.802 1.043-2.58a15.4 15.4 0 0 1 1.882-1.604c1.475-1.022 2.18-2.66 2-4.644-.08-.872-.206-1.648-.282-1.724s-.592.217-1.148.65c-1.826 1.425-3.989 1.807-4.676.827-.213-.305-.696-.715-1.073-.91-.606-.315-.685-.304-.687.092-.004.686-1.225 3.157-2.252 4.556-1.088 1.483-1.196 2.695-.388 4.364.558 1.153 2.48 2.488 3.599 2.501.557.006.557.001-.086-1.25m-58.55-8.066c0-.572.245-1.997.543-3.166s.507-2.15.463-2.179c-.044-.03-.587-.2-1.206-.378-.62-.178-1.529-.725-2.02-1.215l-.892-.893-.44.97a37 37 0 0 1-.972 1.946c-.292.537-.554 1.31-.583 1.72-.044.63.06.756.676.827.908.105 2.256-.814 2.475-1.687.088-.353.28-.569.424-.48.415.257.013 1.667-.867 3.038l-.806 1.256.54 1.058.54 1.058 1.063-.417c.99-.39 1.063-.49 1.063-1.458m1.947.341c.559-.212.686-.48.849-1.778.147-1.183.364-1.701.96-2.297.423-.423.835-1.096.914-1.495l.146-.726c-3.65.712-3.636 2.112-4.022 6.16 0 .45.248.48 1.153.136m3.321-1.225c.06-.06-.051-.78-.248-1.6l-.357-1.489-.48.592c-.303.375-.478 1.027-.478 1.781 0 1.166.015 1.186.727 1.008.4-.1.776-.232.836-.292m40.973-1.605c2.618-2.347 3.72-4.6 3.942-8.057l.163-2.537-.922-1.034c-.507-.57-1.06-1.44-1.228-1.934-.376-1.105-.4-2.672-.041-2.672.145 0 .267.327.27.727.008.848 1.566 4.106 2.03 4.241.598.175 1.139-1.437 1.15-3.434.007-1.062.115-2.408.241-2.99s.54-2.506.918-4.275c.379-1.77.867-3.723 1.085-4.34.218-.619.365-1.157.326-1.196-.113-.112-3.083 1.89-3.823 2.577-1.433 1.329-3.785 5.486-3.785 6.688 0 .228-.119.414-.264.414s-.265-.182-.265-.403c0-.742.988-3.225 1.695-4.261l.698-1.024-.838-.348c-.806-.334-.877-.308-1.874.662-1.342 1.307-2.678 3.369-3.073 4.743-.694 2.42-.3 4.67 1.242 7.103.881 1.39 1.032 1.995.496 1.994-.387 0-1.863-2.104-2.412-3.439-.57-1.383-.74-3.132-.466-4.762.135-.8.216-1.487.18-1.525-.035-.038-.648.177-1.362.478-.713.3-1.564.656-1.89.79-.524.215-.557.321-.289.91.283.62.187.792-1.328 2.37-1.97 2.05-2.944 3.986-2.947 5.858-.004 2.134-.677 3.964-1.91 5.197l-1.086 1.085 1.463-.15c1.831-.19 3.369-.963 4.841-2.435 1.915-1.915 2.056-2.379 2.072-6.81.01-2.89.1-3.933.349-4.028.257-.1.326.492.3 2.572-.023 1.815.082 2.918.32 3.362.21.39.359 1.526.364 2.777.011 2.901-.745 4.818-2.63 6.668-1.613 1.583-1.459 1.815.941 1.42 1.898-.313 2.625-.606 3.663-1.48 1.095-.92 1.613-1.927 2.178-4.227l.454-1.852.024 1.72c.017 1.16-.19 2.39-.633 3.78-.705 2.205-.81 2.931-.405 2.79.14-.048 1.069-.82 2.066-1.713m-.816-9.285c-.331-.557-.744-3.254-.658-4.304l.097-1.19.346.794c.634 1.453.83 5.735.215 4.7m-35.516 9.012c1.888-1.104 4.38-3.166 4.38-3.626 0-.177-.447-.484-.993-.68s-1.382-.654-1.86-1.016c-.476-.363-.908-.613-.96-.556s-.422.758-.824 1.558-1.01 1.82-1.35 2.267c-.51.67-1.422 2.734-1.422 3.22 0 .296 1.542-.298 3.03-1.167m-1.758-3.106c.27-.304.815-1.212 1.213-2.02l.722-1.466-.674-1.179c-.37-.648-.675-1.264-.677-1.368-.007-.388 1.081-.78 1.409-.508.175.145 1.117.412 2.091.591 2.506.462 3.421.129 5.865-2.137 1.084-1.005 2.469-2.082 3.077-2.392 1.204-.614 4.075-1.3 5.547-1.324.628-.01 1.22-.268 1.842-.799l.916-.783h-4.448c-5.328 0-5.773.146-7.377 2.42-.98 1.39-1.517 1.876-1.517 1.372 0-.097.35-.798.78-1.558.428-.76.719-1.44.645-1.514-.48-.48-6.214 2.003-7.767 3.362-.588.515-2.352 1.365-3.616 1.743-.856.255-1.424.729-2.598 2.167-1.65 2.018-3.009 2.833-4.774 2.862l-1.058.016 1 .884c1.355 1.198 2.793 1.477 4.773.927.898-.249 1.094-.465 1.746-1.917.718-1.602 1.464-2.53 1.78-2.214.087.087.066.372-.048.633s-.187.567-.163.68c.024.112-.213.707-.527 1.322-.612 1.199-.958 4.116-.639 5.387.18.714.216.682 1.087-.948.495-.927 1.121-1.935 1.39-2.239m-6.034-2.008q-286.524-821.81 0 0m-7.723 1.846c1.047-.639 1.638-1.921 1.638-3.557 0-.66.119-1.199.264-1.199s.265.11.265.246c0 1.001 2.147 1.408 3.779.716.968-.41 3.41-2.791 3.205-3.124-.075-.12-.431-.22-.792-.22-.716 0-2.593-.862-3.376-1.551-1.148-1.01-1.937-3.699-1.217-4.144.152-.094.588.033.968.283.994.65 3.588.622 5.112-.057.659-.293 1.909-1.19 2.779-1.993 1.958-1.808 3.347-2.53 5.316-2.761 1.274-.15 2.756-.81 3.507-1.56.24-.24-2.264-1.17-3.162-1.175-.52-.003-1.711.305-2.646.685-2.285.929-5.195 1.135-7.148.506-3.685-1.187-8.242-4.244-13.943-9.355-3.95-3.54-4.382-4.583-4.405-10.627-.015-3.953-.041-4.145-.721-5.302-1.214-2.064-2.776-2.446-3.203-.783-.325 1.267-.855 1.783-2.036 1.982l-1.003.17.248 1.1c.136.607.192 1.313.125 1.57-.169.644-.013.597 1.196-.36 1.724-1.366 1.776-.542.068 1.088-1.74 1.66-2.011 2.244-1.792 3.845.105.762.062 1.188-.117 1.188-.446 0-.924-1.815-.757-2.872.146-.923.108-.984-.897-1.409-1.013-.428-1.06-.425-1.331.081-.17.318-.21 1.098-.1 1.976.149 1.189.097 1.544-.288 1.97-.567.626-2.11.707-2.335.121-.084-.218-.263-.396-.397-.396-.37 0-.608.82-.336 1.158.132.163.324.92.426 1.683.177 1.318.153 1.4-.487 1.642-.834.318-1.54 1.582-1.21 2.17.128.23.837.679 1.575.996 1.499.645 1.548.729 2.563 4.386.773 2.781 1.337 3.964 2.826 5.917 1.984 2.604 2.254 3.026 2.42 3.785.091.414.265.752.386.752.538 0 1.538-1.642 1.714-2.815.157-1.049.236-1.182.46-.78.15.266.211 1.014.138 1.663-.193 1.717-1.385 2.806-3.963 3.621-.628.199-.584.509.207 1.448 1.925 2.288 5.659 1.211 6.489-1.872.214-.795.364-.991.587-.768s.21.586-.05 1.423c-.198.634-.327 2.083-.297 3.33l.054 2.206-1.193 1.143c-.656.629-1.123 1.213-1.037 1.3.267.266 2.589.17 3.534-.145 1.15-.385 2.32-1.449 2.784-2.535.555-1.295.462-3.676-.195-5.032-.6-1.242-.52-1.694.198-1.1.797.66 1.408 2.412 1.414 4.055.007 1.96-.722 3.563-2.14 4.703-1.216.977-1.293 1.444-.301 1.824.967.37 2.503-.09 3.35-1.004.674-.726 1.214-2.403 1.214-3.77 0-.445.119-.81.264-.81.153 0 .265.835.265 1.976 0 1.817-.063 2.047-.794 2.879-.773.88-.976 1.49-.617 1.848.366.366 2.106.154 2.948-.36zm-.743-3.698q-273.825-819.03 0 0m-6.616-2.365c.002.802 0 0 0 0m-6.96-12.744c-.55-.452-1.35-1.434-1.778-2.183-.657-1.145-.777-1.633-.756-3.08l.024-1.72.335 1.455c.472 2.053.725 2.575 2.1 4.331 1.041 1.331 1.43 2.019 1.143 2.019-.04 0-.52-.37-1.069-.822m-4.91-8.723c-2.432-3.606 0 0 0 0m5.654-1.47c-.667-1.406-.39-2.671.818-3.729 1.244-1.09 1.698-.845.65.35-.956 1.088-1.192 1.893-.968 3.294.092.575.12 1.046.062 1.046s-.31-.433-.561-.961m38.367 26.889c3.15-1.084 4.806-2.415 5.564-4.473.246-.668.802-1.857 1.234-2.642l.787-1.427-1.694.136c-2.416.194-4.012.997-6.159 3.1-2.705 2.648-3.842 3.103-6.747 2.697-.945-.132-1.772-.191-1.836-.132-.25.233 2.465 2.696 3.251 2.949 1.421.457 3.939.363 5.6-.208m1.981-4.207q-315.099-815.1 0 0m-15.107-2c.786-.209 1.962-.713 2.613-1.12 1.01-.632 1.252-.96 1.636-2.212.248-.81.964-2.227 1.591-3.15l1.14-1.68-1.232.17c-1.667.228-2.542.723-4.335 2.451-.836.806-1.992 1.711-2.57 2.012-1.243.647-3.988.927-5.143.525-.53-.185-.818-.193-.818-.022 0 .646.86 1.823 1.717 2.353 1.795 1.11 3.135 1.276 5.4.673m-49.38-3.795c.547-.829 3.326-4.9 6.175-9.047 6.514-9.485 6.433-9.36 6.228-9.557-.094-.09-.912-.237-1.818-.326-1.483-.146-1.676-.107-1.939.384-.16.3-2.162 3.245-4.448 6.544-8.166 11.784-8.12 11.714-7.7 11.96.214.124.805.524 1.314.889.51.365.986.662 1.059.662.072-.001.58-.68 1.128-1.509m134.96-6.198c.957-.285 3.61-2.378 3.61-2.848 0-.119-.468-.152-1.042-.076-1.428.192-2.223-.053-3.332-1.027-2.285-2.006-2.64-4.613-1.295-9.508.418-1.522.437-1.936.148-3.228-.218-.976-.484-1.524-.778-1.603-.246-.066-.78-.194-1.186-.285-.728-.162-.733-.155-.322.472.64.977.889 2.108.954 4.344.054 1.859.013 2.046-.446 2.046-.39 0-.536-.238-.638-1.037-.073-.571-.273-1.084-.444-1.14-.422-.14-.704 1.871-.566 4.033.117 1.842-.02 2.097-.573 1.063-.256-.479-.304-1.293-.179-3.055l.17-2.402-1.05-1.112-1.049-1.112-.007 1.345c-.004.74-.142 2.02-.308 2.845-.262 1.304-.344 1.44-.635 1.043-.297-.406-.365-.34-.613.594-1.031 3.889-.965 5.44.327 7.593 1.82 3.033 5.377 4.207 9.253 3.055zm-4.462-2.279c-2.286-1.081-4.339-3.688-4.357-5.531-.01-1.005.397-.666 1.028.857.399.962 1.045 1.85 1.914 2.632 1.26 1.134 3.634 2.266 4.75 2.266.295 0 .462.119.372.264-.31.501-2.12.263-3.707-.488M84.82 717.082q-.309-1.545-1.222-1.546c-1.25 0-1.293 1.624-.054 2.078 1.27.464 1.46.385 1.276-.532m-3.074-.326c0-.908.83-1.815 1.662-1.815.933 0 .709-.387-1.472-2.534l-1.7-1.673-.962.402a2.65 2.65 0 0 0-1.412 1.346c-.434.91-.43.988.123 2.125.6 1.236 2.418 2.781 3.272 2.781.34 0 .49-.194.49-.632m120.263-.89c-.323-1.761-1.437-3.862-2.533-4.777l-1.048-.875.008 1.669c.005 1.05.153 1.86.399 2.185.346.458 3.013 2.726 3.26 2.773.052.01.013-.429-.087-.974zm-114.101-2.589c-.085-1.122-.69-1.613-1.522-1.233q-1.36.618.189 1.61c1.065.68 1.405.585 1.333-.377m-2.987-.8c0-.651 1.017-1.439 1.858-1.439h.799l-.573-1.125a19 19 0 0 0-1.395-2.223c-.452-.604-1.024-1.467-1.272-1.918-.374-.68-.612-.82-1.4-.82-1.702 0-2.762 1.614-2.392 3.64.138.757.614 1.416 2.013 2.793 1.721 1.692 2.362 1.988 2.362 1.093m121.709-.776c0-.072-.988-.768-2.194-1.546-2.848-1.837-3.753-3.02-5.7-7.451-.367-.836 1.436 1.263 1.946 2.265.859 1.687 3.729 4.307 5.307 4.844 1.569.535 2.04.537 3.793.017 2.356-.7 4.334-2.965 4.91-5.623l.19-.878-1.15.601c-.823.43-1.6.602-2.737.603-2.846.002-4.567-1.448-6.738-5.675-1.606-3.126-3.357-5.09-5.512-6.182-1.977-1.002-2.258-.941-2.028.436.193 1.153.474 1.51 1.196 1.518 1.354.013 4.866 3.35 6.15 5.842l.74 1.438-1.005-1.177c-2.535-2.967-3.95-4.29-5.294-4.947-.826-.405-1.523-.6-1.652-.463-.122.13-.28.713-.351 1.295s-.397 1.97-.725 3.084l-.595 2.026 1.295 1.943c.712 1.069 1.45 2.556 1.64 3.305.541 2.13 2.317 3.931 4.543 4.608.742.226 3.97.32 3.97.117m-.435-4.391q-2.65-.767-4.75-4.234c-.742-1.223-2.105-2.969-3.028-3.878-1.02-1.005-1.51-1.654-1.251-1.654.91 0 2.779 1.83 4.569 4.474 1.143 1.69 2.292 3.053 3.002 3.563 1.12.805 1.228.827 4.026.827 2.135 0 2.792.076 2.553.296-.88.812-3.387 1.108-5.12.606m-67.074 3.438c.459-.16.834-.388.834-.506 0-.119-.765-.762-1.7-1.429s-1.95-1.53-2.253-1.916-.64-.615-.747-.508c-.108.108-.195 1.028-.195 2.047 0 1.527.09 1.917.513 2.226.612.448 2.387.49 3.548.086m-47.585-1.688c0-1.44-.869-1.913-1.997-1.089-.503.368-.502.382.016.958.563.625 1.458 1.063 1.782.872.11-.065.199-.398.199-.741m50.717-.021c1.095-.642 1.303-1.176.458-1.176-.563 0-2.508 1.346-2.34 1.62.232.374.655.274 1.882-.444m-53.752-1.2c.208-.657 1.802-1.39 2.525-1.16.713.226.635-.195-.178-.953-.949-.885-2.096-3.155-1.594-3.155.205 0 .438.17.518.377.088.23.356.32.69.233 1.11-.29.552-2.705-.751-3.244-.72-.298-.956-.265-2.073.289-3.012 1.495-3.278 4.43-.65 7.174 1.097 1.145 1.273 1.196 1.513.439m57.804-.76 1.19-.489-.794-.313c-1.456-.574-2.34-.58-3.042-.023-.655.519-.656.528-.133.926.688.522 1.32.499 2.779-.1m3.955-.839.86-.3-.754-.616c-.415-.34-.891-.621-1.059-.626-.238-.007-.886 1.272-.886 1.75 0 .194 1.015.08 1.84-.208m-56.326-.768c.282-.15.512-.503.512-.784 0-.28-.23-.634-.512-.784-.649-.348-2.407-.349-2.927-.001-.333.221-.257.392.467 1.054.905.827 1.604.974 2.46.516zm4.455-7.663c2.068-2.91 3.853-5.292 3.968-5.292s1.064.601 2.11 1.336c1.21.849 1.834 1.45 1.716 1.653a46 46 0 0 1-.889 1.377 45 45 0 0 0-.888 1.375c-.171.295 2.41 2.463 2.927 2.46.116 0 .627-.655 1.136-1.454.51-.799.988-1.453 1.064-1.454s.849.466 1.717 1.037c1.113.732 1.673.96 1.898.773.658-.545 2.003-2.907 1.775-3.114-.13-.118-.861-.628-1.626-1.133l-1.39-.92 1.06-1.638c.582-.901 1.058-1.677 1.058-1.725 0-.146-2.89-2.013-3.104-2.004-.112.004-.69.716-1.284 1.582l-1.08 1.574-1.888-1.33c-1.039-.732-1.957-1.441-2.04-1.577-.153-.246 5.36-8.383 6.087-8.987.31-.258.718-.084 2.147.915.97.678 1.846 1.136 1.946 1.018s.61-.829 1.135-1.579l.955-1.363-1.56-1.095c-.858-.601-1.628-1.204-1.711-1.338s.389-.988 1.05-1.895c.66-.907 1.2-1.74 1.2-1.849 0-.168-1.524-1.301-2.55-1.896-.178-.103-.855.586-1.659 1.688-.888 1.217-1.47 1.794-1.683 1.667-.18-.107-.932-.648-1.673-1.203s-1.421-1.01-1.512-1.01c-.33 0-2.356 3.244-2.126 3.406.13.091.93.619 1.775 1.171 1.403.916 1.507 1.048 1.183 1.504-.195.275-1.648 2.36-3.229 4.635-1.997 2.874-2.99 4.09-3.256 3.988-.48-.184-3.742-2.503-3.915-2.784-.071-.114.345-.87.923-1.678.58-.808 1.053-1.52 1.053-1.584 0-.062-.712-.613-1.583-1.224l-1.582-1.11-.997 1.528c-.549.84-1.065 1.621-1.148 1.737s-.89-.268-1.795-.853c-.904-.584-1.73-1.061-1.834-1.06-.23.003-2.286 3.153-2.143 3.282.056.05.816.54 1.69 1.088a80 80 0 0 1 1.675 1.068c.048.04-.339.74-.86 1.554-.522.816-.946 1.57-.943 1.676.005.21 2.656 2.044 2.955 2.045.1 0 .676-.69 1.281-1.535.605-.844 1.184-1.5 1.288-1.455.663.282 3.976 2.499 3.985 2.666.01.208-3.769 5.741-6.117 8.956-.872 1.192-1.28 2.011-1.28 2.563 0 .743.083.82.992.916l1.414.148c.27.029 1.774-1.858 4.182-5.247m39.093 2.757c.47-2.004.45-2.07-.698-2.428-1.354-.423-1.72-.414-2.104.048-.246.295-.19.622.262 1.52.685 1.366 1.567 2.382 1.955 2.254.154-.051.417-.679.585-1.395m8.791.036c.45-1.785.39-3.851-.11-3.851-.555 0-3.033 1.276-3.033 1.562 0 .353 2.347 3.465 2.613 3.465.129 0 .367-.53.53-1.176m-12.546-3.742c.404-.616.408-.727.04-1.134-.62-.686-1.137-2.125-1.34-3.738-.164-1.29-.291-1.524-1.125-2.06-.517-.334-.979-.567-1.026-.52s-.168.595-.267 1.216c-.162 1.009-.12 1.146.384 1.278.714.187.74.615.037.615-.975 0-.353 2.763.927 4.121 1.02 1.082 1.762 1.151 2.37.222m-3.114-2.395c-.247-.247.052-.625.494-.625a.39.39 0 0 1 .38.397c0 .399-.558.544-.874.228m18.97 2.463c1.607-.654 1.629-.99.088-1.377-.608-.152-2.308.255-2.308.553 0 .2.525 1.44.61 1.44.051 0 .776-.277 1.61-.616m51.623-6.085c.727.012 2.169.111 3.203.22 2.931.307 5.142-.656 6.84-2.98 1.327-1.818 1.644-3.696.439-2.606-.894.81-3.121 1.484-4.9 1.484-1.528 0-1.963-.14-4.618-1.494-2.622-1.337-3.145-1.509-4.955-1.625-2.107-.135-5.667.344-5.667.762 0 .132.103.24.228.24s.752.463 1.394 1.028c1.122.987 1.253 1.031 3.333 1.126 2.822.128 3.411.624.742.624-1.072 0-2.017.07-2.102.154s.174.822.574 1.639c.797 1.632 1.223 1.846 3.107 1.564.582-.087 1.654-.148 2.382-.136M82.977 781.001c-.698-.84-.714-.907-.217-.907.678 0 1.368.677 1.368 1.342 0 .717-.282.61-1.151-.435m-4.79-2.144c-.102-.411-.375-.956-.605-1.212-.506-.561-.222-.952.405-.557.583.369 1.027 1.876.66 2.243-.188.187-.332.038-.46-.474m24.99-1.704q-266.283-866.214 0 0m5.575.018q-274.645-866.241 0 0m6.36.277q-284.185-866.655 0 0m-17.375-1.031q-258.123-865.11 0 0m23.607-.49q-293.535-864.375 0 0m6.448-1.631q-303.205-861.928 0 0m-52.66-.64c0-.52-.139-1.249-.308-1.62-.42-.92-.028-1.213.595-.445.604.745.665 2.222.11 2.682-.34.283-.397.195-.397-.616m18.079-.16c-1.142-.518-1.893-1.438-1.415-1.733.144-.09.803.155 1.464.543 1.1.644 1.353.688 2.96.516.967-.103 1.946-.238 2.175-.3.23-.062-.297.247-1.17.686-1.844.928-2.502.975-4.014.288m43.436-.853q-316.488-859.449 0 0m-30.03-1.872c.073-.076 2.356-.63 5.074-1.232 5.355-1.187 10.576-2.859 13.956-4.47 1.175-.56 2.136-.95 2.134-.868-.004.264-2.984 2.07-4.627 2.803-2.803 1.252-5.969 2.226-9.429 2.9-3.294.643-7.372 1.14-7.108.867m-31.703-3.584c.008-.57-.067-1.291-.166-1.604-.246-.774.266-.731.788.067.31.47.36.861.193 1.503-.328 1.266-.832 1.287-.815.034m109.427-12.248c-.254-.148-.783-.925-1.176-1.728l-.715-1.46.632-2.563c.801-3.25 1.196-3.741.891-1.108-.368 3.178-.246 5.128.388 6.203.305.517.53.937.498.932-.032-.004-.265-.128-.518-.276m4.41-7.124c.238-.772.612-2.602.832-4.083.215-1.443.633-.71.638 1.12.004 1.455-.423 2.597-1.215 3.247-.42.345-.442.321-.255-.284m-18.965-1.474q-366.196-819.996 0 0m9.655-5.518q-380.679-811.719 0 0m-7.268 1.32q-369.777-813.699 0 0m19.375-2.703c-.46-.387-1.195-1.34-1.634-2.119-.44-.778-.995-1.524-1.234-1.658s-.356-.322-.261-.417c.33-.33 1.23.394 2.213 1.783.544.766 1.418 1.779 1.944 2.25.853.763.895.856.382.86-.317.001-.951-.313-1.41-.7m-47.929-6.555q-326.946-799.812 0 0m10.354-.553c-.777-.936.138-4.237 1.781-6.429.74-.987.751-.944-.305-1.285-1.193-.386-1.088-.752.397-1.39 2.52-1.085 4.724-3.699 4.74-5.621.006-.7-.002-.704-.802-.305-.444.222-1.513.467-2.375.545-1.315.12-1.596.07-1.74-.307-.117-.304.031-.588.457-.874.736-.494 3.143-3.004 3.143-3.277 0-.102-.47.041-1.045.319-1.125.543-2.13.662-2.13.251 0-.14.472-.395 1.05-.568.577-.173 1.708-.902 2.513-1.62 1.059-.943 1.464-1.178 1.464-.848 0 .89-1.853 4.295-2.781 5.11-.868.761-.894.826-.337.823 1.164-.005 3.25-1.228 4.553-2.669 1.79-1.981 2.553-3.75 2.73-6.338.08-1.157.239-2.103.355-2.103.333 0 .59 2.303.419 3.75-.217 1.828-1.199 3.793-2.757 5.515-1.002 1.108-1.368 1.747-1.518 2.646-.387 2.32-1.525 3.887-3.88 5.341l-1.414.872 1.135.082c1.196.087 3.885-.567 4.159-1.011.28-.455.998-.306.815.169-.146.382-.082.378.567-.035 1.676-1.065 2.717-2.427 2.717-3.555 0-.477-.147-.533-1.247-.476-.965.05-1.267-.032-1.335-.36-.084-.408 2.524-4.196 2.894-4.203.344-.006-.295 1.644-.99 2.555-.384.504-.62.995-.524 1.091.097.096.734-.12 1.416-.48 1.043-.551 1.381-.94 2.12-2.435.732-1.48.876-2.058.853-3.44-.015-.913-.036-2.268-.046-3.012-.011-.797.17-1.719.441-2.248.766-1.494 3.101-4.723 3.319-4.588.36.223-.196 1.53-1.43 3.355-1.367 2.022-1.656 3.258-1.42 6.066.103 1.23.029 2.231-.227 3.074-.676 2.228-.482 2.368 1.513 1.087 1.886-1.21 2.305-1.962 2.87-5.158.413-2.333.682-3.111 1.604-4.638.944-1.562 1.128-2.108 1.24-3.677.151-2.106.475-2.394.736-.654.255 1.697-.038 2.874-1.277 5.13-1.018 1.855-1.087 2.118-1.091 4.115-.007 3.51.565 5.185 1.037 3.037.098-.446 1.077-1.998 2.175-3.45 1.552-2.05 2.158-3.116 2.714-4.772.82-2.445 1.192-2.238.812.451-.187 1.319-.522 2.153-1.48 3.69-.681 1.093-1.412 1.987-1.625 1.987-.35 0-2.469 4.04-2.469 4.707 0 .422-.73.584-1.025.228-.149-.179-.385-.836-.525-1.46-.317-1.41-.525-1.633-.897-.959-.41.742-2.25 2.392-3.294 2.955-.74.398-.967.42-1.424.133-.482-.3-.661-.239-1.548.534-.795.692-.978 1.017-.882 1.562.14.803-.657 2.5-1.558 3.31-.788.71-3.456 2.484-3.736 2.484-.116 0-.083-.238.072-.53.156-.29.249-.528.206-.528s-1.089.355-2.324.79c-1.523.535-2.44 1.025-2.842 1.52-1.307 1.608-2.373 4.779-1.902 5.659.136.254.248.53.248.612 0 .31-.742.134-1.063-.252m18.132-5.536c.186-.88 1.508-2.663 2.28-3.076.89-.477 2.065-2.383 2.624-4.256.625-2.1 1.037-2.367.853-.555-.22 2.172-1.137 3.797-2.94 5.214-.889.698-1.923 1.76-2.299 2.36-.626 1-.67 1.027-.518.313m-33.341-.166c-2.056-.515-5.375-.561-7.938-.112-.662.116-.604.05.35-.392 2.365-1.097 5.316-1.14 9.44-.14 1.221.297 2.362.398 3.35.298 1.556-.158 4.792-1.248 5.503-1.853.224-.191.646-.427.937-.523 1.078-.356-1.345 1.464-3.043 2.286-1.48.716-2.05.841-4.101.898-1.688.048-2.998-.087-4.498-.462m46.434-.726c0-.136.179-.754.397-1.372.539-1.527.499-2.732-.132-3.969-.644-1.262-.665-1.5-.091-1.025 1.097.91 1.496 3.653.78 5.367-.363.868-.954 1.486-.954.999m8.99-5.473c-.028-.146-.028-1.109 0-2.14.032-1.22-.098-2.228-.373-2.885-.44-1.052-.401-1.38.124-1.055.969.599 1.374 3.995.662 5.55-.2.437-.386.675-.414.53m-38.888-8.81c0-.117.447-.373.993-.57 1.597-.574 2.18-1.074 3.05-2.618.799-1.414 1.206-1.487.871-.155-.229.912-1.963 2.769-2.987 3.197-.946.397-1.927.47-1.927.145m-5.176-1.668c-.064-.105.389-.275 1.008-.377.62-.102 2.043-.473 3.163-.824 2.464-.773 3.45-1.66 4.086-3.677.565-1.794 1.022-1.902.79-.189-.208 1.555-1.33 3.225-2.557 3.812-1.667.798-6.227 1.68-6.49 1.255m21.546-.913q-369.022-764.044 0 0m21.705-3.558q-401.58-758.707 0 0m-35.029-8.108q-349.037-746.545 0 0m33.351-.861c-.08-.131-.126-1.233-.101-2.448.027-1.28-.085-2.452-.265-2.787-.386-.716-.399-1.142-.034-1.142.152 0 .507.506.788 1.124.652 1.438.756 5.49.14 5.49-.21 0-.447-.107-.528-.237m-34.116-1.025c-.226-.436-.967-1.283-1.647-1.882-.966-.85-1.122-1.089-.71-1.089 1.37 0 3.798 2.735 3.072 3.46-.23.23-.405.11-.715-.489m-18.09-.5c-.493-.2-.399-.828.171-1.133.692-.37 1.314.319.822.911-.345.416-.452.44-.992.222m-2.807-1.016c-.104-.27.014-.396.368-.396.287 0 .521.178.521.396s-.166.397-.368.397c-.203 0-.437-.178-.521-.397m6.184.003c-.35-.42-.192-1.194.244-1.194.36 0 .873 1.009.676 1.329-.227.367-.542.321-.92-.135m9.257-1.343c-.509-.192-1.565-.357-2.347-.365-1.233-.013-1.378-.068-1.092-.412.705-.85 4.355-.163 4.704.884.123.367-.05.353-1.265-.107m-6.88-.514c-.25-.301-.267-.498-.058-.706.401-.401 1.175-.05 1.071.487-.119.612-.6.716-1.014.219m32.677-.763c-.522-.403-.52-.409.084-.417.738-.01 1.636-.458 1.636-.816 0-.142-.362-.479-.804-.748l-.804-.489.785-.325c1.176-.487 1.77-1.23 1.368-1.713-.41-.494-.199-.869 1.455-2.58 1.434-1.485 2.963-2.319 4.268-2.328 1.224-.008 1.306.43.117.62-.558.089-1.343.42-1.745.737l-.73.575.624.506.625.505-.938-.153c-.61-.1-1.12-.022-1.455.224-.778.568-.33.747 1.182.472 2.232-.406 1.917.322-.39.901-.885.222-1.09.635-.317.635.345 0 .858.17 1.14.378.576.423.636.389-1.603.924-1.794.429-2.186.861-.689.76 1.63-.11 1.753.49.15.731-.83.124-1.117.259-.877.41.197.123.58.155.852.07.34-.106.458-.042.378.205-.306.935-3.428 1.6-4.312.916m-40.761-.451c-.28-.452.602-1.213.975-.841.166.166.23.488.142.716-.183.477-.853.552-1.117.125m3.312-.914c-.281-.338-.266-.485.086-.837.6-.6 1.37-.005.968.746-.326.608-.605.633-1.054.091m9.668-.384c-.291-.125-.916-.235-1.389-.246-1.03-.022-1.137-.468-.17-.71.74-.186 2.485.483 2.485.952 0 .315-.201.316-.926.004m-6.482-1.039c0-.378.17-.548.548-.548.678 0 .601.876-.088 1.008-.318.062-.46-.08-.46-.46m23.695-1.76c-.282-.207-1.086-.376-1.785-.376-1.326 0-1.706-.351-.677-.627 1.098-.294 1.751-.17 2.498.473.815.701.786 1.13-.036.53m-19.528-.042c-1.488-.093-1.94-.381-1.103-.702.665-.255 1.88-.187 2.612.146.696.317.927.79.343.702a41 41 0 0 0-1.852-.146m9.388-1.792c-.912-.507-1.872-.923-2.133-.923-.601 0-2.014-1.45-1.78-1.827.096-.156.798-.254 1.572-.22 1.254.056 1.502-.03 2.416-.832 2.732-2.398 5.267-2.446 7.231-.137 2.124 2.498 2.449 2.752 3.518 2.752.561 0 1.02.114 1.02.255 0 .474-.948.767-2.019.624-.762-.103-1.607.053-2.978.547-2.825 1.02-4.705.954-6.847-.239m1.032-1.386c-.235-.691-.455-1.303-.488-1.359-.105-.178-1.4.765-1.4 1.02 0 .176 2 1.572 2.283 1.593.018.001-.16-.563-.395-1.254m5.653.805c.728-.25 1.36-.476 1.404-.502.045-.025-.312-.606-.793-1.29l-.875-1.244-.15 1.08c-.084.604-.424 1.372-.774 1.744-.739.786-.57.816 1.188.212m-3.581-2.05c.402-.484.14-.938-.544-.938-.644 0-.98.763-.477 1.081.508.322.652.302 1.02-.143m-15.009 2.71c.22-.657 1.544-1.346 2.828-1.47 1.577-.15 1.853.315.35.592-.545.1-1.507.409-2.136.685-.7.307-1.105.382-1.042.193m46.14-5.183c-.072-.116.274-.535.77-.93.495-.395 1.216-1.258 1.602-1.917.825-1.408 1.048-1.376.653.094-.18.669-.672 1.406-1.341 2.01-1.067.964-1.445 1.131-1.684.743m-40.072-.73q-338.583-719.193 0 0m5.896-.136c-.253-.409.896-1.557 2.128-2.126 1.296-.598 3.582-.645 4.644-.096.779.403 1.12 1.106.402.83-1.895-.726-3.608-.487-5.42.76-1.487 1.023-1.508 1.03-1.754.633m9.965-1.038q-362.374-717.432 0 0m17.274-1.405c1.794-1.122 2.286-1.828 3.262-4.68q.136-.395.355.369c.502 1.752-1.815 4.702-3.645 4.642-.444-.015-.443-.037.028-.33" style="fill:#000" transform="translate(-25.483 -661.118)"/></svg>