<svg xmlns="http://www.w3.org/2000/svg" xml:space="preserve" width="3830.961" height="3609.229" viewBox="0 0 1013.605 954.938"><path d="M456.669 955.495c-36.536-1.586-67.79-9.978-103.452-27.776-14.066-7.02-24.459-12.963-50.758-29.025-19.61-11.977-26.805-16.25-35.363-21.005-34.886-19.383-63.743-29.084-94.985-31.93-5.677-.518-8.73-.669-19.182-.952-4.875-.133-10.412-.425-12.304-.65-14.232-1.694-28.524-6.101-39.912-12.309-21.663-11.808-34.562-29.447-36.7-50.184-.672-6.523.02-15.269 1.756-22.18 2.386-9.5 7.084-20.192 12.898-29.356.826-1.302 1.413-2.448 1.303-2.546-.109-.099-1.236-.62-2.503-1.158-10.675-4.53-23.469-14.279-37.325-28.439-10.91-11.15-21.443-24.078-29.438-36.132-9.787-14.757-11.619-20.534-7.667-24.176 1.254-1.156 3.207-1.886 5.046-1.886 1.9 0 5.43.731 13.966 2.892 8.792 2.226 12.91 3.024 18.003 3.489 3.254.297 8.45.239 8.787-.099.103-.103.05-3.315-.12-7.137-.812-18.34-.142-25.68 2.732-29.958 2.007-2.988 5.51-4.074 8.969-2.78 2.394.896 4.494 2.455 8.444 6.272 6.962 6.726 18.69 15.507 36.307 27.184 23.164 15.353 43.31 26.8 55.61 31.595l1.369.534.3-1.378c.579-2.657 2.608-15.179 3.16-19.496 1.114-8.724 1.406-14.096 1.259-23.156-.147-9.007-.507-12.772-1.912-19.978-1.62-8.306-5.219-18.319-8.889-24.729-1.058-1.849-.684-1.709-7.108-2.66-32.183-4.766-47.773-13.478-61.772-34.521-1.5-2.256-3.536-5.53-4.524-7.276-2.323-4.106-7.244-14.213-9.47-19.447-2.155-5.072-5.46-13.48-5.46-13.892 0-.168 1.61-.93 3.577-1.692 19.618-7.602 36.206-21.467 53.51-44.723 5.348-7.19 3.133-4.5 33.94-41.216 15.357-18.305 64.774-77.275 109.815-131.045l142.17-169.72c59.97-71.589 60.273-71.957 59.648-72.347-1.302-.81-3.663-3.466-4.41-4.958-1.167-2.335-1.626-3.97-1.877-6.684-.69-7.478 2.207-15.248 7.76-20.816 3.45-3.46 6.977-5.53 11.543-6.778 1.96-.535 2.81-.607 6.993-.592 5.55.02 7.378.398 11.418 2.363 6.817 3.316 11.8 9.686 13.87 17.728.483 1.881.613 3.103.618 5.82.01 4.933-.96 8.14-3.402 11.252l-1.146 1.462 2.947 1.62c1.62.891 43.066 23.555 92.1 50.364l89.154 48.744 2.873-.181c4.862-.308 12.549-.184 15.405.248 12.474 1.886 18.48 8.084 20.765 21.429.915 5.337 1.13 10.801.938 23.812-.112 7.594-.068 15.295.119 20.48l.298 8.31 71.328 104.403c39.23 57.42 71.341 104.42 71.357 104.44.016.022 1.16-.181 2.543-.451 5.787-1.13 14.6-1.3 18.838-.363 3.916.865 8.017 3.387 10.41 6.4 1.438 1.811 3.079 5.093 3.736 7.473.686 2.483.675 9.19-.018 11.774-1.266 4.713-3.779 9.008-7.21 12.323-6.302 6.086-14.298 8.854-25.055 8.673l-4.458-.075-4.538 5.446c-5.46 6.554-10.293 12.117-21.338 24.566-11.35 12.794-14.518 16.454-17.962 20.755-2.8 3.498-2.938 3.726-2.776 4.625.863 4.789 6.247 13.347 15.492 24.625 6.15 7.502 12.867 14.998 24.543 27.384 3.291 3.492 6.534 7.124 7.205 8.07.67.946 2.125 2.85 3.232 4.233 2.408 3.009 3.52 5.008 3.886 6.988.527 2.85-.593 6.425-3.554 11.346-.894 1.485-10.946 16.116-22.337 32.513-19.343 27.843-20.914 30.024-23.772 33.007-1.683 1.756-2.973 3.194-2.868 3.194.106 0 3.911-1.829 8.456-4.064 29.221-14.37 52.541-28.791 74.88-46.305 10.405-8.156 20.54-17 37.288-32.536 4.367-4.051 7.98-7.245 8.03-7.098.194.584-2.422 15.26-4.163 23.354-3.193 14.839-4.024 21.656-3.456 28.35.163 1.92.324 3.516.357 3.55.198.198 4.094.645 7.85.9 10.322.704 26.034-.613 44.243-3.708 4.324-.735 7.986-1.337 8.137-1.337s-.297.923-.996 2.05c-10.421 16.81-14.912 23.229-25.591 36.58-12.977 16.22-25.74 30.147-53.712 58.604l-13.264 13.494 1.528 16.8c.84 9.241 1.534 18.275 1.541 20.075.028 6.603-1.377 12.396-4.597 18.952-7.337 14.94-22.825 27.946-41.691 35.008-7.703 2.884-13.423 4.007-24.474 4.803-52.769 3.803-93.068 12.647-136.26 29.903-17.64 7.048-32.96 14.32-64.822 30.773-12.166 6.282-30.389 15.355-37.306 18.574-46.459 21.621-86.386 31.33-136.525 33.2-6.449.24-17.364.287-21.828.094m79.507-387.964c27.38-.552 46.574-2.218 65.352-5.669 6.514-1.197 7.152-1.343 7.103-1.632-.075-.448-65.228-198.677-65.337-198.79-.453-.466-26.174-3.592-35.494-4.313l-1.125-.087v210.48l6.416.075a907 907 0 0 1 8.533.132c1.164.03 7.713-.057 14.552-.196m-62.31-106.587V355.415l-3.77-.172a184 184 0 0 0-6.849-.174h-3.079l-3.57 6.283c-7.829 13.784-13.907 25.218-22.398 42.135-12.583 25.073-20.105 41.299-42.679 92.075-10.49 23.597-20.761 46.363-24.645 54.63-.955 2.034-1.651 3.776-1.546 3.87s3.048.722 6.54 1.396c27.878 5.383 56.336 8.662 93.001 10.719 2.11.118 4.997.232 6.416.254l2.58.039zM626.2 556.04c11.13-3.328 22.01-7.662 31.022-12.357 4.258-2.219 11.666-6.594 11.805-6.974.19-.517-4.576-12.44-4.958-12.404-.2.02-12.24 4.055-26.756 8.967-18.5 6.26-26.393 9.043-26.393 9.307 0 .339 4.945 15.572 5.193 15.998.115.197 5.317-1.111 10.087-2.537m-267.012-7.21c.943-1.99 1.622-3.712 1.507-3.827-.316-.316-60.942-30.195-61.05-30.088-.08.081-7.132 15.214-7.45 15.988-.137.334-.06.37 6.122 2.952 11.393 4.758 25.112 9.518 37.967 13.172 3.882 1.104 20.444 5.373 20.98 5.407.114.007.98-1.614 1.924-3.605m6.874-14.903c.97-2.11 2.633-5.767 3.696-8.127l1.933-4.29-30.251-15.223c-16.639-8.372-30.366-15.222-30.505-15.222-.14 0-.316.208-.392.463-.077.254-1.826 4.02-3.887 8.367s-3.65 7.999-3.53 8.114c.503.481 60.823 30.075 60.99 29.922.1-.092.976-1.894 1.946-4.004m267.779-7.422c28.99-9.794 27.773-9.362 27.663-9.822-.23-.97-5.18-13.712-5.326-13.712-.336 0-53.808 12.96-53.916 13.068-.18.18 6.017 18.946 6.257 18.946.121 0 11.516-3.816 25.322-8.48m44.018 4.248c20.108-15.307 34.87-34.492 47.098-61.209 2.114-4.62 3.897-7.64 6.719-11.379 6.307-8.358 15.146-16.06 22.714-19.788 1.274-.627 2.312-1.203 2.308-1.28-.014-.286-18.357-9.98-28.221-14.915-25.519-12.765-51.674-24.021-77.075-33.171-10.124-3.647-34.253-11.419-34.545-11.127-.113.113 58.678 154.456 58.834 154.456.046 0 1.022-.715 2.168-1.587m-388.15-12.378c29.102-63.125 52.317-108.025 77.5-149.895 1.909-3.174 3.47-5.805 3.47-5.847 0-.327-27.048 4.817-36.477 6.936l-3.272.736-36.727 71.162c-20.2 39.138-36.647 71.24-36.548 71.338.35.342 8.956 5.471 12.536 7.47 5.195 2.9 14.297 7.557 14.764 7.554.263-.002 1.865-3.188 4.754-9.454m88.865-12.262c2.074-4.674 3.736-8.53 3.693-8.567s-5.317-2.745-11.72-6.015c-33.043-16.877-47.78-24.315-48.017-24.235-.144.049-2.095 3.84-4.334 8.423l-4.072 8.334 7.971 4.038c4.384 2.22 15.294 7.718 24.243 12.217 8.95 4.499 18.95 9.555 22.225 11.236 3.274 1.68 6.018 3.058 6.097 3.062s1.84-3.818 3.914-8.493m247.96-3.783c14.722-3.554 26.819-6.514 26.881-6.576.13-.13-4.59-12.663-4.873-12.938-.1-.098-5.065.759-11.031 1.904s-18.041 3.457-26.833 5.139-16.02 3.092-16.062 3.135c-.072.072 5.004 15.774 5.105 15.79.024.004 12.09-2.9 26.812-6.454m-340.372-61.701c19.2-37.198 34.945-67.727 34.989-67.842.132-.341-16.16 3.875-27.991 7.245-3.23.92-4.192 1.3-4.543 1.795-.693.977-61.142 108.258-61.27 108.738-.078.294.567.9 2.09 1.962 1.213.845 5.122 3.747 8.687 6.448 7.752 5.874 12.465 9.28 12.849 9.284.154.002 15.99-30.432 35.19-67.63m103.21 41.189c2.092-4.71 3.76-8.605 3.707-8.658s-13.478-6.341-29.834-13.973c-27.208-12.697-29.769-13.839-30.087-13.423-.64.835-7.225 14.116-7.134 14.39.085.252 7.614 4.134 37.115 19.134A5081 5081 0 0 1 380.205 488c2.692 1.388 5 2.49 5.129 2.452.128-.04 1.945-3.924 4.038-8.633M249.518 435.72c15.78-27.965 28.729-50.94 28.776-51.056.114-.28-1.197.12-11.595 3.535-36.98 12.15-71.911 26.347-111.2 45.197l-5.765 2.766-5.48 6.549c-3.015 3.602-5.51 6.638-5.545 6.747-.035.11 1.632.777 3.704 1.483 32.613 11.12 55.773 21.478 74.544 33.343 1.965 1.241 3.64 2.263 3.721 2.27.082.007 13.06-22.869 28.84-50.834m369.34 44.884c14.188-2.7 26.055-4.994 26.37-5.097.555-.18.462-.478-2.819-9.05-3.19-8.335-3.43-8.859-4.013-8.79-1.331.158-51.91 9.854-52.03 9.974-.072.071 1.199 4.168 2.822 9.105 2.497 7.594 3.022 8.96 3.412 8.872.254-.058 12.07-2.314 26.258-5.014m-218.51-23.283c2.176-4.797 3.98-8.814 4.011-8.925.03-.111-3.398-1.731-7.618-3.6-34.564-15.3-51.264-22.559-51.446-22.36-.297.325-8.506 16.042-8.42 16.12.04.035 11.5 5.389 25.47 11.897 13.97 6.51 27.246 12.705 29.501 13.769s4.202 1.91 4.324 1.878c.123-.03 2.003-3.981 4.179-8.779m206.207-1.31a11669 11669 0 0 1 25.267-4.794c1.965-.364 3.76-.745 3.989-.847.352-.156.015-1.23-2.173-6.931-1.424-3.71-2.623-6.822-2.665-6.914s-.85-.058-1.796.074c-.946.133-8.507 1.128-16.801 2.211-8.295 1.084-18.772 2.456-23.284 3.049-4.51.593-8.767 1.148-9.458 1.234-.692.085-1.257.269-1.257.408s1.217 3.998 2.704 8.576c2.473 7.611 2.75 8.312 3.241 8.194.296-.07 10.3-1.988 22.233-4.26m-196.188-20.576c1.506-3.238 3.73-7.96 4.943-10.493s2.174-4.63 2.137-4.66c-.22-.177-57.629-23.41-57.845-23.41-.275 0-2.084 3.13-7.411 12.817L349 415.495l8.79 3.88c4.834 2.134 16.826 7.42 26.65 11.745 9.822 4.326 18.99 8.383 20.372 9.015s2.582 1.158 2.666 1.169c.085.01 1.385-2.63 2.89-5.869m192.328-2.982c13.884-1.814 25.284-3.339 25.333-3.388.078-.077-6.57-17.72-7.647-20.297l-.392-.938-25.427 3.464c-13.985 1.905-25.487 3.523-25.559 3.595s1.176 4.055 2.773 8.85c1.597 4.796 3.146 9.528 3.443 10.515.54 1.793.54 1.795 1.386 1.646.465-.082 12.206-1.633 26.09-3.447m217.378-3.456c11.205-1.112 20.41-2.055 20.455-2.096s-21.505-33.713-47.89-74.825c-26.384-41.113-48.013-74.709-48.064-74.658-.144.144 1.94 10.082 3.686 17.59 9.686 41.616 25.617 86.275 46.612 130.66l2.67 5.646 1.08-.148c.593-.081 10.246-1.057 21.45-2.17m40.554-4.03c5.485-.557 9.609-1.088 9.623-1.24.022-.229-132.661-194.614-132.767-194.508-.073.075.957 9.795 1.505 14.196.89 7.14 1.838 13.588 2.084 14.171.218.516 107.209 167.356 107.772 168.06.367.457.92.425 11.783-.679M425.41 404.114l4.493-9.03-27.826-11.306a93210 93210 0 0 0-28.09-11.411c-.145-.058-.965 1.057-1.82 2.477-3.196 5.304-8.931 15.202-8.849 15.272.047.04 2.765 1.152 6.039 2.473s11.549 4.68 18.388 7.464 16.067 6.534 20.505 8.334c4.439 1.8 8.904 3.629 9.922 4.065s2.053.771 2.3.743c.305-.034 1.865-2.903 4.938-9.08m166.561-.088c13.808-1.886 25.14-3.465 25.182-3.507.082-.082-6.358-17.088-6.54-17.27-.059-.06-10.223.538-22.588 1.327s-23.82 1.514-25.457 1.613-2.976.235-2.976.304c0 .188 6.655 20.535 6.792 20.765.065.11.2.198.3.198.101 0 11.48-1.544 25.287-3.43m-154.65-23.13c2.064-3.913 3.72-7.145 3.679-7.182-.04-.037-9.176-3.355-20.3-7.374s-20.294-7.417-20.377-7.55c-.21-.34-18.23 1.84-19.457 2.353-.492.206-3.242 4.416-3.013 4.612.056.049 5.758 2.385 12.67 5.19 14.474 5.876 16.846 6.841 31.75 12.916 6.04 2.461 11.052 4.402 11.139 4.312s1.846-3.365 3.91-7.278m133.912-2.814 24.419-1.555c6.518-.415 11.925-.828 12.016-.92.408-.407-.01-.533-11.432-3.456a566 566 0 0 0-38.327-8.361c-3.181-.576-5.88-1.048-5.997-1.048s.996 3.632 2.474 8.07l2.687 8.07h.796c.438.001 6.452-.359 13.364-.8M445.118 366.38c.202-.327 1.68-2.946 3.286-5.82l2.918-5.226-2.949.003c-5.41.005-26.733 1.104-29.893 1.54-1.256.174-1.057.257 11.113 4.652 6.815 2.462 12.927 4.687 13.582 4.947 1.53.605 1.51.606 1.943-.095zm-201.834-35.933c28.93-23.081 63.29-46.367 97.366-65.988 3.492-2.01 6.766-3.921 7.276-4.246.8-.51 8.04-13.211 53.04-93.03 60.488-107.295 53.211-94.354 52.873-94.026-.15.146-21.21 25.268-46.8 55.827-25.59 30.56-76.297 91.107-112.682 134.551s-66.333 79.215-66.552 79.49c-.218.276 2.163-1.634 5.292-4.244s7.713-6.36 10.187-8.334m122.104-79.887c3.735-2.068 17.049-9.057 21.564-11.32l4.233-2.123 41.344-80.151 41.343-80.152-.068-11.66-.07-11.659-55.297 98.045c-30.414 53.924-55.697 98.749-56.185 99.61l-.887 1.568.887-.457c.488-.251 1.9-1.017 3.136-1.701m44.999-22.915a1037 1037 0 0 1 54.352-24.163c4.51-1.853 8.41-3.445 8.665-3.537.439-.16.462-2.938.45-53.424l-.014-53.256-1.079 2.117c-.9 1.765-69.105 133.99-69.843 135.4-.133.255-.2.463-.147.463.052 0 3.48-1.62 7.616-3.6m103.833-43.12c26.288-9.33 58.205-19.115 82.876-25.408 2.218-.566 4.004-1.114 3.968-1.217s-10.007-10.032-22.158-22.064a97922 97922 0 0 1-47.162-46.742l-25.069-24.866v61.416c0 33.779.091 61.416.203 61.416s3.416-1.14 7.342-2.534m100.967-29.853c2.674-.642 6.38-1.505 8.235-1.918 1.856-.412 3.344-.837 3.308-.944s-17.986-15.807-39.886-34.89a922388 922388 0 0 1-78.25-68.189l-1.919-1.672v6.594l51.527 51.084c28.34 28.096 51.662 51.087 51.825 51.093.164.005 2.486-.516 5.16-1.158m29.203-6.353c4.075-.805 8.582-1.68 10.016-1.945l2.607-.483-53.407-35.528c-29.374-19.541-53.164-35.28-52.867-34.975s19.644 17.213 42.994 37.574c25.06 21.85 42.618 36.978 42.852 36.92.218-.056 3.73-.759 7.805-1.563m31.485-5.573c3.638-.561 6.692-1.09 6.786-1.174.095-.084-22.157-12.357-49.448-27.272-56.024-30.62-54.533-29.81-54.175-29.432.146.154 20.148 13.51 44.45 29.68 37.767 25.131 44.3 29.389 44.98 29.31.436-.05 3.77-.55 7.407-1.112" style="fill:#e7bc35;fill-opacity:1" transform="translate(-1.091 -.677)"/><path d="M459.05 955.492c-33.872-.825-66.781-9.08-100.465-25.2-15.869-7.593-27.052-13.922-58.02-32.834-23.855-14.569-33.092-19.908-45.11-26.077-25.887-13.286-48.836-21.018-72.496-24.426-9.537-1.374-15.521-1.833-28.046-2.149-5.384-.136-10.98-.374-12.435-.529-33.73-3.586-61.608-20.116-72.863-43.203-9.942-20.394-7.11-44.073 8.324-69.582 1.226-2.027 2.227-3.76 2.224-3.854-.002-.093-1.156-.645-2.563-1.227-14.695-6.08-34.706-23.483-53.55-46.57-10.305-12.626-19.823-27.205-22.194-33.996-1.227-3.512-.68-6.64 1.472-8.414 1.42-1.172 2.838-1.473 6.14-1.306 2.39.121 4.145.478 11.17 2.27 13.126 3.35 17.89 4.116 24.606 3.961l3.571-.083-.006-3.571c-.004-1.965-.109-7.263-.233-11.774-.317-11.5.254-16.868 2.206-20.735 1.364-2.702 4.104-4.533 6.785-4.533 1.408 0 4.112.98 5.846 2.118.899.59 3.4 2.766 5.557 4.836 4.287 4.113 7.012 6.382 13.447 11.199 22.049 16.503 55.078 37.059 71.802 44.686 4.773 2.177 7.774 3.347 7.988 3.114.24-.26 2.152-11.222 3.012-17.27 4.097-28.794 1.603-50.264-8.046-69.28-1.428-2.814-2.043-3.774-2.477-3.868-.317-.068-1.53-.254-2.694-.412-3.91-.53-12.873-2.119-16.506-2.924-27.499-6.097-42.005-17.931-56.247-45.885-4.114-8.075-11.836-26.386-11.332-26.873.117-.113 1.76-.82 3.652-1.573 6.522-2.591 11.472-5.144 17.312-8.93 12.971-8.406 26.173-21.844 38.885-39.579 1.614-2.252 3.035-4.134 3.159-4.183s14.684-17.353 32.357-38.453c67.954-81.134 159.245-190.119 252.509-301.45 30.268-36.13 55.066-65.783 55.106-65.893s-.621-.738-1.468-1.396c-1.934-1.502-3.375-3.654-4.39-6.56-1.073-3.07-1.263-7.394-.489-11.124 1.763-8.491 6.86-15.238 14.201-18.794 4.16-2.016 6.303-2.478 11.52-2.485 3.706-.005 4.705.084 6.614.592 9.269 2.465 16.147 9.557 18.651 19.232 1.7 6.568.487 13.802-2.953 17.61-.525.581-.88 1.132-.79 1.223.092.091 41.512 22.786 92.046 50.434l91.88 50.268 2.381-.104c6.055-.265 14.825-.07 17.26.383 11.535 2.144 17.386 8.37 19.5 20.75.9 5.273 1.008 8.168 1.066 28.901.033 11.423.155 21.577.272 22.564l.213 1.795 71.278 104.303c59.821 87.538 71.371 104.298 71.86 104.274.322-.016 1.655-.24 2.965-.498 1.714-.337 4.171-.504 8.77-.596 8.579-.17 10.989.302 15.175 2.977 6.575 4.2 9.84 12.484 8.332 21.136-.988 5.667-3.327 10.067-7.537 14.184-6.257 6.117-15.302 9.122-26.063 8.657l-3.44-.149-2.38 2.942c-5.009 6.187-10.182 12.158-25.27 29.163-8.568 9.658-12.81 14.565-15.93 18.427-3.357 4.155-3.256 3.955-2.873 5.668.477 2.13 3.059 7.16 5.763 11.227 6.298 9.47 16.836 21.842 34.49 40.489 4.56 4.816 7.831 8.778 11.959 14.48 2.723 3.764 2.762 7.371.137 12.63-1.766 3.536-2.272 4.285-23.826 35.32-19.409 27.944-21.082 30.268-24.04 33.407-1.75 1.855-3.121 3.373-3.049 3.373.324 0 14.12-6.83 19.752-9.777 22.154-11.598 40.2-22.862 57.715-36.028 13.195-9.918 23.898-19.116 44.552-38.287 3.772-3.5 6.896-6.328 6.941-6.283.216.215-2.53 15.467-4.076 22.642-3.31 15.357-4.171 22.285-3.62 29.116.18 2.23.4 3.558.611 3.689 1.597.987 18.946 1.26 27.787.437 7.567-.703 14.71-1.664 23.812-3.2 4.584-.774 8.372-1.374 8.417-1.333.1.091-5.437 9.116-8.278 13.492-8.114 12.497-19.716 27.355-33.57 42.99-11.622 13.118-20.285 22.198-47.585 49.88l-4.176 4.235 1.607 17.593c1.764 19.304 1.836 21.787.79 27.026-2.186 10.957-9.065 21.883-19.324 30.691-11.86 10.184-26.81 17.204-41.284 19.387-1.528.23-6.231.66-10.451.953-55.38 3.85-100.33 14.468-146.976 34.72-12.767 5.544-31.321 14.612-56.753 27.738-13.048 6.736-27.51 13.9-35.189 17.433-46.72 21.496-86.545 30.916-137.583 32.542-7.949.253-9.806.263-16.8.093m23.019-7.777c35.75-1.503 67.796-7.831 99.747-19.696 18.463-6.856 35.378-14.705 67.866-31.49 26.191-13.532 42.588-21.43 57.624-27.755 46.064-19.38 90.543-29.527 146.236-33.363 6.885-.474 8.538-.684 12.7-1.613 17.373-3.876 34.635-15.254 43.687-28.795 1.745-2.61 3.888-6.799 4.717-9.221l.526-1.537-.612.478c-.337.264-2.12 1.745-3.963 3.292-16.645 13.97-36.218 22.218-61.689 25.995-5.913.877-10.185 1.33-20.154 2.14-34.901 2.832-62.847 8.108-92.818 17.521-26.175 8.22-49.9 18.512-88.9 38.563-26.41 13.578-42.183 21.28-54.9 26.806-40.73 17.697-78.469 25.712-121.136 25.727-43.496.014-81.704-10.292-125.588-33.876-10.325-5.55-15.952-8.799-39.026-22.537-15.44-9.194-21.515-12.739-28.5-16.632-34.023-18.968-60.65-29.006-89.768-33.842-6.85-1.138-12.38-1.776-21.828-2.52-20.363-1.602-32.788-3.582-43.327-6.903-22.11-6.967-36.242-19.548-49.682-44.23l-1.769-3.247-.167 1.395c-.25 2.074-.208 5.048.115 8.295 1.496 15.036 9.247 27.977 22.901 38.24 3.793 2.851 7.429 5.057 12.53 7.602 7.25 3.617 13.138 5.777 21.035 7.715 8.902 2.185 14.653 2.848 27.516 3.17 10.398.26 14.326.502 21.96 1.35 28.72 3.195 56.621 12.511 87.71 29.287 10.672 5.759 18.566 10.393 40.216 23.61 17.024 10.392 23.438 14.228 30.956 18.516 40.371 23.024 72.75 33.94 110.33 37.193 9.973.864 20.88.975 35.455.362m6.218-20.878c34.927-2.116 65.458-9.483 99.218-23.94 12.147-5.203 27.963-12.848 48.683-23.534 14.37-7.41 32.298-16.376 39.687-19.846 52.215-24.52 95.615-36.189 151.606-40.762 17.148-1.4 25.29-2.581 35.586-5.162 16.917-4.24 29.731-10.628 42.73-21.303 3.155-2.59 10.372-9.266 10.683-9.882.27-.535-2.912-36.021-3.522-39.278-.237-1.264-.677-3.102-.977-4.085-.653-2.132-2.639-7.007-2.792-6.854-.06.06-.333 1.046-.607 2.191-2.293 9.573-10.793 19.588-24.216 28.531-26.251 17.492-67.942 29.667-109.14 31.873-2.692.144-8.943.332-13.89.417s-11.08.273-13.626.417c-22.912 1.3-46.79 6.364-72.893 15.459-12.174 4.241-23.013 8.51-48.022 18.91-36.817 15.312-52.952 21.32-72.23 26.897-23.04 6.665-42.287 10.104-67.469 12.056-5.929.46-30.423.46-36.116.001-25.98-2.095-46.76-6.682-70.378-15.535-16.746-6.277-30.754-12.905-61.78-29.231-23.421-12.324-35.02-18.021-46.415-22.8-23.526-9.864-44.668-15.178-67.223-16.896-2.038-.156-7.812-.395-12.833-.532-11.68-.32-16.036-.836-24.474-2.904-28.965-7.097-54.484-26.672-63.12-48.417-2.153-5.42-3.18-10.681-3.186-16.313l-.003-3.35-1.465 1.431c-5.156 5.035-13.057 15.878-18.078 24.807-3.06 5.442-6.987 14.5-7.944 18.322l-.305 1.217 2.567 5.133c15.048 30.093 29.198 42.772 54.744 49.053 9.456 2.325 19 3.662 34.939 4.894 10.734.83 15.166 1.34 23.21 2.664 21.298 3.507 41.775 9.94 63.65 19.997 7.464 3.432 18.12 8.827 24.337 12.32l1.395.785 1.088-2.338c.598-1.286 1.113-2.37 1.144-2.409.032-.039.582.167 1.222.457 2.447 1.11 4.83.53 6.168-1.5.364-.552 3.415-6.777 6.782-13.835s6.155-12.867 6.196-12.91c.042-.042 1.699.694 3.682 1.636l3.606 1.713-.893 1.936c-1.192 2.587-9.645 20.25-11.186 23.376-1.587 3.217-3.295 5.134-5.573 6.256-1.583.78-1.972.86-4.065.848l-2.315-.015 5.466 3.16c3.007 1.739 11.717 6.883 19.357 11.432 28.48 16.958 38.199 22.418 52.066 29.25 33.548 16.524 63.908 24.72 97.952 26.443 5.527.28 22.657.13 28.972-.252zm-33.17-13.482-2.213-.15-2.06-4.703c-1.133-2.586-2.363-5.1-2.733-5.585-.899-1.178-2.195-1.75-4.38-1.934l-1.81-.151-.17 3.144c-.093 1.73-.24 4.413-.325 5.963l-.157 2.818-3.743-.139c-2.059-.076-3.859-.245-4-.376-.257-.238.975-30.799 1.252-31.076.199-.199 12.431.39 14.86.714 2.51.335 5.002 1.197 6.278 2.17.513.391 1.279 1.336 1.703 2.101.713 1.288.77 1.595.77 4.168 0 2.5-.07 2.912-.703 4.101-.905 1.703-1.923 2.654-3.84 3.588-.848.413-1.347.758-1.108.765.756.023 3.015 2.302 3.863 3.899.701 1.321 4.83 10.588 4.83 10.841 0 .118-3.529.03-6.314-.158m-6.377-18.41c1.116-.577 1.579-1.664 1.579-3.707 0-1.572-.077-1.83-.748-2.502-.97-.969-2.31-1.324-5.007-1.326h-2.182v1.546c0 .851-.078 2.637-.172 3.969l-.172 2.422H445c2.131 0 3.181-.113 3.74-.401zm32.535 16.832c0-.309-.604-7.299-1.342-15.533s-1.275-15.038-1.193-15.119c.154-.154 18.877-1.892 20.568-1.908 1.081-.011 1.012-.215 1.432 4.23l.163 1.727-6.82.593c-3.75.326-6.838.62-6.86.654-.062.094.452 5.607.53 5.695.038.042 2.89-.178 6.34-.489 3.448-.31 6.313-.52 6.368-.466.127.127.708 5.812.604 5.913-.043.042-2.932.331-6.42.643s-6.354.59-6.37.62c-.098.176.583 6.797.712 6.926.086.087 3.205-.109 6.93-.434s6.853-.512 6.95-.414c.288.288.71 5.515.462 5.733-.124.11-4.631.58-10.015 1.045s-10.296.912-10.914.995c-1.018.137-1.125.098-1.125-.41m51.33-6.806c-7.348-1.427-12.088-7.434-12.606-15.975-.475-7.83 4.34-13.732 13.117-16.077 2.217-.592 3.09-.679 7.029-.7 2.968-.015 4.674.08 5.015.282.376.222.681 1.021 1.112 2.91.851 3.732.894 3.56-.77 3.097-2.043-.568-6.341-.751-8.619-.367-2.383.402-5.26 1.798-6.415 3.113-.469.534-1.154 1.63-1.523 2.434-.567 1.24-.666 1.828-.647 3.849.05 5.143 2.228 9.158 5.861 10.805 1.693.767 4.801.76 7.309-.017 2.975-.921 2.905-.8 2.249-3.911-.306-1.452-.6-2.771-.653-2.932-.067-.205-.794-.142-2.403.207-1.268.275-2.36.446-2.426.38-.18-.18-1.188-4.957-1.071-5.075.11-.11 10.516-2.397 11.56-2.54.633-.087.661.004 2.173 6.924.843 3.856 1.535 7.19 1.538 7.408.006.398-2.852 2.374-4.936 3.413-1.561.778-3.854 1.614-6.028 2.197-1.819.488-7.439.853-8.867.575m41.539-10.286c0-.018-2.263-6.56-5.028-14.538s-5.027-14.645-5.027-14.816c0-.288 7.332-2.986 7.505-2.762.043.056 2.291 6.53 4.996 14.389s4.994 14.48 5.087 14.716c.14.352-.515.66-3.682 1.736-2.118.719-3.851 1.293-3.851 1.275m-200.422-.628c-.873-.268-1.885-.61-2.248-.76-.885-.366-13.597-6.454-13.732-6.577-.18-.163 13.318-28.143 13.578-28.147.64-.01 13.139 6.247 14.87 7.444 3.142 2.172 4.403 4.093 4.394 6.692-.014 3.996-2.697 7.37-6.055 7.614l-1.024.075.858 1.275c1.66 2.468 1.787 4.98.4 7.935-.972 2.07-1.91 3.178-3.449 4.08-1.038.609-1.564.723-3.61.785-1.743.052-2.826-.06-3.982-.416m3.049-7.12c1.927-1.928 1.948-4.243.054-5.906-.869-.763-5.827-3.289-6.04-3.077-.047.048-.852 1.703-1.789 3.68l-1.703 3.592 2.553 1.201c3.182 1.497 3.083 1.465 4.635 1.49 1.15.019 1.395-.086 2.29-.98m4.185-12.045c.76-.365 1.63-2.002 1.63-3.063 0-1.205-1.15-2.32-3.736-3.618-1.286-.646-2.451-1.175-2.588-1.175-.197 0-2.936 5.337-2.936 5.72 0 .224 4.329 2.247 5.23 2.443 1.037.226 1.387.18 2.4-.307m216.016-5.144c-3.38-7.676-6.177-14.122-6.218-14.325-.05-.247 1.451-1.045 4.556-2.423l4.63-2.054 1.456 1.38c1.455 1.379 9.415 8.814 11.057 10.328l.87.803-.183-9.126-.184-9.126 4.703-2.061c2.586-1.134 4.749-2.015 4.805-1.959.15.151 12.534 28.275 12.533 28.467 0 .089-1.556.84-3.459 1.669l-3.459 1.507-.354-.846c-1.233-2.938-8.658-19.64-8.783-19.754-.084-.078-.108 3.943-.052 8.934l.1 9.074-2.312 1.03-2.312 1.032-6.5-6.1c-3.576-3.354-6.545-6.055-6.599-6.001-.053.054 1.92 4.67 4.383 10.257 2.465 5.588 4.44 10.201 4.39 10.251-.153.152-6.558 3-6.748 3-.097 0-2.941-6.28-6.32-13.957m-259.63 5.589c-1.673-.947-3.134-1.81-3.246-1.92s.001-1.472.251-3.026c.286-1.777.362-2.915.204-3.065-.453-.431-10.466-5.846-10.786-5.834-.172.007-1.263.893-2.424 1.969l-2.11 1.956-.8-.477a211 211 0 0 0-3.53-1.994c-1.503-.834-2.693-1.55-2.646-1.589l7.233-6.258c15.421-13.345 17.901-15.444 18.162-15.373.87.239 8.159 4.479 8.159 4.745 0 .177-1.072 7.487-2.381 16.244-1.31 8.758-2.381 16.025-2.381 16.15 0 .456-.727.156-3.705-1.528m-.35-20.405c.6-3.457 1.058-6.318 1.02-6.36-.103-.11-9.541 8.46-9.486 8.614.052.146 7.016 4.02 7.237 4.025.077.002.63-2.823 1.23-6.28m318.722 4.762c-.092-.255-2.584-6.625-5.536-14.156-2.953-7.531-5.403-13.88-5.446-14.109-.06-.32 2.238-1.325 9.977-4.363 5.53-2.171 10.075-3.948 10.1-3.949.103-.004 2.233 5.613 2.155 5.683-.047.042-2.879 1.168-6.294 2.502s-6.248 2.463-6.295 2.51.385 1.26.96 2.698c.663 1.656 1.176 2.589 1.4 2.547.195-.036 2.886-1.065 5.98-2.287 3.237-1.279 5.69-2.112 5.783-1.964.203.33 2.171 5.36 2.12 5.42-.02.026-2.644 1.066-5.83 2.312s-5.853 2.324-5.926 2.397c-.073.074.434 1.617 1.126 3.43l1.26 3.295 1.36-.54c.749-.298 3.721-1.471 6.606-2.608l5.245-2.067.472 1.101c1.066 2.49 1.675 4.444 1.448 4.645-.26.23-19.975 7.966-20.3 7.966-.107 0-.272-.208-.365-.463m41.865-17.595c-.231-.71-7.02-29.493-7.02-29.764 0-.158 1.816-.719 4.036-1.245s4.164-1.002 4.323-1.056c.158-.054 3.838 3.94 8.176 8.877 4.338 4.936 7.932 8.93 7.987 8.875s-.976-4.603-2.29-10.108c-1.313-5.505-2.388-10.093-2.388-10.194 0-.23 7.133-1.93 7.318-1.745.238.238 7.286 30.113 7.139 30.26-.078.078-1.845.548-3.926 1.044-2.08.496-3.975.961-4.208 1.033-.302.094-2.723-2.483-8.335-8.867-4.35-4.95-7.94-8.907-7.979-8.794-.038.114 1.009 4.712 2.327 10.217s2.349 10.058 2.291 10.116c-.15.149-6.486 1.682-6.954 1.682-.214 0-.438-.149-.497-.33m-435.366-3.759c-3.263-1.18-3.848-1.477-3.987-2.02-.09-.35-.928-5.72-1.862-11.935-.933-6.214-1.78-11.15-1.88-10.97s-1.7 4.668-3.552 9.974a1834 1834 0 0 1-3.404 9.704c-.02.031-1.637-.509-3.595-1.199-2.55-.9-3.54-1.366-3.491-1.644.105-.594 10.067-28.868 10.228-29.029.077-.077 2.019.514 4.315 1.314l4.173 1.455 1.75 11.48c.961 6.315 1.795 11.713 1.852 11.994s1.684-3.997 3.615-9.51c1.932-5.511 3.54-10.049 3.574-10.083.174-.174 7.069 2.416 7.069 2.656 0 .155-2.289 6.801-5.086 14.77-3.805 10.839-5.187 14.48-5.49 14.457-.222-.016-2.125-.653-4.229-1.414m491.467-9.999c-.055-.182-.605-5.748-1.224-12.37-.62-6.62-1.196-12.107-1.282-12.192s-2.404.07-5.15.344c-2.745.274-5.025.462-5.067.419-.108-.112-.671-5.841-.583-5.93.092-.09 27.234-2.748 28.077-2.748.568 0 .636.143.793 1.653.094.91.24 2.256.323 2.992l.151 1.337-5.183.487c-2.851.268-5.184.584-5.184.701s.538 5.718 1.194 12.446c.657 6.727 1.104 12.312.993 12.41-.18.157-6.078.793-7.288.785-.26-.002-.516-.152-.57-.334m-548.533-6.923c-5.353-1.017-9.007-3.385-10.557-6.84-.592-1.319-.76-2.14-.853-4.16-.107-2.324.039-3.292 1.919-12.702 1.119-5.603 2.072-10.225 2.117-10.272.134-.136 7.388 1.332 7.627 1.544.12.105-.696 4.761-1.812 10.346-2.154 10.784-2.294 12.264-1.317 13.918.668 1.13 1.982 1.908 3.793 2.245q4.295.798 5.834-3.345c.273-.737 1.362-5.745 2.42-11.13 1.057-5.383 1.96-9.834 2.006-9.889s1.815.238 3.93.65c3.015.588 3.847.84 3.847 1.169 0 1.026-3.975 20.122-4.447 21.365-1.257 3.306-3.413 5.68-6.083 6.7-1.9.727-5.749.91-8.424.401m-57.108-7.881c-1.453-.135-2.658-.267-2.68-.294-.123-.16 2.45-30.868 2.6-31.018.265-.266 14.319.905 16.321 1.36 3.13.71 5.467 2.12 6.854 4.135 2.64 3.837 2.004 10-1.35 13.093-2.507 2.31-4.7 2.852-10.571 2.613-2.292-.094-4.33-.233-4.532-.31-.418-.16-.504.425-.99 6.704l-.311 4.035-1.35-.036c-.743-.02-2.539-.147-3.991-.282m14.47-16.556c1.188-.7 1.84-1.957 1.845-3.565.013-3.376-1.48-4.385-7.086-4.788l-1.879-.135-.323 4.24c-.177 2.332-.252 4.31-.166 4.396.26.261 3.888.544 5.407.423.784-.063 1.775-.32 2.201-.57m323.529 64.503c33.29-2.255 62.291-8.918 99.145-22.777 8.815-3.315 19.676-7.698 38.92-15.704 28.582-11.892 38.285-15.657 52.963-20.546 30.95-10.31 56.861-14.774 85.857-14.794 21.151-.015 45.324-3.344 66.515-9.16 38.78-10.644 67.467-28.912 71.854-45.756.504-1.936.518-5.885.027-7.73-1.931-7.255-9.46-13.944-23.418-20.807-9.279-4.563-18.745-7.74-29.648-9.95-9.756-1.977-20.472-2.921-28.648-2.524l-4.172.203-4.03 3.369c-5.427 4.536-10.888 8.774-17.308 13.432l-5.34 3.875.416.812c.23.447 4.61 8.552 9.735 18.01 11.28 20.817 10.618 19.515 11.014 21.665.54 2.93-.44 6.473-2.41 8.717-.478.544-.823 1.03-.768 1.081.129.117 8.617-1.871 12.802-2.999 4.752-1.28 15.118-4.78 19.735-6.662 9.008-3.674 18.732-9.091 24.1-13.426 2.636-2.129 6.192-5.927 7.346-7.848 1.984-3.3 2.411-6.492 1.213-9.066-2.167-4.654-9.233-8.902-20.156-12.116-5.42-1.595-15.916-3.7-21.213-4.253-.907-.095-1.709-.269-1.782-.387-.169-.274.67-6.93.902-7.149.226-.215 7.554.87 12.646 1.871 11.846 2.33 20.25 5.172 26.777 9.053 3.692 2.195 7.68 6.063 9.096 8.82 1.427 2.778 1.886 4.63 1.867 7.54-.02 3.047-.794 5.715-2.548 8.785-9.476 16.583-43.614 31.989-83.66 37.753-11.067 1.593-17.794 2.087-32.796 2.407-6.403.136-13.368.374-15.478.528-25.827 1.883-51.08 7.839-81.36 19.188-9.382 3.517-17.059 6.605-35.85 14.425-32.735 13.622-47.537 19.319-62.929 24.22-28.588 9.104-53.022 13.802-80.607 15.5-6.904.425-25.642.426-31.882.002-33.133-2.251-61.273-9.673-94.72-24.982-9.436-4.318-20.01-9.672-41.937-21.233-13.889-7.323-28.267-14.532-35.454-17.776-24.992-11.283-45.83-17.34-68.498-19.909-5.032-.57-10.872-.915-22.65-1.339-9.574-.344-15.307-1.31-22.994-3.873-19.506-6.505-36.41-19.884-43.41-34.357q-6.538-13.523-.54-24.937c.708-1.346 1.202-2.447 1.098-2.447-.449 0-8.583 4.237-10.77 5.61l-2.4 1.507-.443 1.59c-1.006 3.62-1.306 6.354-1.15 10.475.221 5.797 1.363 10.145 4.188 15.943 2.622 5.383 6.528 10.64 11.847 15.946 13.086 13.055 32.246 22.709 51.409 25.904 5.44.906 7.64 1.075 17.53 1.34 11.736.315 17.678.806 27.279 2.254 22.269 3.359 44.234 10.568 70.36 23.093 7.367 3.532 15.276 7.578 29.228 14.952 14.055 7.428 30.431 15.759 37.332 18.99 34.95 16.372 64.441 24.153 98.183 25.907 5.36.278 24.066.114 29.585-.26m-3.043-19.852c5.702-.278 14.995-1.018 15.191-1.21.061-.06-.664-.109-1.61-.109-2.067 0-5.21-.762-7.109-1.724-2.095-1.062-3.81-2.82-4.865-4.987-.505-1.038-5.664-10.103-11.465-20.144l-10.547-18.256-2.1-.057c-34.183-.92-64.154-3.248-92.522-7.184-.837-.116-1.522-.159-1.522-.094 0 .142 17.474 38.786 17.592 38.905.047.047 2.686.978 5.865 2.07 30.482 10.472 59.317 14.434 93.092 12.79m27.317-2.657c26.889-3.96 52.516-11.291 86.453-24.729 9.258-3.665 8.795-3.406 6.796-3.8-2.431-.478-5.085-1.923-6.58-3.58-.852-.947-2.93-4.407-6.276-10.452-2.751-4.97-5.073-9.075-5.16-9.122s-2.895.312-6.242.798c-22.246 3.229-51.53 5.856-73.752 6.618-2.874.098-5.226.216-5.226.262 0 .045 3.652 6.07 8.115 13.386 4.463 7.318 8.318 13.84 8.568 14.495 1.777 4.66-.058 9.85-4.629 13.087-2.077 1.471-3.322 2.088-6.16 3.05-1.277.432-2.114.788-1.86.79.254.004 2.933-.358 5.953-.803m-8.72-6.49c3.71-.767 6.972-2.465 8.012-4.17 1.147-1.88 1.45-1.28-10.818-21.407-6.23-10.222-11.507-18.942-11.725-19.379-.5-1-116.122-198.362-116.373-198.644-.102-.114-2.318-.683-4.925-1.263a646 646 0 0 1-10.668-2.508c-3.26-.799-5.958-1.42-5.995-1.383-.055.057 113.904 197.344 117.315 203.097a159 159 0 0 1 1.706 2.95c.365.655 5.575 9.704 11.577 20.108 6.003 10.405 11.202 19.486 11.554 20.18.351.693.941 1.459 1.31 1.7 1.74 1.14 5.529 1.441 9.03.718m-136.769-29.89c-4.814-10.614-9.677-21.442-10.806-24.062-1.13-2.619-13.618-31.155-27.752-63.412-14.135-32.258-25.7-58.716-25.7-58.796s.606-.407 1.347-.725q1.345-.579.992-.774c-.195-.107-2.438-.736-4.984-1.4-38.708-10.073-75.206-24.406-93.001-36.52-2.748-1.871-2.92-1.95-3.089-1.404-.098.318-1.084 3.63-2.19 7.36-1.107 3.73-2.478 8.167-3.046 9.86l-1.035 3.078 1.513.764c.833.42 4.07 1.917 7.194 3.327 23.85 10.76 50.258 20.5 75.256 27.756 2.76.801 5.057 1.417 5.105 1.369s-.677-1.799-1.61-3.89c-.935-2.091-1.624-3.881-1.534-3.978.458-.487 6.437-2.918 6.651-2.704.133.133 11.503 25.72 25.266 56.858 13.763 31.14 25.665 58.046 26.45 59.792 7.945 17.69 18.215 40.496 18.261 40.554.092.114 15.34 6.342 15.406 6.291.033-.024-3.88-8.73-8.694-19.344m-17.806 6.696c-2.873-6.494-11.618-25.767-11.753-25.904-.094-.095-2.909-.67-6.256-1.276-46.754-8.481-94.002-22.102-137.054-39.509-10.542-4.263-27.126-11.528-34.708-15.206-2.053-.996-2.261-1.043-4.056-.914l-1.892.135.19-1.294c.104-.711 1.414-7.842 2.91-15.845s2.7-14.569 2.676-14.589-1.473-.244-3.22-.498c-2.02-.294-4.816-.464-7.693-.469l-4.52-.007-2.426 1.28c-8.925 4.705-13 11.736-11.572 19.963 2.772 15.97 23.373 33.29 46.584 39.165 5.994 1.516 8.819 1.85 17.992 2.123 9.618.287 14.634.603 21.167 1.333 22.409 2.505 43.55 8.51 67.733 19.24 10.445 4.635 19.41 9.105 39.82 19.854 10.468 5.514 26.42 13.778 26.641 13.801.029.003-.225-.62-.563-1.383m266.812-6.812c4.079-1.39 6.346-3.25 6.35-5.212.001-.622-1.266-2.998-4.799-8.996a2364 2364 0 0 1-8.846-15.162 161892 161892 0 0 0-51.542-88.9l-47.496-81.887-9.87-.133c-5.427-.073-9.912-.108-9.965-.08-.054.03 22.794 39.737 50.773 88.239 27.978 48.502 53.723 93.305 57.209 99.562 3.486 6.258 6.604 11.653 6.928 11.989 1.09 1.13 2.346 1.394 6.1 1.275 2.642-.084 3.839-.245 5.158-.695m20.378-3.656c21.05-8.736 37.376-14.829 50.287-18.768l5.762-1.757-.973-1.749c-6.286-11.3-6.813-12.186-7.19-12.082-.218.06-3.254 1.008-6.747 2.106-16.539 5.199-31.782 9.27-48.646 12.992-3.617.799-6.62 1.494-6.67 1.545-.051.05 1.409 2.647 3.244 5.77s3.574 6.272 3.865 7c.683 1.707.733 5.098.096 6.58-.475 1.106-.558 1.593-.238 1.396.11-.069 3.355-1.434 7.21-3.033M457.875 787.21c-.095-.248-4.951-8.731-10.791-18.851a24335 24335 0 0 1-10.64-18.448c-.013-.026-3.533-.238-7.824-.47-25.99-1.405-51.875-3.782-75.251-6.911-3.774-.505-6.953-.886-7.066-.846s1.004 2.828 2.482 6.197l2.686 6.124 1.204.16c12.248 1.615 57.112 5.236 76.127 6.143 2.063.098 3.87.252 4.015.341.258.16.03 7.002-.243 7.275-.068.068-3.932-.105-8.586-.385-22.8-1.372-42.854-2.944-62.288-4.884-3.556-.355-6.508-.605-6.558-.554-.1.1 7.293 17.108 7.567 17.409.09.1 2.785.543 5.986.984 25.942 3.573 53.78 5.927 81.36 6.88 3.274.113 6.412.224 6.973.246.862.035.994-.029.847-.41m50.255-.08c18.32-.832 36.131-2.256 53.143-4.25 7.15-.837 20.037-2.562 20.175-2.699.043-.044-4.21-7.519-9.452-16.61l-9.531-16.532-5.207.445c-22.145 1.89-39.97 2.764-65.857 3.228l-16.995.305 3.347 5.724 3.346 5.724 13.119.198c17.926.271 47.713-.442 56.146-1.345l1.487-.159.155.882c.085.485.235 2.154.333 3.708l.179 2.826-.895.144c-1.14.185-8.166.59-17.3.999-4.068.182-16.058.326-27.853.334-15.235.01-20.69.094-20.637.313.04.164 2.275 4.062 4.967 8.661l4.895 8.362 3.307.003c1.82.001 5.927-.116 9.128-.261m193.966-12.147c2.459-.57 5.497-1.238 6.752-1.484 1.254-.247 2.42-.534 2.59-.64.323-.199-6.108-12.79-11.562-22.636-3.286-5.932-87.404-156.354-87.461-156.4-.022-.017-2.182.365-4.802.85-2.62.484-6.102 1.083-7.739 1.332s-2.976.536-2.976.638c0 .103 20.079 35.89 44.62 79.53 24.542 43.638 45.412 80.77 46.38 82.517 4.187 7.562 9.646 17.33 9.685 17.33.023 0 2.053-.467 4.513-1.037m-370.65-.352c-.14-.357-6.875-15.635-6.937-15.74-.021-.035-3.184-.478-7.03-.984-54.583-7.18-98.967-21.383-141.624-45.317-2.452-1.376-5.425-3.083-6.607-3.793-1.182-.711-2.227-1.206-2.322-1.1-.202.225-5.78 12.166-5.968 12.775-.097.316 1.56 1.176 7.243 3.756 42.872 19.462 85.539 33.768 132.761 44.515 6.187 1.408 16.786 3.596 28.575 5.898 1.865.364 2.058.363 1.91-.01zm289.06-1.372c14.746-3.112 30.588-7.153 44.786-11.426 6.404-1.928 13.145-4.056 13.31-4.202.06-.054-5.384-9.883-5.594-10.098-.024-.024-1.65.427-3.615 1.003-12.951 3.796-33.05 8.201-54.289 11.899-3.592.625-6.5 1.203-6.46 1.283.658 1.349 7.223 12.45 7.363 12.45.107 0 2.131-.409 4.5-.909m106.698-3.028c11.162-1.631 17.289-2.095 31.883-2.414 6.475-.142 13.56-.378 15.742-.526 4.947-.335 9.823-.768 10.787-.96l.732-.145-1.13-1.276c-.77-.87-4.15-6.966-10.628-19.16-5.226-9.837-9.613-17.884-9.75-17.884s-2.114 1.054-4.391 2.343c-14.574 8.247-31.965 16.608-48.326 23.235-.83.337-1.31.689-1.29.946.017.225 1.968 4.126 4.335 8.669l4.303 8.26 1.088-.138c.6-.076 3.59-.503 6.645-.95m70.577-10.322c.885-.347 2.121-1.144 2.96-1.91 1.624-1.485 2.196-2.735 1.788-3.906-.142-.409-5.295-10.02-11.45-21.357-6.156-11.337-12.043-22.22-13.083-24.185s-19.514-36.492-41.053-76.728c-21.539-40.237-39.3-73.421-39.47-73.743-.3-.573-.368-.541-3.147 1.474a194 194 0 0 1-5.354 3.73c-1.382.918-2.608 1.754-2.723 1.858-.116.103 18.329 34.585 40.988 76.627s42.302 78.523 43.652 81.07c14.63 27.606 19.864 37.192 20.477 37.51 1.01.526 4.57.281 6.415-.44m-188.88-5.994c11.418-1.92 26.527-4.827 35.886-6.903 9.187-2.038 23.79-5.807 24.24-6.255.118-.12-5.25-9.86-5.678-10.304-.101-.104-.837-.016-1.634.197-2.197.586-12.257 2.898-17.744 4.078-12.176 2.618-26.576 5.245-39.233 7.158-3.764.569-6.871 1.07-6.906 1.114-.127.16 6.613 11.584 6.835 11.587.126 0 2.03-.301 4.233-.672m-288.322-3.89c-1.478-3.47-5.824-13.089-6.024-13.333-.137-.166-.81-.383-1.497-.482-.686-.1-5.177-.952-9.979-1.896-57.75-11.342-102.308-27.223-125.26-44.644-1.08-.82-2.039-1.491-2.13-1.491-.177 0-5.43 11.876-5.43 12.278 0 .625 13.852 8.314 25.003 13.877 15.89 7.928 28.79 13.27 45.508 18.843 23.926 7.976 47.124 13.122 78.978 17.519.436.06.884.127.995.149.112.022.038-.347-.164-.82m393.925-5.664c7.396-3.089 14.63-6.408 23.284-10.683 10.978-5.424 23.415-12.192 23.415-12.741 0-.29-11.002-20.833-11.348-21.188-.109-.112-2.476.866-5.26 2.173-15.715 7.38-35.246 14.953-51.576 19.999-.198.061.743 1.993 2.469 5.072 1.533 2.735 2.83 5.016 2.883 5.069s.966-.231 2.03-.63c8.025-3.012 17.38-6.66 23.76-9.264 4.148-1.693 7.706-3.098 7.907-3.122.232-.028.843 1.078 1.658 3 .71 1.673 1.319 3.197 1.353 3.386.087.476-9.725 4.521-25.83 10.65-3.764 1.432-6.9 2.661-6.97 2.73-.105.106 3.063 5.988 4.326 8.033l.365.59 1.386-.543c.762-.298 3.53-1.438 6.148-2.531m-200.288-1.663c11.63-.529 21.484-1.097 30.559-1.76 12.539-.918 13.37-1 13.311-1.322-.036-.196-8.568-15.157-8.916-15.633-.018-.025-1.818.117-4 .315-9.568.871-25.109 1.867-39.421 2.526-3.347.154-14.87.348-25.608.432s-19.49.236-19.447.338 2.1 3.666 4.574 7.92l4.498 7.736 19.182-.137c10.55-.076 21.92-.262 25.268-.414m-82.418-.648c0-.201-8.806-15.38-9.16-15.788-.282-.327-1.483-.484-5.719-.746-22.421-1.386-51.532-4.823-75.204-8.878-3.78-.647-6.913-1.136-6.963-1.087-.084.084 7.519 17.596 7.732 17.81.248.247 16.874 2.467 28.063 3.747 18.805 2.15 40.505 3.945 60.524 5.007.4.021.727-.008.727-.065m512.467-29.133c24.706-25.636 40.501-44.26 52.798-62.258 1.423-2.082 2.544-3.827 2.492-3.878s-2.179.186-4.726.527c-11.473 1.537-20.206 2.102-29.236 1.893-3.673-.085-7.959-.34-9.637-.574-2.736-.38-7.686-1.364-7.89-1.568-.045-.045-.31-1.26-.588-2.698-1.826-9.455-1.33-18.26 1.865-33.161.575-2.685 1.014-4.96.975-5.056s-2.416 1.938-5.282 4.519c-29.202 26.3-55.07 44.216-90.038 62.364-5.894 3.059-20.14 10.043-22.603 11.08-.514.217.256.364 3.836.734 4.281.442 12.74 1.757 14.638 2.276.832.228 1.264.052 5.953-2.426 19.788-10.459 44.614-26.162 63.208-39.982 4.744-3.525 7.213-5.478 13.402-10.595 2.394-1.98 4.395-3.555 4.448-3.502.265.265-.591 10.808-1.313 16.16-.905 6.718-1.16 13.2-.535 13.587.49.304 5.763.799 11.791 1.106 5.373.274 12.778.039 16.844-.536 1.968-.278 12.127-2.015 13.046-2.23.594-.14 1.59-1.38-8.797 10.954-24.274 28.82-35.732 40.992-52.873 56.164l-1.123.994.927 1.839c1.11 2.205 2.828 6.515 3.32 8.332l.356 1.311 8.163-8.322a3339 3339 0 0 0 16.58-17.054m-344.067 22.077c14.997-2.181 32.066-5.319 46.706-8.585 9.617-2.146 12.435-2.84 12.435-3.067 0-.13-8.184-14.89-8.608-15.525-.027-.04-2.417.459-5.312 1.11-17.158 3.857-35.591 7.267-53.644 9.925-3.909.576-7.154 1.094-7.213 1.153-.058.058 1.944 3.636 4.45 7.952 3.59 6.185 4.668 7.846 5.089 7.846.293 0 3.037-.364 6.097-.809m-290.043-8.517c-.392-.91-2.324-5.276-4.292-9.703l-3.578-8.049-6.217-1.543c-27.493-6.822-53.333-15.43-74.877-24.944-10.308-4.552-23.388-11.265-32.357-16.607-1.717-1.022-3.182-1.798-3.256-1.724s-1.425 3.334-3.002 7.243-3.112 7.669-3.412 8.356l-.546 1.25 2.567 2.029c19.02 15.034 55.465 29.073 104.432 40.228 5.86 1.335 24.08 5.086 24.797 5.105.402.011.372-.18-.259-1.641M85.74 719.73c.494-.691 1.893-2.487 3.11-3.99 1.215-1.504 2.17-2.764 2.122-2.799s-1.16-.458-2.47-.939c-7.378-2.712-16.23-8.346-25.4-16.164-5.355-4.568-18.447-17.947-27.126-27.721-4.434-4.995-8.095-9.17-8.135-9.28-.04-.108 2.758.26 6.218.817 10.49 1.692 17.529 1.659 26.795-.126l3.043-.586.622-1.304c.812-1.7 1.763-5.493 2.128-8.485.421-3.448.362-6.357-.253-12.611-.3-3.048-.509-5.73-.463-5.961.056-.284 1.834 1.148 5.518 4.446 6.51 5.827 9.354 8.264 13.746 11.782 16.723 13.39 34.486 24.03 55.038 32.966 8.196 3.565 18.024 7.392 18.282 7.12.09-.095.479-1.91.866-4.036s.863-4.705 1.059-5.732l.356-1.868-1.222-.451c-12.683-4.685-33.236-16.186-57.243-32.03-18.591-12.27-31.017-21.55-38.543-28.782-2.139-2.055-4.383-4.01-4.987-4.342l-1.098-.606-.438.847c-.62 1.198-1.147 4.511-1.347 8.459-.098 1.937.038 9.05.318 16.62.27 7.28.423 13.303.341 13.384-.081.082-1.325.39-2.764.687-1.813.373-4.133.585-7.554.688-8.113.245-12.904-.446-26.018-3.757-9.552-2.41-11.245-2.75-11.245-2.258 0 .443 2.399 5.165 3.868 7.615 5.962 9.94 15.577 22.702 25.467 33.803 4.269 4.791 14.277 14.74 18.576 18.466 9.334 8.09 17.624 13.613 24.551 16.36 1.4.556 2.735 1.014 2.965 1.018s.823-.559 1.317-1.25m829.318-3.114c8.781-7.929 19.307-18.588 28.212-28.57 3.58-4.012 15.868-18.297 16.16-18.785.104-.174-2.267-.27-6.893-.282-3.879-.01-8.66-.162-10.624-.337-4.668-.417-11.727-1.352-11.948-1.582-.29-.3-1.238-3.774-1.531-5.604-.392-2.447-.344-7.04.111-10.71.215-1.732.364-3.175.331-3.207-.033-.031-2.143 1.494-4.69 3.39-15.327 11.408-36.237 24.96-53.578 34.725a5435 5435 0 0 0-6.725 3.79l-1.169.66 4.344 1.508c12.843 4.457 23.124 9.93 31.83 16.942 3.297 2.656 8.067 7.32 10.498 10.265l1.378 1.67.692-.623zm-420.818 3.05c17.955-.51 46.948-2.17 49.887-2.856l.807-.189-4.934-8.545c-2.713-4.7-5.041-8.647-5.173-8.77-.131-.124-3.215-.007-6.853.26-22.366 1.639-48.299 2.33-69.83 1.86-6.975-.153-12.721-.237-12.77-.188-.05.05 2.323 4.21 5.272 9.245 4.978 8.5 5.418 9.163 6.155 9.258 1.726.223 28.84.169 37.439-.076m-78.493-5.492a3718 3718 0 0 1-5.568-9.64l-3.303-5.736-1.628-.158c-30.056-2.933-49.058-5.676-74.387-10.738-4.947-.989-9.018-1.775-9.045-1.748-.028.028 2.009 4.748 4.526 10.49l4.576 10.44 1.69.348c3.363.691 20.376 3.496 27.488 4.532 15.307 2.229 32.03 4.122 46.832 5.302 3.71.296 7.223.58 7.805.63s1.558.111 2.17.136l1.11.044zm288.464-3.867c14.173-5 26.595-10.11 39.596-16.29 1.273-.606 2.315-1.16 2.315-1.23 0-.192-6.58-12.398-6.973-12.935-.312-.427-.492-.382-2.505.63-9.992 5.024-28.49 11.65-49.503 17.735-3.554 1.029-6.497 1.906-6.54 1.948-.042.043 1.827 3.48 4.154 7.64l4.231 7.56 4.848-1.553a461 461 0 0 0 10.377-3.505m-114.71 1.303a715 715 0 0 0 26.182-4.278c12.482-2.27 30.956-6.17 30.956-6.533 0-.178-8.466-15.362-9.225-16.545-.186-.29-.695-.251-2.843.217-18.507 4.035-41.685 8.012-62.748 10.767l-1.66.217 4.837 8.334a1587 1587 0 0 0 5.048 8.665c.305.475.568.452 9.454-.844m-490.283-6.672c8.099-7.14 18.276-12.83 28.321-15.837 2.546-.762 8.16-1.98 9.122-1.98.361 0 .657-.092.657-.203 0-.11-1.696-.963-3.77-1.893-19.264-8.644-37.715-19.971-53.859-33.066l-4.537-3.68-.751-.608-.175 1.402c-.717 5.758-1.85 9.762-3.89 13.754l-1.31 2.562-1.904.438c-6.983 1.606-13.398 2.508-17.842 2.508-1.492 0-2.714.097-2.714.215 0 .387 7.745 8.534 13.258 13.945 13.438 13.193 24.078 20.471 34.372 23.513 1.234.365 2.423.667 2.641.671s1.29-.78 2.381-1.741m691.846-3.236c12.05-8.75 22.546-17.758 33.785-28.992l8.216-8.212 20.92-30.162c20.246-29.193 22.322-32.295 23.578-35.238.866-2.029.773-2.705-.612-4.492-.659-.85-2.117-2.783-3.241-4.297s-4.072-4.907-6.55-7.54c-24.493-26.024-35.458-39.531-40.62-50.033-2.088-4.25-2.895-7.018-2.895-9.926 0-2.392.064-2.508 4.312-7.8 3.653-4.552 7.617-9.143 17.939-20.774 9.955-11.219 15.975-18.103 19.895-22.75l2.789-3.308-1.764-.162c-.97-.09-4.987-.248-8.927-.352l-7.163-.19-25.116 25.308c-13.814 13.92-25.382 25.745-25.707 26.279s-.734 1.61-.909 2.392c-.789 3.527 1.408 9.15 5.908 15.12.823 1.091 10.327 12.521 21.12 25.4s20.212 24.19 20.93 25.135c1.726 2.276 3.806 6.5 4.494 9.128.406 1.55.56 2.968.573 5.292.023 4.01-.592 6.547-2.567 10.583-1.472 3.008-6.055 10.16-9.919 15.478-13.066 17.989-30.763 35.012-51.226 49.28l-2.133 1.486-2.035-3.01c-1.118-1.657-2.034-3.07-2.034-3.14s.982-.816 2.183-1.654c3.651-2.551 10.46-7.701 13.957-10.556 16.292-13.305 29.272-27.506 40.019-43.783 5.17-7.831 6.283-10.44 6.283-14.726 0-2.473-.812-5.447-2.063-7.558l-.741-1.25-3.85 4.822c-12.153 15.217-26.966 30.567-41.903 43.421-9.194 7.911-22.079 17.797-30.553 23.44-.946.63-1.761 1.178-1.81 1.217s4.758 9.133 10.684 20.207l10.775 20.135.692-.44c.381-.243 2.76-1.943 5.286-3.778m-492.616-1.683c0-.037-2.183-4.992-4.848-11.012l-4.847-10.944-8.58-2.458c-28.329-8.115-54.1-17.605-81.205-29.903-3.09-1.402-5.706-2.45-5.815-2.327-.195.22-4.77 12.777-4.77 13.093 0 .09 1.696 1.18 3.77 2.42 26.577 15.903 59.658 29.055 98.623 39.21 3.71.968 6.866 1.8 7.011 1.852.341.12.662.153.66.069m205.184-6.525c13.688-.665 26.56-1.492 26.79-1.722.06-.06-2.372-4.42-5.403-9.687l-5.512-9.579-2.646.158c-1.455.087-5.443.334-8.863.548-15.32.96-19.934 1.076-42.465 1.075-15.04-.001-25.03-.118-29.465-.346-3.69-.19-6.757-.296-6.815-.238-.078.077 11.018 19.252 11.404 19.707.471.556 51.84.625 62.975.084m179.896-2.033c17.192-4.914 30.477-9.39 41.56-14.005 4.758-1.98 10.186-4.518 10.186-4.762 0-.097-1.935-3.799-4.3-8.227-3.7-6.928-4.373-8.034-4.828-7.934-.291.065-3.744 1.419-7.673 3.01-13.516 5.472-28.836 10.662-44.754 15.163-3.18.899-5.918 1.708-6.085 1.799-.429.232 8.812 16.7 9.372 16.7.23 0 3.165-.785 6.522-1.744m-514.237-7.847c4.275-10.026 5.125-12.104 4.948-12.104-.063 0-1.182.684-2.487 1.521s-2.57 1.64-2.813 1.786c-.334.201-.816 2.27-2 8.599-.858 4.584-1.625 8.602-1.705 8.93s-.094.595-.032.595 1.902-4.197 4.09-9.327m232.579 6.615c-.173-.327-2.8-4.898-5.838-10.156l-5.524-9.561-1.778-.178c-20.682-2.062-51.838-7.432-74.419-12.826-2.976-.711-5.455-1.25-5.509-1.199-.053.052 1.98 4.833 4.518 10.624l4.615 10.53 1.833.47c3.177.813 21.097 4.353 28.951 5.72 17.413 3.027 28.919 4.594 51.33 6.988 2.192.234 2.165.24 1.82-.412m171.083-2.723c11.702-1.494 26.18-3.773 38.761-6.101 8.208-1.519 20.632-4.024 21.213-4.278.373-.163-.289-1.49-4.212-8.45-2.56-4.541-4.723-8.214-4.808-8.163-.262.16-15.724 2.73-21.453 3.567-11.213 1.638-25.73 3.34-39.687 4.654-4.002.376-7.358.708-7.458.737s2.281 4.309 5.292 9.51c5.462 9.437 5.474 9.455 6.267 9.327.436-.07 3.175-.432 6.085-.803m96.225-19.284c17.016-4.742 36.057-11.192 49.295-16.698 2.329-.969 4.28-1.805 4.335-1.86.084-.08-8.463-16.136-9.193-17.268-.18-.279-.638-.146-2.182.632-5.122 2.58-16.69 7.46-25.373 10.701-8.121 3.032-19.168 6.58-27.647 8.878-2.037.552-3.745 1.034-3.795 1.07-.2.147 8.818 15.98 9.102 15.98.17 0 2.625-.645 5.458-1.435m-183.537-1.48c7.648-.231 16.72-.657 26.108-1.224 1.554-.094 2.956-.252 3.116-.35.185-.115-1.463-3.22-4.507-8.5l-4.799-8.32-19.352-.007c-26.058-.009-46.431-.894-68.828-2.993-2.765-.259-5.052-.457-5.082-.44-.102.06 11.86 20.382 12.176 20.686.324.312 8.636.777 20.422 1.143 9.478.294 31.108.296 40.746.005m-311.678-4.325c1.164-.878 2.95-2.289 3.969-3.136l1.852-1.539 1.885-4.956c1.037-2.726 1.855-4.991 1.818-5.034-.094-.11-7.593 4.298-9.636 5.664l-1.699 1.137-.872 5.105a827 827 0 0 0-.881 5.202c-.013.162 1.339-.765 3.564-2.443m211.798-.013c0-.1-12.671-22.124-12.854-22.342-.043-.052-3.51-.666-7.702-1.365-64.419-10.739-117.601-28.957-152.745-52.324l-3.572-2.375-.223 1.224c-.895 4.912-2.726 13.847-3.573 17.44l-1.017 4.31 1.613 1.271c5.633 4.444 15.696 10.04 27.409 15.243 37.197 16.525 92.013 31.042 142.345 37.697 10.776 1.424 10.319 1.37 10.319 1.221m175.96-1.082c11.406-1.096 18.931-1.927 28.779-3.178 13.39-1.7 29.585-4.322 29.504-4.775-.038-.215-7.654-13.855-7.84-14.04-.038-.04-2.15.215-4.695.565-12.232 1.682-33.993 3.846-54.492 5.421-5.748.442-10.656.83-10.907.865-.357.049.548 1.79 4.193 8.066 3.868 6.66 4.746 8.003 5.23 8.003.32 0 4.923-.417 10.227-.927m208.478-9.502c20.608-15.066 39.083-32.144 55.55-51.35 2.486-2.899 8.652-10.516 10.427-12.879l.73-.972-4.845-5.822c-2.664-3.203-4.926-5.83-5.025-5.841-.099-.01-.867.964-1.707 2.164-17.037 24.346-40.193 45.613-69.478 63.812l-4.161 2.586 1.648 3.087c.906 1.698 2.772 5.19 4.147 7.762l2.499 4.676 2.925-2.016a405 405 0 0 0 7.29-5.207m-114.856-6.122c18.05-4.953 35.5-11.284 50.563-18.344 2.586-1.212 3.808-1.92 3.75-2.17-.048-.205-1.418-2.848-3.043-5.874-2.154-4.007-3.064-5.467-3.353-5.378-.219.068-2.421 1.038-4.895 2.157-14.67 6.631-32.647 12.566-50.535 16.682-2.329.536-4.273 1.008-4.32 1.048-.117.099 7.135 13.085 7.307 13.085.073 0 2.11-.543 4.526-1.206m-473.707-5.79c2.425-1.585 4.799-3.558 5.929-4.93.704-.855 2.564-6.152 4.617-13.152.473-1.611.605-1.646-2.344.626-2.368 1.824-8.721 6.033-12.74 8.44l-2.641 1.581-.325 4.504a395 395 0 0 1-.483 6.17l-.159 1.667 3.015-1.762c1.658-.968 3.967-2.383 5.13-3.144m319.409.712c-.058-.11-2.1-3.681-4.54-7.938-4.143-7.233-4.481-7.739-5.171-7.739-5.054 0-32.837-1.1-43.793-1.734-15.646-.906-34.698-2.578-47.625-4.182-1.6-.198-2.935-.342-2.966-.32-.07.052 10.232 17.666 10.508 17.967.387.421 19.458 2.102 33.336 2.938 5.476.33 14.35.731 22.754 1.03 4.904.175 37.591.155 37.497-.022m47.434-2.45c21.763-1.693 36.15-3.04 49.395-4.626 10.216-1.223 10.173-1.216 10.082-1.58-.043-.173-1.563-2.965-3.377-6.205l-3.3-5.892-.934.147c-17.423 2.746-48.754 5.193-66.484 5.194-2.332 0-4.167.106-4.167.241 0 .133 1.736 3.228 3.86 6.88 2.6 4.473 4.002 6.637 4.299 6.636.242 0 5.024-.358 10.626-.794m203.667-3.746c27.61-17.185 49.642-37.255 65.951-60.075 1.589-2.223 3.089-4.413 3.333-4.866l.445-.825-4.71-5.6c-2.59-3.081-4.797-5.568-4.905-5.526s-1.488 1.675-3.066 3.63c-15.75 19.514-34.826 35.078-67.616 55.166l-3.353 2.054 1.369 2.562c6.005 11.24 8.523 15.904 8.583 15.905.04 0 1.825-1.091 3.97-2.425m-386.405-6.769a3736 3736 0 0 1-5.582-9.662c-2.37-4.116-3.474-5.795-3.872-5.886-.306-.07-2.546-.54-4.977-1.046-40.52-8.425-79.066-22.192-113.054-40.378-7.97-4.265-20.718-11.72-26.364-15.42l-.674-.442-.166 6.156c-.091 3.385-.346 7.941-.567 10.124s-.402 4.095-.403 4.25 1.455 1.301 3.237 2.548c28.07 19.622 69.826 35.948 120.584 47.146 10.293 2.27 31.646 6.389 33.655 6.49.334.017-.132-.978-1.817-3.88m281.692-2.49c17.913-4.218 34.091-9.635 49.282-16.501l3.372-1.525-.894-1.615c-.491-.888-2.348-4.324-4.127-7.634s-3.342-6.02-3.476-6.02-1.905.833-3.937 1.85c-10.805 5.414-23.889 10.664-36.913 14.813-4.466 1.423-14.296 4.208-16.867 4.78-.837.185-1.521.447-1.521.58 0 .215 5.802 10.735 6.804 12.337.482.77.486.77 8.277-1.065m-468.31-4.399c8.876-5.792 14.063-10.517 17.172-15.645.657-1.084 1.116-2.502 1.885-5.82 1.213-5.24 2.975-14.229 2.855-14.57-.046-.135-2.466 1.672-5.376 4.013-7.214 5.804-19.935 15.27-22.297 16.591-.305.171-.276.899.182 4.548.415 3.305 1.05 11.303 1.078 13.555.003.268-.097.327 4.5-2.672m370.414-3.496c11.704-.555 24.556-1.55 34.135-2.646 8.029-.917 13.49-1.675 13.49-1.87 0-.156-8.087-14.699-8.353-15.021-.041-.05-2.792.214-6.113.588-15.49 1.74-32.248 2.787-53.531 3.34-6.04.157-11.472.31-12.074.34l-1.093.056 4.533 7.895 4.533 7.896 9.392-.154c5.166-.085 11.953-.276 15.081-.424m-62.229-.595c-.208-.327-2.205-3.767-4.437-7.645-4.618-8.02-3.898-7.361-8.048-7.367-3.045-.004-15.902-.728-23.842-1.342-21.97-1.698-45.455-4.805-65.856-8.71-2.314-.443-4.265-.749-4.334-.68-.142.143 10.997 19.245 11.357 19.477.729.47 26.604 3.236 39.253 4.198 16.808 1.277 41.292 2.498 52.617 2.624l3.668.04zm253.352-8.577c30.15-18.606 48.18-33.54 63.443-52.545 1.726-2.149 3.138-4 3.138-4.113s-1.638-2.178-3.638-4.587a667 667 0 0 1-4.455-5.405l-.817-1.024-2.358 2.501c-22.755 24.133-42.964 41.508-63.73 54.795l-3.777 2.417 1.291 2.415c.71 1.329 2.093 3.932 3.073 5.785s1.825 3.372 1.877 3.374 2.73-1.624 5.953-3.613m-108.044-2.208c14.997-3.724 30.605-9.14 44.53-15.453 3.615-1.639 10.692-5.059 10.966-5.299.052-.045-8.351-15.794-8.495-15.922-.02-.018-1.168.614-2.55 1.405-4.202 2.404-14.133 7.27-19.315 9.463-9.817 4.155-19.993 7.557-31.318 10.47-3.328.855-6.1 1.604-6.158 1.662-.09.091 6.62 12.336 7.756 14.154.237.378.55.558.829.475a211 211 0 0 1 3.755-.955m-281.062-2.709c-.073-.181-2.99-5.265-6.482-11.296l-6.35-10.965-7.106-2.041c-22.777-6.543-45.663-14.743-67.3-24.112-18.746-8.118-41.81-19.846-56.451-28.707-1.29-.78-2.38-1.384-2.421-1.34s.273.952.698 2.02c1.755 4.405 3.18 10.008 4.048 15.918.295 2.008.538 2.875.876 3.127.956.713 9.714 6.225 13.881 8.737 15.225 9.175 33.675 18.494 50.35 25.434 22.006 9.156 44.08 16.144 69.85 22.112 6.974 1.614 6.58 1.546 6.407 1.113m-175.342-8.966c5.153-3.686 9.817-7.3 19.182-14.861 3.784-3.055 6.98-5.643 7.102-5.75.345-.305.929-7.198 1.13-13.351l.183-5.556-3.017 2.975c-5.203 5.13-9.59 8.327-22.03 16.054-5.486 3.407-11.934 7.547-12.809 8.223-.04.03.299.877.752 1.88.937 2.075 4.085 11.37 4.358 12.868.115.633.288.927.481.816.166-.096 2.267-1.58 4.668-3.298m360.758-.212c21.207-.88 35.047-1.898 49.08-3.613 51.25-6.264 87.913-21.357 118.669-48.852 7.238-6.47 16.677-16.465 23.306-24.677 9.16-11.347 19.43-26.808 27.456-41.334.983-1.78 2.31-3.946 2.949-4.813 2.841-3.86 6.97-5.858 14.766-7.147 6.796-1.123 23.434-2.462 40.262-3.24 7.888-.364 37.683-.455 45.41-.138l5.192.214-1.282-2.595c-.705-1.427-1.606-3.666-2.003-4.975-.662-2.19-.721-2.756-.735-7.012-.014-4.143.05-4.838.604-6.603.609-1.937 1.883-4.65 2.934-6.241l.531-.806-.851.087c-.469.048-22.334 2.229-48.59 4.846s-48.521 4.938-49.477 5.158c-6.998 1.604-14.771 6.584-22.121 14.17-5.217 5.385-8.42 9.965-11.235 16.067-3.552 7.695-3.948 8.509-6.098 12.516-12.863 23.97-28.854 42.063-49.597 56.115-17.408 11.793-37.412 20.117-62.085 25.834-14.477 3.354-32.029 5.785-50.76 7.03-13.334.885-19.803 1.06-39.29 1.067-88.554.027-153.942-8.264-207.3-26.284-31.661-10.693-57.097-23.991-81.491-42.604-6.181-4.716-7.956-6.02-12.232-8.987-14.833-10.297-31.779-19.33-51.533-27.473-11.667-4.81-37.67-14.136-38.09-13.663-.109.122-1.309 1.71-2.668 3.53a281 281 0 0 1-5.065 6.535c-1.427 1.775-2.595 3.285-2.595 3.354 0 .07.684.264 1.521.431 6.775 1.354 16.532 4.301 21.986 6.64 8.594 3.686 13.542 6.863 26.212 16.83 7.262 5.711 11.484 8.777 14.045 10.196.946.525 2.718 1.706 3.938 2.627 2.936 2.214 4.926 3.54 11.408 7.596 75.677 47.37 170.89 75.873 267.89 80.197l8.334.371c4.47.2 52.23-.09 58.605-.354m192.4-3.341c12.652-8.27 26.104-18.838 38.448-30.208 8.426-7.762 26.398-26.154 26.276-26.89-.028-.164-.47-1.315-.984-2.557-2.624-6.344-2.257-12.067 1.086-16.96.262-.384 10.703-11.013 23.202-23.62 12.499-12.609 22.662-22.987 22.585-23.064-.186-.186-27.518.419-29.004.642l-1.157.173-2.383 3.97c-14.46 24.079-28.542 44.013-42.772 60.54-9.932 11.537-21.568 23.034-32.436 32.048-3.367 2.793-11.06 8.675-14.364 10.982-.915.64-1.63 1.311-1.587 1.493.234 1.008 8.588 16.215 8.856 16.122.173-.06 2.078-1.262 4.234-2.671m-563.987-17.335c1.248-.833 5.475-3.509 9.393-5.944 8.667-5.389 11.582-7.334 15.194-10.14 4.692-3.646 9.318-8.514 12.036-12.668.734-1.122.735-1.132.407-3.165-2.05-12.712-7.886-23.388-15.603-28.549-1.38-.923-2.595-1.592-2.697-1.485-.103.107-1.045 1.801-2.094 3.766-7.881 14.76-14.715 23.024-24.328 29.418-2.175 1.447-7.63 4.398-9.875 5.342-.617.259 1.003 1.26 6.538 4.039 7.706 3.87 9.355 5.11 11.04 8.296.522.988.628 1.574.622 3.44-.007 2.604-.595 4.165-2.66 7.059-.712.996-1.15 1.865-1.06 2.1.176.458.053.518 3.087-1.509m549.851-4.913c18.202-13.11 36.028-30.431 51.829-50.362 10.551-13.31 20.363-27.552 31.694-46.006l2.174-3.541-2.997.182c-4.754.29-17.763 1.456-21.11 1.89-3.549.462-6.643 1.155-8.86 1.985-2.249.84-3.608 2.347-5.955 6.597-10.02 18.146-21.444 34.772-33.682 49.016-5.937 6.91-17.9 18.702-23.551 23.214-.82.655-1.497 1.297-1.504 1.427-.02.373 9.093 17.348 9.316 17.354.11.003 1.301-.788 2.646-1.756m-558.35.504c1.29-1.56 1.956-3.107 1.614-3.746-.464-.867-2.277-1.962-7.617-4.6-2.771-1.369-5.874-3.044-6.895-3.723-3.81-2.533-5.804-5.478-7.443-10.997-1.348-4.536-1.712-6.92-1.703-11.131.01-4.415.32-6.077 1.968-10.588 2.853-7.808 2.97-8.218 3.01-10.572l.04-2.242 3.548-.591c1.95-.326 3.611-.527 3.69-.448.08.079.139 1.592.132 3.363-.014 3.718-.395 5.345-2.466 10.54-2.355 5.908-2.888 8.761-2.414 12.939.277 2.445.98 5.764 1.298 6.126.242.275 4.984-1.914 7.806-3.605 8.745-5.24 15.387-12.625 22.035-24.501 2.048-3.658 4.312-8.002 4.312-8.273 0-.096-1.22-1.097-2.712-2.224-1.491-1.127-5.165-3.978-8.163-6.337-11.21-8.819-16.098-11.902-24.055-15.172-6-2.467-12.47-4.362-20.738-6.075l-4.853-1.005-4.73 4.672c-8.724 8.616-16.003 14.26-25.104 19.467-3.17 1.814-9.411 4.893-9.918 4.893-.378 0-.401-.077 1.014 3.364 2.492 6.058 4.673 10.85 7.322 16.082 10.693 21.124 21.456 32.042 37.566 38.107 7.814 2.943 16.368 4.851 32.458 7.243.098.014.548-.42.999-.966m393.447-1.644c18.657-.864 33.374-2.313 47.36-4.664 5.02-.844 10.873-1.956 11.06-2.102.096-.075-64.995-198.244-65.313-198.846-.163-.308-1.259-.57-4.139-.992a535 535 0 0 0-22.967-2.805 1455 1455 0 0 1-8.268-.829l-1.389-.153v210.625l2.183.109c3.957.198 35.4-.062 41.473-.343m-51.329-105.446c0-57.99-.09-105.438-.198-105.442-.11-.003-3.056-.178-6.549-.39-3.492-.21-7.332-.386-8.532-.39l-2.183-.007v211.389l4.564.079c2.51.043 6.44.106 8.731.138l4.167.06zM474 460.902v-105.7h-13.965l-2.507 4.365c-7.189 12.52-14.484 26.189-22.947 42.995-12.388 24.6-20.516 42.116-42.792 92.207-12.146 27.314-18.92 42.35-23.988 53.247-1.472 3.166-2.676 5.86-2.676 5.989 0 .273 9.568 2.155 19.579 3.852 20.568 3.487 42.796 5.986 68.394 7.69 7.755.517 19.339 1.141 20.24 1.092l.662-.036zm147.483 96.556c13.17-3.59 27.293-9.08 37.359-14.526 4.933-2.669 10.28-5.94 10.284-6.29.005-.515-4.605-12.504-4.81-12.504-.216 0-53.48 17.99-53.592 18.1-.176.177 5.35 16.56 5.585 16.56.142 0 2.47-.603 5.174-1.34m-262.232-8.573c.902-1.959 1.64-3.657 1.64-3.774 0-.262-60.486-30.102-61.017-30.102-.243 0-1.686 2.805-3.949 7.673-1.962 4.22-3.633 7.882-3.714 8.138-.164.514-.343.423 6.371 3.228 10.363 4.328 22.093 8.453 34.731 12.211 4.868 1.448 23.083 6.16 23.888 6.179.272.007.96-1.184 2.05-3.553m8.727-18.988c2.06-4.544 3.66-8.342 3.555-8.44-.255-.236-60.067-30.385-60.437-30.463-.22-.047-8.012 15.85-8.235 16.8-.046.194 60.564 30.298 61.09 30.342.155.014 1.967-3.694 4.027-8.239m282.234-8.85c6.257-2.112 11.419-3.879 11.47-3.928.217-.21-5.241-14.022-5.568-14.09-.365-.075-52.921 12.506-53.677 12.85-.353.16.054 1.618 2.724 9.762l3.139 9.573 15.267-5.165c8.398-2.84 20.388-6.892 26.645-9.003m28.729 8.92c19.402-15.052 34.03-34.056 45.43-59.02 2.446-5.359 4.326-8.69 6.759-11.98 6.462-8.738 15.133-16.382 23.3-20.54l2.56-1.304-1.134-.647c-8.71-4.973-30.546-16.124-43.732-22.333-28.995-13.653-59.485-25.55-87.047-33.964a871 871 0 0 1-7.255-2.238c-.643-.21-1.195-.351-1.226-.315s13.022 34.355 29.007 76.265l29.492 77.324c.236.619.509 1.125.607 1.125s1.556-1.069 3.239-2.374M290.728 516.33c29.634-63.97 51.218-105.655 76.34-147.438 2.12-3.529 3.775-6.416 3.675-6.416-.412 0-11.48 1.96-17.332 3.068-10.877 2.061-22.143 4.492-22.51 4.856-.46.46-73.451 142.161-73.328 142.36.14.226 8.417 5.243 12.037 7.296 4.162 2.36 15.477 8.02 15.663 7.835.101-.101 2.556-5.303 5.455-11.56m87.907-10.158c2.028-4.562 3.687-8.39 3.687-8.508s-4.137-2.32-9.194-4.896a11404 11404 0 0 1-15.015-7.661c-14.726-7.535-35.553-18.121-35.653-18.121-.127 0-8.067 16.365-8.188 16.875-.078.332 60 30.809 60.46 30.67.12-.035 1.875-3.797 3.903-8.36m240.6-1.993a18340 18340 0 0 1 26.48-6.386c4.074-.976 7.516-1.873 7.648-1.993.19-.172-4.35-12.762-4.75-13.169-.143-.146-53.663 10.083-53.926 10.307-.275.233 4.879 15.852 5.231 15.852.136 0 8.83-2.075 19.318-4.611M286.24 440.64c19.26-37.333 34.965-67.932 34.9-67.996-.207-.208-19.513 4.846-29.67 7.767l-2.613.752-30.817 54.62c-16.95 30.04-30.865 54.738-30.924 54.884-.059.145.516.681 1.277 1.19 1.214.813 10.075 7.413 14.661 10.92 2.268 1.735 7.876 5.742 8.036 5.742.072 0 15.89-30.545 35.15-67.879m103.221 41.215c2.185-4.931 3.686-8.641 3.55-8.77-.282-.265-59.288-27.794-59.576-27.794-.108 0-1.887 3.383-3.953 7.517l-3.755 7.517 29.819 15.199c16.4 8.36 29.889 15.127 29.974 15.038.085-.088 1.859-4.006 3.941-8.707m-139.8-46.233c15.762-27.934 28.664-50.88 28.67-50.992.017-.325-.782-.08-14.012 4.305-36.252 12.015-69.556 25.58-108.347 44.132l-6.085 2.91-5.754 6.82-5.753 6.82 7.738 2.697c31.077 10.83 50.87 19.748 70.047 31.56 2.4 1.478 4.471 2.654 4.6 2.612.13-.042 13.132-22.931 28.895-50.864m350.148 48.714c3.42-.653 9.909-1.896 14.42-2.76 4.51-.866 13.381-2.554 19.711-3.752s11.602-2.26 11.715-2.361c.152-.135-6.183-17.424-6.581-17.96-.079-.105-51.558 9.678-52.395 9.957-.545.183-.477.447 2.26 8.787 1.552 4.73 2.907 8.817 3.01 9.083.14.364.368.448.915.339.4-.08 3.525-.68 6.945-1.333m-199.325-27.141c2.21-4.874 3.939-8.945 3.841-9.048-.154-.162-8.835-4.026-23.06-10.265-2.256-.99-9.281-4.084-15.611-6.878-18.209-8.037-19.908-8.764-20.224-8.642-.388.149-8.732 16.022-8.529 16.225.38.38 58.825 27.556 59.174 27.515.241-.029 1.929-3.438 4.41-8.907m486.936 3.972c4.125-.472 8.005-1.695 11.04-3.48.831-.487 2.535-1.899 3.785-3.136 1.91-1.89 2.471-2.652 3.502-4.763 2.506-5.132 2.662-10.167.449-14.55-1.958-3.879-5.726-6.075-10.435-6.083-1.01-.002-4.879.302-8.599.675-5.541.557-7.158.814-8.95 1.425-5.546 1.893-9.353 5.742-10.503 10.621-1.227 5.205.543 12.19 4.099 16.18 2.113 2.37 2.555 2.546 8.061 3.2 1.695.202 5.394.158 7.551-.089m-277.425-5.718c14.261-2.71 26.011-5.003 26.11-5.095.153-.141-4.82-13.626-5.143-13.95-.06-.06-10.993 1.316-24.296 3.058-31.513 4.126-28.613 3.703-28.445 4.14.078.203 1.343 4.059 2.812 8.57 1.468 4.51 2.752 8.2 2.852 8.202.1 0 11.85-2.216 26.11-4.925m-199.323-20.485c1.597-3.415 3.801-8.092 4.899-10.394s1.937-4.242 1.866-4.313-13.14-5.416-29.043-11.879c-24.552-9.976-28.958-11.69-29.201-11.355-.695.96-10.256 18.41-10.146 18.52.272.272 58.295 25.761 58.5 25.699.122-.037 1.529-2.862 3.125-6.278m180.67-.93 25.862-3.394c5.856-.768 10.721-1.47 10.81-1.56s-1.659-4.942-3.886-10.784c-3.988-10.458-4.06-10.62-4.725-10.493-.372.071-11.868 1.647-25.547 3.502s-24.923 3.417-24.986 3.471 1.403 4.71 3.258 10.346a9954 9954 0 0 1 3.48 10.578c.06.182.2.33.314.331.114 0 7.053-.898 15.42-1.997m187.187-1.311c5.817-.8 10.602-1.455 10.633-1.455s-.72-1.637-1.67-3.638c-6.102-12.86-12.382-27.298-18.095-41.605-22.431-56.171-35.787-110.16-39.795-160.866-.926-11.719-1.028-14.944-1.083-34.307-.031-10.938-.141-21.058-.245-22.49-.43-5.952-1.737-11.357-3.443-14.244-4.913-8.31-17.028-9.036-52.791-3.161C517.915 176.276 345.2 253.79 234.684 347.242c-20.208 17.088-39.698 36.204-54.523 53.48-6.084 7.088-16.273 19.899-16.026 20.146.036.037 3.274-1.405 7.196-3.203 102.031-46.778 198.303-69.996 290.233-69.997 69.39 0 136.976 12.898 205.845 39.284 16.505 6.324 31.28 12.687 51.576 22.21 11.185 5.248 36.428 18.36 46.055 23.92 1.018.588 2.09 1.076 2.38 1.083.292.007 5.29-.641 11.108-1.441m-28.173-21.32c-10.294-7.246-17.252-11.832-25.534-16.828-55.049-33.205-121.16-54.022-194.334-61.192-19.925-1.952-36.981-2.744-58.87-2.734-27.115.012-49.761 1.335-76.463 4.464-7.832.918-22.214 2.906-26.59 3.675a897 897 0 0 1-7.277 1.22c-40.097 6.574-84.564 18.781-118.9 32.642-2.383.962-4.36 1.716-4.392 1.675-.031-.04-.914-1.433-1.962-3.094-1.535-2.435-1.838-3.081-1.56-3.335.627-.573 10.272-7.886 19.394-14.705 40.376-30.182 78.957-55.28 118.003-76.762 16.327-8.982 40.428-21.099 56.356-28.333 67.434-30.622 138.26-53.47 229.801-74.13 13.626-3.075 14.87-3.3 19.33-3.495 7.4-.322 12.974 1.102 17.852 4.56 7.137 5.06 10.984 15.299 10.285 27.373-.42 7.262-.034 24.55.82 36.777 2.822 40.36 10.64 74.347 27.294 118.666 4.802 12.778 10.106 25.83 18.6 45.772 2.79 6.549 5.134 12.055 5.21 12.237s.036.323-.09.313c-.124-.01-3.262-2.154-6.973-4.766m-13.392-24.733c-25.062-60.849-35.214-100.64-38.336-150.263-.718-11.417-1.052-27.441-.674-32.37 1.08-14.078-3.318-22.972-12.602-25.49-3.1-.84-8.846-.829-13.378.026-1.856.35-3.373.706-3.373.79 0 .086.685.507 1.521.936 2.056 1.056 5.547 4.575 6.487 6.54 1.973 4.121 1.993 7.737.067 11.801-.895 1.89-3.294 4.653-5.297 6.101-.683.494-.735.61-.37.83.233.14.937.92 1.563 1.732l1.14 1.477 1.044-1.005 1.045-1.005-.126 5.82c-.114 5.335-.179 5.966-.766 7.545-1.078 2.897-2.852 5.224-5.369 7.043l-.78.564 1.588 1.732c5.181 5.654 5.052 13.48-.312 18.86l-1.606 1.611 1.516 1.362c.835.75 2.003 2.09 2.597 2.98 3.711 5.557 2.65 13.1-2.478 17.621l-1.374 1.212 1.77 1.77c1.983 1.984 3.52 4.747 3.96 7.124.322 1.736.352 6.38.04 6.38-.123 0-.673.908-1.22 2.017-.679 1.371-1.567 2.597-2.774 3.826l-1.776 1.808 1.782 1.82c2.976 3.042 4.213 6.174 4.213 10.664 0 1.957-.088 2.596-.372 2.705-.205.078-.451.502-.547.941-.262 1.19-2.01 3.748-3.64 5.324l-1.438 1.392 1.742 1.75c3.071 3.089 4.413 6.442 4.187 10.467-.237 4.226-1.975 7.462-5.572 10.373l-1.01.817 1.645 1.556c3.439 3.255 4.882 6.566 4.692 10.768-.086 1.92-.258 2.754-.817 3.969l-.708 1.537.985.407c13.02 5.376 30.165 13.635 42.26 20.356 5.944 3.303 15.634 9.064 21.034 12.505 1.82 1.16 3.334 2.081 3.367 2.049s-1.555-3.981-3.53-8.775m-468.544-31.48c8.396-2.798 19.568-6.193 27.816-8.452l5.591-1.532-.829-1.75c-.737-1.557-.828-2.01-.828-4.13 0-2.066.1-2.6.762-4.031.419-.908.912-1.775 1.096-1.928.263-.218.172-.571-.426-1.657-.419-.759-.764-1.581-.766-1.827s-.112-.514-.244-.595c-.378-.234-18.43 12.372-33.627 23.484-6.785 4.96-7.368 5.418-6.483 5.087.291-.11 3.863-1.31 7.938-2.668m398.04.853c1.11-2.291.492-4.453-1.926-6.739-2.238-2.117-5.54-3.496-8.369-3.496-1.478 0-3.955.619-5.55 1.387-1.136.547-3.446 2.594-3.446 3.054 0 .122 1.935.9 4.3 1.729 2.364.828 6.442 2.328 9.062 3.33 2.619 1.004 4.9 1.837 5.07 1.851.168.014.555-.488.86-1.116m-23.12-12.754 1.638-1.593-1.75-1.869c-5.52-5.892-5.256-13.955.636-19.515l1.366-1.288-1.875-1.888c-2.842-2.861-4.114-5.866-4.12-9.73-.006-3.701 1.415-6.929 4.285-9.735l1.665-1.627-1.853-1.907c-2.907-2.992-4.107-5.796-4.094-9.57.014-3.838 1.236-6.698 4.122-9.64l1.923-1.961-1.292-1.162c-3.433-3.087-5.178-7.786-4.5-12.117.419-2.682 1.738-5.279 3.772-7.426l1.707-1.801-1.88-1.87c-2.932-2.915-4.395-6.23-4.38-9.927.014-3.917 1.256-6.642 4.47-9.806l2.289-2.254-1.419-1.45c-4.015-4.103-4.961-10.267-2.371-15.454.761-1.524 3.792-4.866 5.216-5.75l.65-.405-1.245-1.424c-1.502-1.717-2.915-4.361-3.366-6.297-.745-3.2-.043-7.215 1.776-10.153.386-.625.494-.993.29-.993-1.182 0-46.517 11.305-47.36 11.81-.1.06.556.86 1.459 1.777 3.409 3.46 4.838 8.226 3.745 12.485-.877 3.413-2.785 6.257-5.539 8.254l-1.657 1.202 1.063 1.088c2.72 2.785 3.846 5.613 4.08 10.251.14 2.807.11 3.14-.28 3.14-.24 0-.437.166-.437.37 0 .589-1.537 3.349-2.56 4.597-.515.629-1.563 1.616-2.329 2.195l-1.392 1.051 1.508 1.566c3.324 3.45 4.696 8.257 3.58 12.543-.705 2.708-1.713 4.398-3.994 6.697l-2.147 2.164 1.187 1.143c5.98 5.762 5.796 14.792-.417 20.33-.814.725-1.59 1.318-1.723 1.318-.134 0 .558.85 1.539 1.89 2.078 2.203 3.415 4.779 3.825 7.37.33 2.082.364 5.821.052 5.821-.123 0-.678.923-1.233 2.051-.723 1.47-1.543 2.586-2.892 3.94l-1.882 1.889 1.88 1.961c2.005 2.09 3.03 3.877 3.682 6.42 1.272 4.954-.677 10.347-5.007 13.859-.646.524-1.133.994-1.083 1.045s3.17.789 6.932 1.64c8.188 1.853 14.65 3.464 22.317 5.564 5.393 1.476 16.633 4.822 18.918 5.63l1.058.374.905-1.615c.498-.888 1.642-2.332 2.543-3.208m-332.867-2.567c.93-1.328.22-3.38-1.171-3.38-.875 0-1.856 1.048-1.856 1.984 0 1.643 2.157 2.638 3.027 1.396m14.832-1.252a615 615 0 0 1 22.969-4.759c3.756-.706 6.88-1.333 6.94-1.394.062-.062-.01-.52-.16-1.02-.73-2.435-.063-6.178 1.433-8.038l.628-.78-.76-1.05c-2.131-2.941-2.005-7.26.305-10.448.45-.62.667-1.143.515-1.237-.144-.09-.577-.78-.962-1.533-1.41-2.759-1.098-6.64.736-9.17l.79-1.091-.937-1.874c-.516-1.031-.938-2.096-.938-2.368s-.057-.494-.127-.494c-.663 0-31.262 18.867-38.674 23.846l-1.893 1.27.945 1.003c1.276 1.352 2.404 3.853 2.605 5.776.202 1.936-.389 4.498-1.426 6.185l-.72 1.17.793 1.597c.65 1.307.811 2.002.888 3.815.09 2.118.12 2.21.662 2.062.312-.084 3.186-.745 6.388-1.468m335.642-2.114c5.083-1.582 7.535-5.695 5.651-9.476-1.738-3.488-6.71-5.6-11.451-4.863-7.603 1.18-10.925 7.575-6.214 11.962 1.344 1.252 2.106 1.702 3.962 2.34 2.112.727 5.78.744 8.052.037m-293.512-6.251c.326-.212.663-.67.75-1.018.504-2.007-2.87-3.324-4.94-1.93-.729.492-.899.778-.899 1.512 0 .738.171 1.02.926 1.533.788.534 1.124.602 2.25.457.727-.093 1.588-.343 1.913-.554m215.934-1.053c1.727-.513 4.055-2.1 5.027-3.426 2.06-2.811 1.6-5.821-1.287-8.416-5.156-4.637-15.535-2.89-17.629 2.968-1.761 4.928 3.867 9.888 10.668 9.401 1.047-.075 2.496-.312 3.22-.527M389.73 328.23c4.002-.506 11.145-1.302 15.875-1.767 4.729-.466 8.64-.88 8.692-.92.05-.04-.106-.672-.35-1.404-1.059-3.19-.246-7.111 2.006-9.676l.813-.927-.822-1.039c-.453-.57-1.148-1.733-1.546-2.582-.62-1.324-.724-1.884-.724-3.926 0-2.05.103-2.599.735-3.95.404-.863 1.143-2.067 1.642-2.676l.908-1.108-.626-.587c-.985-.926-2.264-3.564-2.538-5.234-.463-2.828.527-6.025 2.56-8.277l.944-1.044-.826-1.042c-1.583-1.999-2.005-3.313-2.005-6.244 0-2.343.082-2.813.719-4.109.395-.805 1.144-1.961 1.665-2.57l.947-1.105-.937-1.362c-.516-.75-1.144-1.945-1.397-2.657-.253-.711-.551-1.294-.664-1.294-.292 0-16.776 8.262-23.352 11.704-7.817 4.092-19.182 10.27-19.182 10.428 0 .073.63.708 1.401 1.413 3.456 3.158 4.031 7.966 1.418 11.849-.876 1.3-.88 1.325-.4 1.945 2.108 2.727 2.02 7.57-.191 10.47l-.722.947.822 1.496c1.773 3.224 1.59 6.285-.592 9.94-.469.786-.466.806.265 1.919.407.618.897 1.124 1.089 1.124.26 0 .35.53.35 2.067v2.066l3.373-.473c1.856-.26 6.648-.888 10.65-1.395m173.305.654c-2.74-5.373-1.047-12.674 3.82-16.465l1.153-.899-1.395-1.229c-5.176-4.563-6.198-12.043-2.423-17.73.934-1.407 2.51-3.034 3.824-3.95l.617-.43-1.214-1.119c-3.364-3.1-5.062-7.75-4.392-12.029.47-3.004 1.787-5.436 4.268-7.88l2.123-2.093-1.249-1.231c-2.816-2.776-4.082-5.53-4.275-9.3-.113-2.224-.047-2.755.574-4.602 1.056-3.137 2.802-5.488 5.536-7.455l.754-.543-1.491-1.551c-4.322-4.498-5.153-11.01-2.075-16.268.882-1.508 3.029-3.797 4.532-4.833l1.15-.793-1.191-1.226c-2.811-2.893-3.993-5.951-3.847-9.957.05-1.383.044-2.515-.015-2.515-.53.001-20.924 6.275-32.32 9.942-8.797 2.832-29.398 9.845-31.743 10.807-.314.129-.092.49.977 1.594 4.221 4.358 4.28 10.67.136 14.865l-1.266 1.282 1.217 1.511c3.428 4.253 3.143 10.172-.675 14.03l-1.233 1.246.964 1.127c2.142 2.502 3.111 5.847 2.542 8.767-.396 2.033-1.573 4.292-2.922 5.61l-1.028 1.003 1.082 1.216c2.602 2.924 3.5 6.897 2.338 10.333-.636 1.878-1.206 2.82-2.599 4.294l-.922.975 1.093 1.242c3.72 4.225 3.75 10.215.071 14.205l-1.074 1.166.933.905c1.244 1.205 2.328 2.971 2.889 4.706.611 1.89.451 5.216-.336 6.979l-.56 1.255.58.12c.319.064 2.009.19 3.755.276 12.492.623 35.814 3.033 48.418 5.003 2.183.341 4.299.636 4.702.655l.733.034zm-252.361-.207c.95-1.099.6-3.262-.591-3.64-1.496-.475-2.708 1.96-1.723 3.462.505.771 1.72.865 2.314.178m118.249-4.846c1.361-.695 2.082-1.701 2.082-2.908 0-.847-.17-1.147-1.093-1.937-2.367-2.026-6.609-1.761-8.407.525-2.449 3.113 3.264 6.44 7.418 4.32m25.497-.516c4.366-.135 11.891-.249 16.723-.253l8.786-.007-.396-1.122c-1.257-3.562-.517-7.056 2.217-10.472l.915-1.144-.787-.84c-1.373-1.469-2.113-2.647-2.717-4.327-1.245-3.46-.321-7.731 2.308-10.667l1.063-1.187-1.062-1.194c-3.477-3.907-3.708-9.234-.586-13.476.66-.897 1.378-1.699 1.595-1.782.305-.117.167-.4-.61-1.246-2.25-2.452-3.093-4.749-2.923-7.979.14-2.655 1.106-4.863 2.989-6.829l1.217-1.27-.789-.897c-2.068-2.355-3.114-5.424-2.812-8.247.23-2.147 1.553-4.84 3.143-6.397l1.18-1.157-1.107-1.36c-1.372-1.683-2.285-3.759-2.478-5.629-.134-1.3-.196-1.41-.705-1.253-2.428.746-24.457 9.808-33.895 13.944-8.48 3.715-9.393 4.128-9.393 4.248 0 .056.427.564.948 1.128.522.564 1.18 1.472 1.461 2.017.282.546.689.993.904.993.608 0 .54 4.767-.098 6.815-.495 1.592-1.637 3.489-2.65 4.4l-.555.5.787.896c3.213 3.66 3.038 9.436-.398 13.14l-.94 1.014.682.81c3.162 3.757 3.143 9.153-.045 12.877l-.932 1.089.819 1.035c.45.569 1.145 1.73 1.543 2.578.62 1.324.723 1.884.723 3.926 0 2.05-.102 2.599-.735 3.95-.404.863-1.142 2.066-1.64 2.675l-.907 1.105.746.715c1.804 1.728 2.977 5.563 2.476 8.096l-.275 1.389 4.136-.18c2.275-.098 7.708-.29 12.074-.425m41.936-1.167c2.286-1.172 3.327-3.005 2.644-4.655-1.683-4.062-10.113-4.23-12.088-.24-.388.783-.529 1.426-.425 1.938.212 1.042 1.88 2.648 3.288 3.164 1.56.572 5.29.454 6.581-.207m-128.874-3.267c.409-.304.716-.82.763-1.284.258-2.552-5.291-3.013-5.924-.493-.484 1.931 3.232 3.21 5.16 1.777m292.156-4.145c4.517-.957 7.484-3.85 7.48-7.291-.005-2.657-1.757-4.87-5.1-6.438-1.502-.704-2.127-.837-4.36-.928-3.24-.132-5.4.396-7.584 1.854-4.382 2.927-4.55 7.707-.384 10.863 2.627 1.99 6.318 2.71 9.948 1.94m-230.526-6.023c1.184-.563 2.155-1.79 2.155-2.724 0-.964-.977-2.163-2.275-2.791-2.554-1.237-6.347-.513-7.537 1.438-.605.993-.63 1.534-.114 2.532 1.112 2.15 4.911 2.906 7.771 1.545m154.557-1.809c1.987-.585 3.985-1.997 5.132-3.629 1.006-1.431 1.244-3.722.57-5.487-1.335-3.497-6.95-5.976-11.718-5.172-6.276 1.059-9.816 5.714-7.627 10.033 2.068 4.081 7.972 5.923 13.643 4.255m-216.78.28c.608-.007 1.939-1.372 1.939-1.988 0-.362-.336-.897-.814-1.3-.654-.55-1.093-.685-2.229-.685-2.481 0-3.857 1.79-2.416 3.143.729.684 1.923 1.105 2.68.945a5.6 5.6 0 0 1 .84-.115m129.031-1.865c5.202-2.446 2.748-7.761-3.583-7.761-1.737 0-2.265.115-3.567.78-2.517 1.288-3.351 3.193-2.215 5.057 1.505 2.468 6.17 3.426 9.365 1.924m-127.711-10.822c1.115-.68 1.346-1.476.688-2.364-1.027-1.384-3.531-1.643-4.966-.514-.65.511-.877 1.61-.457 2.215.845 1.217 3.27 1.557 4.735.663m60.957-.817c2.963-1.512 2.724-4.5-.457-5.714-3.31-1.264-7.494.37-7.494 2.927 0 2.804 4.692 4.449 7.95 2.787m232.356-2.361c1.8-.688 3.875-2.257 4.656-3.52.307-.498.696-1.5.864-2.228.997-4.32-3.995-8.553-10.084-8.553-5.526 0-10.319 3.502-10.319 7.54 0 3.034 2.878 6.009 6.907 7.139 2.036.57 5.981.384 7.976-.378m-165.43-2.775c3.714-1.91 3.792-5.066.172-6.969-1.187-.624-1.67-.716-3.744-.718-2.144-.002-2.521.075-3.79.777-.775.43-1.665 1.14-1.978 1.58-1.418 1.992-.142 4.477 2.873 5.595 1.436.533 5.217.378 6.467-.265m87.973-4.478c2.82-.753 4.755-2.128 5.967-4.24 2.521-4.397-1.029-9.173-7.646-10.286-4.47-.751-9.92 1.611-11.452 4.964-.66 1.445-.638 3.638.05 5.06.944 1.948 3.718 3.974 6.267 4.575 1.533.36 5.343.32 6.814-.073m-154.243-5.465c3.914-1.895 1.871-6.147-2.953-6.147-3.735 0-6.287 2.75-4.572 4.93 1.52 1.932 4.914 2.481 7.525 1.217m65.492-6.507c.997-.297 1.779-.77 2.562-1.553.975-.975 1.126-1.279 1.126-2.26 0-2.42-2.647-4.263-6.125-4.265-4.631-.002-7.656 2.736-6.178 5.593 1.219 2.357 5.188 3.502 8.615 2.485m167.08-4.043c2.062-.96 3.273-2.039 4.198-3.739.646-1.186.73-1.585.636-3.055-.086-1.344-.27-1.922-.9-2.817-3.58-5.094-12.435-5.86-17.196-1.487-1.552 1.425-2.215 2.827-2.222 4.701-.011 2.709 1.665 4.898 4.914 6.418 3.016 1.412 7.514 1.403 10.57-.02m-231.889-4.542c1.085-.554 2.084-1.862 2.086-2.732.002-.897-1.055-2.232-2.21-2.79-1.647-.798-4.155-.752-5.878.106-1.28.638-2.23 1.762-2.23 2.64 0 1.298 1.657 2.867 3.535 3.347 1.23.314 3.503.038 4.697-.571m156.116-3.08c5.354-2.505 6.757-7.188 3.238-10.809-4.666-4.801-14.357-4.078-17.691 1.322-.685 1.107-.802 1.558-.802 3.069.001 1.572.1 1.914.885 3.062 1.171 1.71 2.894 2.99 5.036 3.74 1.512.53 2.151.6 4.672.523 2.603-.081 3.109-.18 4.662-.906m-89.64-5.504c1.393-.661 2.815-2.339 2.815-3.321 0-4.355-7.99-6.089-11.569-2.51-.996.996-1.131 1.273-1.131 2.321 0 1.419.597 2.291 2.216 3.24 2.003 1.174 5.504 1.297 7.669.27m163.705-9.375c7.575-2.834 8.078-9.94.94-13.27-3.168-1.478-7.656-1.391-10.928.211-1.88.92-3.865 3.07-4.314 4.673-1.09 3.897 2.162 7.745 7.531 8.91 1.652.358 5.134.089 6.771-.524m-162.901-7.534c1.748-.855 2.599-1.934 2.636-3.342.033-1.277-.648-2.24-2.326-3.283-1.08-.67-1.576-.794-3.56-.89-1.96-.093-2.515-.02-3.684.483-2.24.963-3.514 2.78-3.102 4.422.261 1.04 1.961 2.541 3.47 3.062 1.916.661 4.68.471 6.566-.452m89.139-.16c2.185-.675 4.03-1.943 5.205-3.577.786-1.093.935-1.539 1.02-3.04.079-1.4-.014-1.982-.455-2.846-2.286-4.482-9.56-6.41-14.92-3.956-1.835.84-3.822 2.636-4.458 4.03-1.84 4.03 1.371 8.47 7.045 9.742 1.497.335 4.934.15 6.563-.353m75.483-15.265c1.963-.764 3.676-2.035 4.66-3.458.736-1.066.875-1.522.95-3.102.082-1.709.02-1.962-.789-3.287-3.26-5.333-12.992-6.05-17.6-1.299-1.357 1.4-1.932 2.71-1.925 4.38.015 3.142 2.677 5.91 6.844 7.115 1.774.513 6.141.319 7.86-.35m-73.569-7.63c4.537-1.173 7.502-4.775 6.738-8.185-.792-3.534-4.472-6.084-9.262-6.415-3.447-.24-6.59.771-8.835 2.84-2.127 1.96-2.827 4.516-1.868 6.82.861 2.069 3.595 4.169 6.47 4.97 1.675.467 4.895.453 6.757-.03m74.734-14.972c2.704-.61 5.321-2.486 6.415-4.595.739-1.426.735-3.605-.01-5.057-1.778-3.468-7.005-5.656-11.645-4.873-2.154.363-4.578 1.438-5.939 2.632-1.294 1.136-2.314 3.246-2.314 4.784 0 3.202 3.103 6.292 7.144 7.113 2.713.55 3.894.55 6.35-.004zm155.909 229.157c11.66-1.168 21.219-2.15 21.243-2.183.068-.092-96.31-150.178-96.387-150.1-.2.199 2.77 13.793 5.118 23.438 9.306 38.213 24.02 79.509 42.516 119.327 4.986 10.733 5.445 11.641 5.885 11.641.234 0 9.965-.955 21.625-2.123m41.134-4.13 10.115-.988-.458-.7c-2.72-4.162-132.734-194.17-132.809-194.096-.258.258 2.115 20.298 3.058 25.827l.474 2.776 52.653 82.02c28.96 45.112 53.286 83.01 54.06 84.218 1.27 1.985 1.471 2.183 2.098 2.063.382-.073 5.246-.577 10.809-1.12m-435.214-20.638c2.519-5.04 4.483-9.25 4.364-9.354-.564-.498-55.984-22.786-56.165-22.588-.23.252-6.768 11.243-8.993 15.118-.775 1.35-1.35 2.515-1.276 2.588.13.13 57.089 23.352 57.357 23.384.073.009 2.194-4.108 4.713-9.148m166.92-.31c13.563-1.858 24.73-3.448 24.817-3.535.165-.164-6.105-16.853-6.48-17.246-.216-.227-50.77 2.882-51.025 3.138-.076.076 1.397 4.839 3.272 10.585 3.308 10.137 3.43 10.447 4.083 10.44.37-.004 11.77-1.526 25.333-3.383M433.94 387.46c2.183-3.95 7.145-13.666 7.035-13.776-.077-.077-5.894-2.22-12.927-4.761-24.733-8.939-27.315-9.896-27.502-10.2-.14-.225-2.252-.045-8.083.69-4.341.547-8.787 1.133-9.878 1.302l-1.984.308-.948 1.418c-1.278 1.911-1.947 3.184-1.768 3.362.278.278 55.102 22.545 55.365 22.487.144-.032.454-.406.69-.83m129.884-8.844c2.546-.148 8.261-.502 12.7-.786 4.438-.285 13.283-.844 19.654-1.242 10.022-.627 11.574-.779 11.506-1.13-.048-.251-.733-.587-1.795-.88-5.09-1.403-15.845-4.094-22.354-5.592-11.423-2.629-31.409-6.54-31.738-6.211-.073.072 1.082 3.78 2.567 8.238l2.699 8.107 1.065-.118c.586-.065 3.15-.239 5.696-.386m-118.165-13.03c.421-.764 1.88-3.37 3.241-5.794s2.476-4.473 2.476-4.555c0-.152-1.426-.112-13.229.37-8.122.33-19.472 1.038-20.45 1.274-.601.145 1.813 1.106 12.832 5.111 7.464 2.714 13.75 4.945 13.968 4.958.22.014.74-.597 1.162-1.364m-201.562-35.683c22.738-18.097 46.577-34.819 73.4-51.484 8.615-5.352 22.068-13.358 29.387-17.487.81-.457 1.66-1.043 1.888-1.302.229-.26 23.78-41.905 52.334-92.546l52.59-93.266.672-1.19-.67.661c-.368.364-23.749 28.225-51.958 61.913a2067935 2067935 0 0 1-112.678 134.551c-33.764 40.316-61.569 73.527-61.787 73.802s2.173-1.645 5.313-4.268 8.32-6.845 11.51-9.384m123.88-80.641a1254 1254 0 0 1 14.644-7.706c4.564-2.36 8.43-4.426 8.592-4.59s18.854-36.254 41.54-80.201l41.245-79.904.074-11.905c.063-10.129.02-11.845-.29-11.509-.302.327-112.044 198.31-112.32 199.006-.048.123-.03.223.04.223s2.983-1.536 6.474-3.414m41.09-20.894c16.167-7.865 38.65-17.857 58.118-25.828l6.945-2.844V146.36c0-32.567-.095-53.236-.244-53.083-.134.139-15.443 29.72-34.02 65.736s-34.602 67.062-35.61 68.99c-1.01 1.928-1.793 3.506-1.74 3.506.051 0 3-1.414 6.552-3.142m81.413-35.063c4.408-1.689 8.128-3.07 8.268-3.07.16 0 .253-26.961.253-73.819V42.598H481.54v77.024c0 73.232.023 77.018.463 76.889.254-.075 4.07-1.517 8.478-3.206m31.937-11.534c23.442-8.122 46.83-15.23 71.64-21.774l7.347-1.937-25.47-25.233a86965 86965 0 0 1-40.156-39.803 56438 56438 0 0 0-21.894-21.715l-7.21-7.144v123.137l3.373-1.207c1.856-.664 7.422-2.61 12.37-4.324m95.514-27.634c3.638-.84 7.203-1.669 7.923-1.843l1.308-.317-59.638-51.978c-32.801-28.587-59.914-52.197-60.252-52.466l-.614-.488.074 3.411.074 3.412 51.462 51.004c48.247 47.819 51.51 50.998 52.255 50.898.436-.059 3.77-.794 7.408-1.633m27.649-5.97c4.584-.888 9.027-1.745 9.874-1.905 1.253-.235 1.475-.351 1.19-.623-.634-.606-107.516-71.61-106.975-71.066.29.293 19.876 17.392 43.523 37.997 32.989 28.745 43.118 37.435 43.524 37.339.291-.069 4.28-.852 8.864-1.741m33.408-5.84c2.294-.334 4.08-.698 3.968-.807-.185-.183-102.832-56.36-104.692-57.298-.448-.225-.695-.288-.55-.138.146.149 20.481 13.716 45.19 30.15l44.924 29.878 3.494-.588c1.922-.324 5.371-.862 7.666-1.197M505.162 34.56c2.382-1.023 3.63-3.7 3.63-7.788 0-7.178-4.07-13.952-10.194-16.967-2.685-1.32-4.63-1.724-8.327-1.724-4.86 0-8.211 1.103-11.567 3.807-6.46 5.203-9.292 15.824-5.585 20.942 1.545 2.132 1.14 2.082 17.094 2.09 11.413.004 14.26-.065 14.95-.36" style="fill:#000;fill-opacity:1" transform="translate(-1.091 -.677)"/></svg>