<?xml version="1.0" encoding="UTF-8" standalone="no"?>
<svg
   width="489.28058"
   height="548.93964"
   viewBox="0 0 129.45499 145.23966"
   version="1.1"
   id="svg5"
   sodipodi:docname="Punjab_Regiment_Insignia_(India).svg"
   xml:space="preserve"
   xmlns:inkscape="http://www.inkscape.org/namespaces/inkscape"
   xmlns:sodipodi="http://sodipodi.sourceforge.net/DTD/sodipodi-0.dtd"
   xmlns="http://www.w3.org/2000/svg"
   xmlns:svg="http://www.w3.org/2000/svg"><defs
     id="defs5" /><sodipodi:namedview
     id="namedview5"
     pagecolor="#ffffff"
     bordercolor="#000000"
     borderopacity="0.25"
     inkscape:showpageshadow="2"
     inkscape:pageopacity="0.0"
     inkscape:pagecheckerboard="0"
     inkscape:deskcolor="#d1d1d1"
     inkscape:zoom="0.32832898"
     inkscape:cx="1.5228628"
     inkscape:cy="437.06163"
     inkscape:window-width="1366"
     inkscape:window-height="705"
     inkscape:window-x="-8"
     inkscape:window-y="-8"
     inkscape:window-maximized="1"
     inkscape:current-layer="svg5"><inkscape:page
       x="0"
       y="-4.0216232e-22"
       width="129.45499"
       height="145.23967"
       id="page2"
       margin="0"
       bleed="0" /></sodipodi:namedview><g
     id="g18"
     transform="translate(-29.22573,-13.890572)"><path
       style="fill:#e7bc35;fill-opacity:1"
       d="m 95.91107,158.61706 c -0.570859,-0.29104 -1.285232,-0.52916 -1.587494,-0.52916 -0.302263,0 -1.016635,-0.23812 -1.587494,-0.52916 -0.719531,-0.36684 -1.568616,-0.53078 -2.767912,-0.53441 -2.399495,-0.007 -4.872798,-0.38793 -8.741417,-1.34536 -11.445469,-2.8326 -24.156593,-9.92407 -32.636814,-18.20791 -6.471166,-6.32131 -8.555071,-10.04009 -13.132979,-23.43611 -1.342698,-3.92904 -2.845142,-7.88785 -3.338763,-8.79736 -0.493622,-0.9095 -1.340234,-2.4573 -1.881361,-3.43956 -1.729213,-3.138897 -1.259313,-5.593086 1.55545,-8.1238 2.409889,-2.166697 5.953653,-3.655719 11.18841,-4.701156 3.784963,-0.755897 12.557091,-0.8262 16.553458,-0.132666 8.743477,1.517354 13.287024,4.410013 13.287024,8.459214 0,1.028429 -0.285871,1.863275 -1.410057,4.117868 -0.775532,1.55536 -1.451999,2.94698 -1.503262,3.0925 -0.05126,0.14552 1.373195,-1.22612 3.165459,-3.04809 C 83.4201,90.943599 89.303173,79.973137 92.21683,65.764024 l 0.186745,-0.910707 -1.270632,1.118455 c -4.529471,3.987 -11.950989,4.361182 -15.848519,0.799059 -2.05882,-1.881645 -2.912458,-3.908099 -2.917376,-6.92557 l -0.0038,-2.331573 -2.513532,2.672004 c -1.382442,1.469603 -2.715138,2.667638 -2.961547,2.662301 -0.641029,-0.01389 -1.271769,-1.038569 -1.271769,-2.066082 0,-1.05958 0.497247,-2.079174 1.446575,-2.966172 0.386709,-0.361318 0.957145,-1.067986 1.267637,-1.570372 L 68.895143,55.331938 68.015032,54.65336 C 65.114186,52.416769 64.335986,51.681547 63.233243,50.135654 62.559693,49.19143 61.802787,48.379245 61.55123,48.3308 c -0.251557,-0.04845 -0.958166,0.322277 -1.570242,0.823827 -2.562421,2.099712 -4.161505,2.563834 -5.212461,1.512878 -0.648068,-0.648068 -0.657076,-0.855368 -0.06615,-1.522189 0.363365,-0.41003 9.388337,-8.472095 16.272572,-14.536393 1.07948,-0.950909 1.793171,-1.074301 2.893471,-0.50026 0.699648,0.365016 0.863476,0.259945 9.893226,-6.345043 5.049989,-3.693913 9.215765,-6.750174 9.257282,-6.791691 0.04152,-0.04152 -0.975946,-1.502978 -2.261027,-3.247693 -1.711045,-2.323032 -2.263827,-3.260742 -2.064991,-3.502936 0.149336,-0.181901 0.385266,-0.330728 0.524289,-0.330728 0.139023,0 1.625067,1.020502 3.302319,2.267781 1.677252,1.24728 3.189788,2.321597 3.361191,2.38737 0.171403,0.06577 1.782222,-0.964413 3.579598,-2.289303 2.911263,-2.14596 3.311473,-2.36538 3.666593,-2.010259 0.35512,0.355122 0.16347,0.718765 -1.75589,3.331589 -1.18499,1.613127 -2.183872,3.044064 -2.21974,3.179861 -0.03587,0.135798 4.03651,3.276388 9.04972,6.97909 l 9.11494,6.732185 0.86376,-0.411898 c 0.59315,-0.282858 1.02542,-0.335767 1.3798,-0.168886 0.28382,0.133657 4.39564,3.743785 9.13737,8.022508 9.23176,8.330318 9.44248,8.583256 7.84073,9.411556 -1.48588,0.768379 -2.63145,0.346983 -5.10711,-1.878655 -0.54612,-0.490965 -1.17365,-0.892664 -1.39451,-0.892664 -0.22086,0 -0.78606,0.558658 -1.25601,1.241463 -1.3751,1.997965 -2.58254,3.24237 -4.23467,4.364311 -0.85098,0.577886 -1.61373,1.223989 -1.695,1.435785 -0.0844,0.220049 0.35893,1.033156 1.03453,1.897262 0.65026,0.831698 1.31943,1.77224 1.48703,2.090094 0.39874,0.756211 0.39101,2.537249 -0.0128,2.941028 -0.7234,0.723398 -1.45613,0.320936 -3.39601,-1.865305 -1.06526,-1.200542 -2.06448,-2.326226 -2.2205,-2.501521 -0.20515,-0.230489 -0.28543,0.208962 -0.29002,1.587494 -0.0117,3.514163 -2.21546,6.855424 -5.55857,8.427656 -3.91077,1.839196 -8.93848,0.856144 -12.68095,-2.479467 -0.80604,-0.718405 -1.46552,-1.230397 -1.46552,-1.13776 0,0.476416 2.10756,5.183595 3.6751,8.208236 6.80853,13.137423 18.15243,26.803856 28.73623,34.619657 2.50474,1.84967 6.68441,4.10474 7.80518,4.21114 0.62618,0.0594 0.6592,-0.004 0.61924,-1.18673 -0.0291,-0.86157 -0.46843,-2.21702 -1.41495,-4.36561 -1.99328,-4.5247 -2.49251,-6.133686 -2.27045,-7.317399 0.60089,-3.203003 6.90877,-6.052325 12.45497,-5.626011 4.81594,0.370183 8.37493,2.301538 9.17753,4.980355 0.4146,1.38383 0.0705,2.430235 -2.28982,6.963635 -1.06073,2.03728 -2.12821,4.32274 -2.37219,5.0788 -0.46917,1.45392 -0.58116,3.87764 -0.27591,5.97166 0.17711,1.21503 0.14568,1.29904 -0.86369,2.30841 -0.66967,0.66967 -1.73025,2.4098 -2.94045,4.82447 -3.00458,5.99494 -6.85629,10.9766 -12.13567,15.69578 -7.75969,6.93631 -17.98433,12.51989 -29.57078,16.14831 -1.74624,0.54685 -3.53217,1.21179 -3.96873,1.47764 -0.43656,0.26585 -1.1338,0.48381 -1.54942,0.48435 -0.43768,5.7e-4 -1.17318,0.33167 -1.74784,0.78681 -1.832991,1.45175 -3.193533,1.67412 -4.904793,0.80167 z m 12.90985,-24.20429 c 11.34564,-1.95274 19.80148,-5.93752 25.79863,-12.1575 2.23957,-2.32279 4.55072,-5.41993 4.55072,-6.09837 0,-0.1822 -0.89575,-0.65798 -1.99055,-1.05728 -6.8063,-2.48239 -17.12298,-11.55499 -26.93562,-23.687457 l -0.74815,-0.925029 0.11135,4.014872 c 0.1022,3.685065 0.0726,4.025018 -0.361,4.138394 -0.25979,0.06794 -0.53877,0.0571 -0.61996,-0.02409 -0.0812,-0.08119 -0.14761,-1.258857 -0.14761,-2.617046 0,-2.219472 -0.0492,-2.469434 -0.48575,-2.469434 -0.44828,0 -0.47622,0.214293 -0.36219,2.778114 0.11727,2.636886 0.0968,2.778113 -0.40203,2.778113 -0.45583,0 -0.54798,-0.237047 -0.69426,-1.78593 -0.0928,-0.982262 -0.16952,-2.232413 -0.17055,-2.778114 -0.001,-0.73683 -0.11203,-0.992183 -0.42986,-0.992183 -0.37375,0 -0.41566,0.360451 -0.33073,2.844259 0.0923,2.700289 0.0705,2.844259 -0.43191,2.844259 -0.48246,0 -0.53502,-0.198505 -0.59552,-2.248949 -0.0795,-2.695449 -0.24231,-3.513073 -0.671,-3.370154 -0.23177,0.07727 -0.29543,0.854554 -0.22906,2.796909 0.0862,2.524192 0.06,2.689903 -0.42533,2.689903 -0.43873,0 -0.54304,-0.24685 -0.68722,-1.626305 -0.0935,-0.894468 -0.16998,-2.085088 -0.16998,-2.645823 0,-0.762276 -0.10786,-1.019517 -0.42747,-1.019517 -0.36973,0 -0.4144,0.33056 -0.33073,2.447386 0.091,2.303243 0.0656,2.447386 -0.43242,2.447386 -0.48059,0 -0.54414,-0.230732 -0.6922,-2.513532 -0.0897,-1.382442 -0.32261,-3.019505 -0.517658,-3.637919 -0.49252,-1.561605 -0.01782,-3.769823 1.112848,-5.176787 l 0.83555,-1.039738 -2.444015,-8.363134 c -1.34421,-4.599723 -2.601994,-8.722526 -2.795077,-9.161782 -0.344099,-0.782817 -0.351856,-0.767178 -0.391273,0.788844 -0.02212,0.873121 -0.129872,4.975984 -0.239454,9.117473 l -0.199241,7.529979 0.868621,0.86862 c 1.001864,1.001864 1.539491,2.670561 1.298339,4.029806 -0.09208,0.518987 -0.234154,2.342592 -0.315727,4.052455 -0.134661,2.822659 -0.194461,3.108841 -0.649611,3.108841 -0.458588,0 -0.501297,-0.225416 -0.501297,-2.645822 0,-2.14832 -0.07294,-2.645823 -0.387922,-2.645823 -0.312127,0 -0.402595,0.555733 -0.463019,2.84426 -0.06978,2.642838 -0.11257,2.844259 -0.604261,2.844259 -0.491928,0 -0.534463,-0.201485 -0.604454,-2.86326 -0.0553,-2.102967 -0.160681,-2.834935 -0.396874,-2.756589 -0.219086,0.07267 -0.345519,1.006355 -0.39668,2.929406 -0.0693,2.604693 -0.115281,2.822734 -0.595311,2.822734 -0.485701,0 -0.520213,-0.193081 -0.520213,-2.910405 0,-2.410638 -0.06815,-2.910405 -0.396873,-2.910405 -0.327578,0 -0.396874,0.485068 -0.396874,2.778114 v 2.778114 h -0.661455 -0.661456 v -2.800162 c 0,-2.122217 -0.08007,-2.773617 -0.330728,-2.690521 -0.226897,0.07522 -0.354502,0.912788 -0.406454,2.667871 -0.06708,2.266116 -0.130505,2.558229 -0.555452,2.558229 -0.436406,0 -0.493395,-0.374528 -0.631105,-4.147579 -0.17688,-4.846232 -0.0098,-5.512754 1.809858,-7.218237 0.729862,-0.684082 1.17221,-1.328859 1.17221,-1.708644 0,-0.335478 0.06814,-1.192123 0.151424,-1.903654 l 0.151425,-1.293694 -1.167356,2.38124 c -3.994113,8.147426 -9.470084,15.349861 -18.104623,23.812648 -4.543138,4.45277 -4.422433,4.20582 -3.652278,7.47222 0.571183,2.42251 1.771957,4.87691 3.081083,6.29777 1.485617,1.61241 6.062063,5.56243 8.77562,7.57441 2.492264,1.8479 6.167076,3.68842 8.808398,4.41166 2.327894,0.63741 5.043155,0.52609 6.535213,-0.26793 1.188369,-0.63241 3.238004,-0.69627 4.334342,-0.13504 0.4092,0.20947 1.22025,0.46178 1.80233,0.56068 0.58209,0.0989 1.35599,0.34688 1.71979,0.55107 0.84059,0.47181 0.41432,0.49527 4.84009,-0.26646 z m -25.855483,-5.84469 c -0.561108,-0.56111 -0.520599,-1.40505 0.113392,-2.36234 0.501735,-0.7576 0.525757,-1.26072 0.527421,-11.04631 9.59e-4,-5.63891 -0.09165,-10.25256 -0.205793,-10.25256 -0.316078,0 -1.115375,-1.4693 -1.115375,-2.05033 0,-1.18636 0.761167,-1.42333 5.077729,-1.58088 7.372721,-0.26909 10.229152,0.81718 11.862648,4.51125 1.222911,2.76556 0.473503,6.04048 -1.887644,8.24906 -0.71195,0.66595 -1.294454,1.3836 -1.294454,1.59479 0,0.21119 0.434868,0.95056 0.966375,1.64304 1.993265,2.59695 3.796104,7.5501 3.796104,10.42946 v 1.28059 h -3.853835 c -2.150575,0 -4.080022,-0.12105 -4.365608,-0.27389 -0.668411,-0.35772 -0.660613,-1.48047 0.01739,-2.50422 0.289123,-0.43656 0.524603,-1.21047 0.523288,-1.71979 -0.0043,-1.6768 -0.700041,-4.00117 -1.410149,-4.71127 -0.592503,-0.59251 -0.759881,-0.63831 -1.349954,-0.36946 -0.662916,0.30204 -0.67359,0.35351 -0.67359,3.2474 0,2.53986 0.0721,3.03214 0.529165,3.61321 0.683819,0.86934 0.692455,2.08285 0.01739,2.44413 -0.281474,0.15064 -1.939838,0.27389 -3.685253,0.27389 -2.532208,0 -3.257499,-0.084 -3.589255,-0.41577 z m 8.45868,-15.95649 c 1.674932,-0.76082 2.502585,-1.92424 2.502585,-3.51787 0,-2.44382 -1.088566,-3.74672 -3.505715,-4.19597 l -0.992183,-0.18441 v 4.19779 c 0,4.72812 -0.05254,4.63067 1.995313,3.70046 z m 11.384993,15.95649 c -0.56111,-0.56111 -0.5206,-1.40505 0.11339,-2.36234 0.50173,-0.7576 0.52576,-1.26072 0.52742,-11.04631 9.6e-4,-5.63891 -0.0917,-10.25256 -0.20579,-10.25256 -0.31608,0 -1.11538,-1.4693 -1.11538,-2.05033 0,-1.18636 0.76117,-1.42333 5.07773,-1.58088 7.37272,-0.26909 10.22915,0.81718 11.86265,4.51125 1.22291,2.76556 0.4735,6.04048 -1.88764,8.24906 -0.71195,0.66595 -1.29446,1.3836 -1.29446,1.59479 0,0.21119 0.43487,0.95056 0.96638,1.64304 1.99326,2.59695 3.7961,7.5501 3.7961,10.42946 v 1.28059 h -3.85383 c -2.15058,0 -4.08003,-0.12105 -4.36561,-0.27389 -0.66841,-0.35772 -0.66061,-1.48047 0.0174,-2.50422 0.28912,-0.43656 0.5246,-1.21047 0.52329,-1.71979 -0.004,-1.6768 -0.70004,-4.00117 -1.41015,-4.71127 -0.5925,-0.59251 -0.75988,-0.63831 -1.34995,-0.36946 -0.66292,0.30204 -0.67359,0.35351 -0.67359,3.2474 0,2.53986 0.0721,3.03214 0.52916,3.61321 0.68382,0.86934 0.69246,2.08285 0.0174,2.44413 -0.28148,0.15064 -1.93984,0.27389 -3.68526,0.27389 -2.53221,0 -3.2575,-0.084 -3.58925,-0.41577 z m 8.45868,-15.95649 c 1.67493,-0.76082 2.50258,-1.92424 2.50258,-3.51787 0,-2.44382 -1.08856,-3.74672 -3.50571,-4.19597 l -0.99219,-0.18441 v 4.19779 c 0,4.72812 -0.0525,4.63067 1.99532,3.70046 z M 86.40485,64.123502 c 1.401903,-0.700144 5.140612,-3.847784 5.140612,-4.327909 0,-0.496815 -3.810514,-3.697882 -5.229281,-4.392918 -2.388935,-1.170311 -6.464666,-0.812908 -7.153696,0.627312 -0.871833,1.822317 -0.834954,4.823574 0.0892,7.259159 0.369726,0.974406 0.559332,1.144964 1.52929,1.37566 1.548055,0.368191 4.341072,0.09936 5.623877,-0.541304 z m 25.2215,0.228382 c 1.47207,-0.705626 2.09543,-4.932207 1.14026,-7.731278 -0.38005,-1.113711 -0.59788,-1.37285 -1.37748,-1.638706 -1.15336,-0.393315 -3.7834,-0.43093 -5.07366,-0.07256 -1.01449,0.28177 -3.20938,1.817786 -5.24505,3.670563 l -1.190616,1.083651 1.455206,1.3264 c 2.1269,1.938651 4.04823,3.201519 5.483,3.603919 1.39195,0.390389 3.73509,0.272467 4.80834,-0.241986 z M 97.969129,53.592739 c 2.882621,-3.445173 3.450541,-5.173316 2.726311,-8.296107 -0.63364,-2.732226 -0.981794,-3.236 -2.673873,-3.869088 -1.801236,-0.673928 -3.104474,-0.689008 -4.491738,-0.05197 -1.448343,0.665082 -1.892622,1.240999 -2.36939,3.071433 -0.930213,3.571332 -0.401752,5.576893 2.36939,8.99206 2.087924,2.573165 2.405676,2.584165 4.4393,0.153676 z m 28.302761,-6.209462 c 0.55432,-0.417517 0.99218,-0.97596 0.99218,-1.265426 0,-0.656198 -1.38888,-2.064902 -2.03585,-2.064902 -0.27108,0 -1.26537,0.857147 -2.2308,1.923096 -0.95796,1.057704 -2.40827,2.456682 -3.22293,3.108842 -0.89651,0.717692 -1.4838,1.394623 -1.48782,1.714909 -0.009,0.699204 0.74536,1.634869 1.5691,1.946825 0.60557,0.229334 0.86264,0.04492 3.04269,-2.182767 1.30968,-1.338296 2.82772,-2.769555 3.37343,-3.180577 z m -54.075376,4.72781 c 1.459747,-1.228296 1.402179,-1.359267 -2.192454,-4.987968 -1.9932,-2.01209 -3.509132,-3.334753 -3.822033,-3.334753 -0.559488,0 -1.888539,1.398966 -1.888539,1.987885 0,0.197885 0.824305,1.09781 1.83179,1.999833 1.007485,0.902024 2.458672,2.397851 3.22486,3.324061 0.766188,0.92621 1.540085,1.684018 1.71977,1.684018 0.179685,0 0.686658,-0.302884 1.126606,-0.673076 z M 86.86417,50.24511 c -0.319165,-0.724599 -0.455615,-1.743413 -0.457242,-3.414048 -0.0021,-2.11263 0.09018,-2.578669 0.817708,-4.131456 1.006073,-2.147296 3.226441,-4.416077 5.331582,-5.447831 3.163524,-1.550479 6.528417,-0.740843 9.572532,2.303275 2.13447,2.134472 2.94458,3.913324 3.10499,6.818012 0.10367,1.877441 0.0301,2.564341 -0.39303,3.667734 l -0.5206,1.357657 1.21942,-0.542637 c 1.45481,-0.647389 4.73099,-0.905103 6.2332,-0.490323 0.57302,0.158218 1.06609,0.261131 1.09572,0.228695 0.0296,-0.03244 -0.95086,-1.190063 -2.17886,-2.572506 -1.228,-1.382442 -2.29884,-2.775837 -2.37965,-3.096433 -0.0808,-0.320596 0.0427,-0.963055 0.2745,-1.427687 l 0.42144,-0.844786 -3.12481,-4.26575 c -1.71864,-2.346163 -4.60544,-6.311125 -6.415112,-8.811028 -1.809668,-2.499902 -3.355912,-4.551508 -3.436098,-4.559124 -0.08019,-0.0076 -3.090338,3.975389 -6.689227,8.851123 -5.589656,7.5728 -6.503627,8.939353 -6.270329,9.375276 0.66253,1.237949 0.348656,1.914609 -2.216504,4.778409 -1.368625,1.527963 -2.469518,2.798118 -2.446429,2.822567 0.02309,0.02445 0.696662,-0.13246 1.496827,-0.348687 1.812181,-0.489703 4.562422,-0.318925 6.135901,0.381013 0.626866,0.278852 1.171084,0.48323 1.209374,0.454173 0.03829,-0.02906 -0.135096,-0.517594 -0.385303,-1.085638 z M 76.795,46.742776 c 0.400181,-0.369694 0.727601,-0.879844 0.727601,-1.133665 0,-0.253822 -0.702789,-1.072762 -1.561754,-1.819867 -0.858965,-0.747105 -2.078081,-2.005432 -2.709145,-2.796283 -0.738733,-0.925781 -1.346663,-1.437911 -1.706889,-1.437911 -0.721587,0 -1.95968,1.146285 -1.95968,1.814364 0,0.706502 5.559449,6.348618 6.085392,6.17588 0.218281,-0.07169 0.724294,-0.432824 1.124475,-0.802518 z m 42.5237,-1.899968 c 3.18584,-3.145682 3.30274,-3.415925 1.94095,-4.487109 -1.04462,-0.8217 -1.52033,-0.663642 -2.96537,0.985282 -0.73328,0.836741 -1.9908,2.057127 -2.79449,2.711968 -0.80368,0.654841 -1.46205,1.408137 -1.46304,1.673991 -0.002,0.579046 1.38289,2.03016 1.93773,2.03016 0.216,0 1.7209,-1.311431 3.34422,-2.914292 z"
       id="path19" /><path
       style="fill:#000000;fill-opacity:1"
       d="m 95.646487,158.5033 c -2.910105,-1.12818 -3.431799,-1.28425 -4.63019,-1.38525 -6.503654,-0.54807 -11.119935,-1.56438 -16.699884,-3.67659 -10.026016,-3.79521 -19.369907,-9.70515 -26.308922,-16.64021 -5.943222,-5.93984 -8.014593,-9.72049 -12.465909,-22.75271 -2.503562,-7.32973 -2.918146,-8.34677 -4.392584,-10.77566 -1.667449,-2.74685 -2.059578,-4.007431 -1.754527,-5.640291 0.753102,-4.031157 5.886567,-7.201607 13.996453,-8.64427 3.968053,-0.705874 11.484509,-0.757176 15.693199,-0.10711 5.587503,0.863034 9.909158,2.53153 12.017206,4.639578 2.215057,2.215056 2.205115,4.23554 -0.04208,8.553013 -1.402577,2.69472 -1.453687,2.85456 -0.75332,2.35585 0.413238,-0.29425 1.94703,-1.82529 3.408425,-3.40232 9.819237,-10.596145 15.005456,-19.983509 17.955499,-32.500523 0.480153,-2.037283 0.82902,-3.751926 0.77526,-3.810317 -0.05376,-0.05839 -0.698066,0.455364 -1.431791,1.141678 -4.447067,4.159711 -12.157095,4.433644 -16.021504,0.569236 -2.075427,-2.075427 -3.238681,-5.917911 -2.548343,-8.417742 0.150697,-0.5457 0.251159,-0.992183 0.223249,-0.992183 -0.02791,0 -1.11187,1.198204 -2.408799,2.662676 -2.488165,2.809597 -3.030974,3.251902 -3.68352,3.001497 -0.552405,-0.211978 -1.036067,-1.796021 -0.832032,-2.72499 0.09219,-0.419725 0.819779,-1.516213 1.61687,-2.436641 0.797091,-0.920428 1.414718,-1.852848 1.372505,-2.072045 -0.04221,-0.219197 -0.990013,-1.084765 -2.106221,-1.923483 -1.429218,-1.073914 -2.436134,-2.113204 -3.404418,-3.513876 -0.756222,-1.093914 -1.427437,-1.988935 -1.491589,-1.988935 -0.299911,0 -1.380817,0.704784 -2.463092,1.606011 -1.461443,1.216968 -3.003764,1.725859 -4.034879,1.331316 -1.66985,-0.638946 -1.292749,-1.085251 7.724336,-9.141879 4.648565,-4.153423 8.736154,-7.681176 9.083531,-7.839451 0.48542,-0.221172 0.859894,-0.192384 1.618035,0.124387 l 0.986441,0.412162 8.913806,-6.508446 c 4.902593,-3.579645 9.06762,-6.651634 9.255614,-6.826643 0.274841,-0.255855 -0.104996,-0.927246 -1.938725,-3.426845 -1.424439,-1.941687 -2.222338,-3.260303 -2.125508,-3.512637 0.216728,-0.564783 0.495083,-0.413736 3.953803,2.145491 1.685752,1.247347 3.194344,2.267904 3.352424,2.267904 0.158081,0 1.733504,-1.071906 3.500941,-2.382013 2.728453,-2.022461 3.268493,-2.327034 3.577743,-2.017784 0.30925,0.309251 0.0163,0.832135 -1.94095,3.46408 -1.934444,2.601299 -2.246697,3.155332 -1.941502,3.444826 0.737268,0.699337 18.015292,13.365827 18.231972,13.365827 0.1234,0 0.29795,-0.119063 0.38789,-0.264583 0.0899,-0.14552 0.56609,-0.264582 1.05811,-0.264582 0.80085,0 1.8043,0.821115 9.5755,7.835507 4.77449,4.30953 8.7211,8.009311 8.77023,8.221736 0.17913,0.77441 -0.76258,1.405186 -2.09784,1.405186 -1.15616,0 -1.40882,-0.125832 -2.93554,-1.461994 -1.02721,-0.898991 -1.86974,-1.433907 -2.18786,-1.389057 -0.28455,0.04011 -0.91462,0.608716 -1.40016,1.263557 -1.94446,2.622451 -2.29245,2.978625 -4.05604,4.15133 -1.11292,0.740045 -1.83163,1.401034 -1.83163,1.684539 0,0.256623 0.46217,1.051274 1.02704,1.765891 1.87813,2.376013 2.37242,4.042173 1.46759,4.946998 -0.68746,0.687463 -1.15746,0.488297 -2.60895,-1.105575 -0.762,-0.836742 -1.82878,-1.997596 -2.37062,-2.579677 l -0.98517,-1.058329 0.16445,0.841071 c 0.2351,1.202402 -0.28589,3.688161 -1.11809,5.334634 -0.93568,1.851233 -3.11129,3.822124 -4.9986,4.528258 -2.65417,0.993051 -6.52831,0.660775 -9.41034,-0.807102 -0.53536,-0.272671 -1.69621,-1.097312 -2.57968,-1.832535 -0.88346,-0.735224 -1.606283,-1.218691 -1.606283,-1.074373 0,0.144319 0.545863,1.547638 1.213023,3.118487 5.59641,13.176779 17.69136,28.98532 29.17729,38.135785 4.02991,3.21049 8.58189,5.8352 10.15692,5.85657 1.03296,0.014 0.50625,-2.35346 -1.53536,-6.90118 -1.77713,-3.95858 -2.06195,-4.998912 -1.71816,-6.27566 0.41087,-1.525874 1.31252,-2.475606 3.37853,-3.558724 2.49134,-1.306092 4.74348,-1.843341 7.74631,-1.84788 5.34436,-0.0081 9.49052,2.020353 10.30389,5.040997 0.36274,1.347094 0.13486,2.047707 -1.97961,6.086367 -2.22039,4.24096 -2.73259,5.53186 -3.15515,7.95195 -0.29033,1.66277 -0.28301,2.05819 0.0505,2.72664 0.57435,1.15131 0.22849,2.50452 -0.93136,3.64408 -0.56973,0.55977 -1.57916,2.20995 -2.47673,4.04889 -0.83328,1.70721 -2.07322,3.96939 -2.75542,5.02706 -7.74221,12.00331 -21.24447,21.49046 -38.48779,27.04282 -1.99313,0.64179 -4.08464,1.41385 -4.6478,1.71569 -0.56317,0.30183 -1.39419,0.54879 -1.84674,0.54879 -0.50757,0 -1.0159,0.21705 -1.32683,0.56653 -0.59292,0.66645 -2.394548,1.5419 -3.149841,1.53057 -0.29104,-0.004 -1.243536,-0.28488 -2.116658,-0.62337 z m 3.571861,-0.96858 c 0.509321,-0.30317 1.074862,-0.74219 1.256762,-0.97562 0.2519,-0.32325 0.33073,-2.92722 0.33073,-10.92474 0,-11.88364 0.15179,-11.10463 -2.201696,-11.29979 -1.073483,-0.089 -1.500464,-0.006 -1.942762,0.37643 -0.556964,0.48195 -0.569984,0.6836 -0.743662,11.51848 l -0.176774,11.02795 0.746518,0.40464 c 1.016471,0.55097 1.64015,0.52188 2.730884,-0.12735 z m -4.436841,-8.17803 c 0.03358,-4.22009 0.06335,-9.07187 0.06614,-10.78173 l 0.0051,-3.10884 -1.124474,-0.0814 -1.124475,-0.0814 0.03449,5.63759 c 0.01897,3.10067 0.108268,7.89467 0.198436,10.65334 l 0.163944,5.01577 0.661455,0.18336 c 0.363801,0.10085 0.750752,0.19523 0.859893,0.20974 0.10914,0.0145 0.225912,-3.42643 0.259494,-7.64651 z m -3.12029,5.75466 c -0.0091,-0.40018 -0.03886,-4.95204 -0.06615,-10.11523 l -0.04961,-9.38763 -0.727601,-0.16069 c -2.791068,-0.61639 -6.44019,-2.18053 -9.194234,-3.94097 -1.894694,-1.21113 -5.660815,-4.27701 -8.647266,-7.03947 -2.162989,-2.00076 -2.741142,-2.71531 -3.623655,-4.47852 -0.577527,-1.15386 -1.24743,-2.98512 -1.488674,-4.06947 l -0.438625,-1.97153 -0.92436,0.62729 c -2.958049,2.00738 -9.620552,3.28195 -17.203458,3.2911 -4.897411,0.006 -7.651375,-0.30743 -10.217509,-1.16253 -1.521638,-0.50705 -1.772026,-0.53451 -1.629638,-0.17872 0.09253,0.23121 0.522094,1.41427 0.954584,2.62904 1.139246,3.19987 2.692074,6.63595 4.109274,9.09296 5.548936,9.62021 19.528335,19.87556 33.802093,24.79736 5.588121,1.92687 10.391898,2.92712 13.641575,2.84047 1.692997,-0.0451 1.719528,-0.0572 1.703249,-0.77346 z m 11.807843,0.586 c 0.49174,-0.26317 0.51177,-0.655 0.51177,-10.01166 v -9.73776 l -0.67391,-0.30705 c -1.5163,-0.69088 -1.44275,-1.20127 -1.44275,10.01165 0,10.25179 0.004,10.31871 0.54656,10.31871 0.30061,0 0.77685,-0.12325 1.05833,-0.27389 z m 5.57637,-2.1292 c 17.6488,-5.83042 31.50475,-16.0651 38.52027,-28.45296 1.4342,-2.53248 2.86116,-5.60036 2.68624,-5.77528 -0.0891,-0.0892 -6.77524,-1.79398 -9.26621,-2.36272 -0.6315,-0.14418 -0.80757,0.0107 -1.84657,1.62418 -1.71612,2.66504 -6.50436,7.36603 -9.49385,9.32087 -5.74997,3.75992 -12.45727,6.21015 -20.99444,7.66943 -1.72432,0.29475 -3.24236,0.5359 -3.37342,0.5359 -0.13679,0 -0.23829,3.94436 -0.23829,9.26038 0,7.73531 0.0607,9.26038 0.36826,9.26038 0.20255,0 1.83965,-0.48608 3.63801,-1.08018 z m -0.45927,-19.02382 c 11.22375,-1.9188 19.77636,-5.83811 25.68934,-11.77237 2.26948,-2.27765 4.92486,-5.82344 4.99448,-6.66925 0.0214,-0.25951 -0.47556,-0.55501 -1.44348,-0.85838 -6.22781,-1.95194 -16.2476,-10.3294 -25.18032,-21.053044 -1.4546,-1.746243 -2.77899,-3.319906 -2.94308,-3.497029 -0.22216,-0.239815 -0.27814,0.722863 -0.21925,3.770297 0.0657,3.401066 0.0154,4.092339 -0.29766,4.092339 -0.46644,0 -0.70746,-1.13267 -0.70746,-3.324736 0,-1.720041 -0.16626,-2.090138 -0.77103,-1.716368 -0.27275,0.168566 -0.30707,0.799955 -0.15726,2.892947 0.1866,2.60721 0.17702,2.677321 -0.36608,2.677321 -0.51185,0 -0.55795,-0.146844 -0.56062,-1.78593 -0.004,-2.42517 -0.25125,-3.770297 -0.69316,-3.770297 -0.28362,0 -0.36226,0.603062 -0.36226,2.778114 0,2.180799 -0.0782,2.778113 -0.3638,2.778113 -0.46967,0 -0.69453,-1.167124 -0.69453,-3.604933 0,-1.814265 -0.0396,-1.951294 -0.56324,-1.951294 -0.54906,0 -0.55859,0.06579 -0.37821,2.610081 0.17689,2.495061 0.16091,2.616395 -0.36279,2.753344 -0.50729,0.132659 -0.54783,0.03033 -0.54783,-1.382533 0,-2.356288 -0.28462,-3.980892 -0.69742,-3.980892 -0.2795,0 -0.36091,0.566986 -0.36091,2.513531 0,1.963678 -0.0801,2.513532 -0.36602,2.513532 -0.49587,0 -0.6844,-0.836542 -0.6887,-3.055925 -0.002,-1.025918 -0.13011,-1.991809 -0.28473,-2.146424 -0.412728,-0.412729 -0.342518,-3.584339 0.10295,-4.650491 0.21124,-0.505561 0.68932,-1.204153 1.06242,-1.552427 l 0.67835,-0.633226 -2.493361,-8.484025 c -1.371346,-4.666214 -2.66299,-8.887464 -2.870319,-9.380556 l -0.376963,-0.896529 -0.150664,1.972252 c -0.08286,1.084739 -0.218478,5.251603 -0.301362,9.2597 l -0.150699,7.287447 0.695738,0.65002 c 1.526747,1.426423 1.583503,1.772147 1.290318,7.859887 -0.154511,3.208295 -0.211474,3.505714 -0.671429,3.505714 -0.460231,0 -0.502594,-0.223013 -0.502594,-2.645822 0,-2.175454 -0.07055,-2.645823 -0.396873,-2.645823 -0.327578,0 -0.396874,0.485068 -0.396874,2.778114 0,2.601726 -0.0336,2.778114 -0.529164,2.778114 -0.495567,0 -0.529165,-0.176388 -0.529165,-2.778114 0,-2.601725 -0.0336,-2.778114 -0.529164,-2.778114 -0.497094,0 -0.529165,0.176389 -0.529165,2.910405 0,2.734017 -0.03207,2.910405 -0.529164,2.910405 -0.497094,0 -0.529165,-0.176388 -0.529165,-2.910405 0,-2.410638 -0.06815,-2.910405 -0.396873,-2.910405 -0.327578,0 -0.396874,0.485068 -0.396874,2.778114 0,2.601726 -0.0336,2.778114 -0.529164,2.778114 -0.495567,0 -0.529165,-0.176388 -0.529165,-2.778114 0,-2.601725 -0.0336,-2.778114 -0.529164,-2.778114 -0.493887,0 -0.529165,0.176389 -0.529165,2.645823 0,2.469434 -0.03528,2.645822 -0.529164,2.645822 -0.497122,0 -0.532776,-0.196263 -0.588792,-3.241132 -0.03279,-1.782623 -0.04491,-3.728136 -0.02693,-4.323362 0.04239,-1.402911 0.907059,-3.075049 2.035007,-3.935377 0.831248,-0.634024 0.91479,-0.837618 1.172702,-2.8579 0.152732,-1.196384 0.251409,-2.201529 0.219283,-2.233656 -0.03213,-0.03213 -0.911016,1.633982 -1.953087,3.702463 -3.817139,7.576916 -8.11509,13.260614 -16.189304,21.409064 -5.311737,5.36058 -5.425828,5.49884 -5.348951,6.48227 0.265599,3.39754 1.849698,7.18934 3.811187,9.12271 4.282086,4.22069 10.059044,8.59972 13.52611,10.25303 3.894193,1.85699 7.818623,2.23897 10.437689,1.01595 1.322096,-0.61738 3.121473,-0.5584 4.539044,0.14877 0.48549,0.2422 1.19184,0.44458 1.56966,0.44973 0.37782,0.005 0.98461,0.17953 1.34841,0.3875 0.87365,0.49943 1.25886,0.4893 4.86991,-0.12804 z m -15.923498,-5.97235 c -0.7261,-0.50858 -0.74063,-1.05439 -0.05788,-2.1742 0.631281,-1.03539 0.683586,-2.75955 0.145092,-4.78269 -0.432882,-1.62635 -1.041297,-2.42078 -1.853956,-2.42078 -1.031925,0 -1.202491,0.48569 -1.203265,3.42634 -6.28e-4,2.38602 0.08569,2.95451 0.594445,3.91504 0.989182,1.86758 0.701726,2.03721 -3.600904,2.12492 l -3.61189,0.0736 -0.29767,-0.65331 c -0.246117,-0.54017 -0.199901,-0.81902 0.266846,-1.6101 0.550044,-0.93226 0.564516,-1.21879 0.564516,-11.17717 0,-9.72379 -0.02476,-10.24693 -0.509551,-10.7666 -0.812066,-0.8705 -0.946975,-1.86781 -0.335397,-2.47939 1.167677,-1.16767 10.593575,-1.02231 12.990156,0.20034 4.518456,2.30514 5.348816,7.95343 1.704941,11.5973 -0.77813,0.77813 -1.414782,1.59404 -1.414782,1.81314 0,0.21909 0.530653,1.14199 1.179229,2.05089 1.873963,2.62613 3.097268,5.89626 3.454878,9.23558 l 0.18118,1.69186 -2.209205,0.17195 c -3.634106,0.28287 -5.341315,0.21536 -5.986781,-0.23674 z m 6.879864,-1.96937 c -0.160926,-2.63569 -1.8919,-6.90339 -3.612085,-8.90556 -0.782661,-0.91096 -0.945409,-1.30643 -0.945409,-2.29727 0,-0.92528 0.109329,-1.23158 0.481796,-1.34979 0.264987,-0.0841 0.878279,-0.53861 1.362871,-1.01001 2.599811,-2.52906 2.466198,-6.66666 -0.291509,-9.02716 -1.595936,-1.36606 -2.883672,-1.62138 -8.101551,-1.60627 -5.173836,0.015 -5.655888,0.16429 -4.482944,1.38858 l 0.712628,0.74382 v 10.61983 c 0,10.3111 -0.01614,10.6472 -0.555299,11.561 l -0.555299,0.94116 h 3.068831 c 1.687856,0 3.06883,-0.10061 3.06883,-0.22357 0,-0.12297 -0.238124,-0.43908 -0.529164,-0.70247 -0.477031,-0.4317 -0.529165,-0.8149 -0.529165,-3.88947 0,-3.26835 0.02709,-3.43768 0.649429,-4.06002 1.314009,-1.31401 3.335491,-0.45795 4.243347,1.79697 0.249217,0.619 0.516677,2.03678 0.594356,3.15062 0.124031,1.77848 0.07238,2.12185 -0.424,2.81896 -0.957991,1.34537 -0.854054,1.39647 2.6759,1.31556 l 3.241132,-0.0743 z M 88.370475,108.83858 v -5.32866 l 1.466979,0.15141 c 3.074331,0.3173 4.877536,1.92333 5.282189,4.7046 0.429276,2.95051 -2.25273,5.78053 -5.492402,5.7955 l -1.256766,0.006 z m 3.855517,3.4648 c 1.28411,-0.79362 2.061581,-2.3926 1.849855,-3.80449 -0.320066,-2.13435 -1.487022,-3.32267 -3.664002,-3.73108 l -0.983041,-0.18442 v 4.29738 4.29738 l 0.936887,-0.15203 c 0.515288,-0.0836 1.352424,-0.40885 1.860301,-0.72274 z m 20.280338,16.2686 c -0.7261,-0.50858 -0.74063,-1.05439 -0.0579,-2.1742 0.63128,-1.03539 0.68359,-2.75955 0.14509,-4.78269 -0.43288,-1.62635 -1.04129,-2.42078 -1.85395,-2.42078 -1.03193,0 -1.20249,0.48569 -1.20327,3.42634 -6.3e-4,2.38602 0.0857,2.95451 0.59445,3.91504 0.98918,1.86758 0.70172,2.03721 -3.60091,2.12492 l -3.61189,0.0736 -0.29767,-0.65331 c -0.24611,-0.54017 -0.1999,-0.81902 0.26685,-1.6101 0.55004,-0.93226 0.56451,-1.21879 0.56451,-11.17717 0,-9.72379 -0.0247,-10.24693 -0.50955,-10.7666 -0.81206,-0.8705 -0.94697,-1.86781 -0.33539,-2.47939 1.16767,-1.16767 10.59357,-1.02231 12.99015,0.20034 4.51846,2.30514 5.34882,7.95343 1.70494,11.5973 -0.77813,0.77813 -1.41478,1.59404 -1.41478,1.81314 0,0.21909 0.53065,1.14199 1.17923,2.05089 1.87396,2.62613 3.09727,5.89626 3.45488,9.23558 l 0.18118,1.69186 -2.20921,0.17195 c -3.6341,0.28287 -5.34131,0.21536 -5.98678,-0.23674 z m 6.87987,-1.96937 c -0.16093,-2.63569 -1.8919,-6.90339 -3.61209,-8.90556 -0.78266,-0.91096 -0.94541,-1.30643 -0.94541,-2.29727 0,-0.92528 0.10933,-1.23158 0.4818,-1.34979 0.26499,-0.0841 0.87828,-0.53861 1.36287,-1.01001 2.59981,-2.52906 2.4662,-6.66666 -0.29151,-9.02716 -1.59594,-1.36606 -2.88367,-1.62138 -8.10155,-1.60627 -5.17384,0.015 -5.65589,0.16429 -4.48294,1.38858 l 0.71262,0.74382 v 10.61983 c 0,10.3111 -0.0161,10.6472 -0.5553,11.561 l -0.55529,0.94116 h 3.06883 c 1.68785,0 3.06883,-0.10061 3.06883,-0.22357 0,-0.12297 -0.23813,-0.43908 -0.52917,-0.70247 -0.47703,-0.4317 -0.52916,-0.8149 -0.52916,-3.88947 0,-3.26835 0.0271,-3.43768 0.64943,-4.06002 1.31401,-1.31401 3.33549,-0.45795 4.24334,1.79697 0.24922,0.619 0.51668,2.03678 0.59436,3.15062 0.12403,1.77848 0.0724,2.12185 -0.424,2.81896 -0.95799,1.34537 -0.85405,1.39647 2.6759,1.31556 l 3.24113,-0.0743 z m -11.17205,-17.76403 v -5.32866 l 1.46697,0.15141 c 3.07434,0.3173 4.87754,1.92333 5.28219,4.7046 0.42928,2.95051 -2.25273,5.78053 -5.4924,5.7955 l -1.25676,0.006 z m 3.85551,3.4648 c 1.28411,-0.79362 2.06158,-2.3926 1.84986,-3.80449 -0.32007,-2.13435 -1.48702,-3.32267 -3.664,-3.73108 l -0.98305,-0.18442 v 4.29738 4.29738 l 0.93689,-0.15203 c 0.51529,-0.0836 1.35243,-0.40885 1.8603,-0.72274 z m 40.04594,5.13546 c 0.5599,-0.7118 0.69737,-1.56935 0.34131,-2.12924 -0.10942,-0.17207 -2.63666,-0.92452 -5.61609,-1.67211 l -5.41715,-1.35925 -0.59753,0.69467 c -0.6319,0.73463 -0.82158,2.34755 -0.31303,2.66185 0.48902,0.30224 9.32862,2.44206 10.21343,2.4724 0.61404,0.0211 0.98853,-0.15913 1.38906,-0.66832 z m -93.907505,-1.29073 c 4.566469,-0.81814 8.389725,-2.3488 8.883306,-3.55648 0.288967,-0.70703 0.44315,-3.07622 0.181569,-2.78999 -0.19918,0.21794 -0.682785,0.89032 -2.350369,3.26781 -0.03581,0.0511 -1.142438,-0.5145 -2.459178,-1.25677 -1.31674,-0.74227 -2.466805,-1.34959 -2.555701,-1.34959 -0.0889,0 -1.20379,0.9525 -2.477543,2.11666 -1.273752,1.16416 -2.398272,2.11666 -2.498933,2.11666 -0.10066,0 -1.252316,-0.71899 -2.559235,-1.59776 -1.306919,-0.87877 -2.548003,-1.66369 -2.757965,-1.74426 -0.224033,-0.086 -1.390672,0.63433 -2.823833,1.74347 l -2.442083,1.88996 -2.230364,-2.23037 -2.230363,-2.23036 -1.839861,1.06076 c -1.692133,0.97559 -1.825974,1.11641 -1.666913,1.75393 0.09512,0.38125 0.358459,0.89904 0.585196,1.15065 0.604531,0.67085 3.059897,1.51499 5.629247,1.9353 3.063854,0.5012 12.164574,0.33821 15.613023,-0.27962 z m 80.965785,-2.04701 c 0.002,-0.1819 0.0686,-0.57255 0.14801,-0.86812 0.12112,-0.45078 -0.0721,-0.61525 -1.1988,-1.0204 -0.73876,-0.26565 -2.38293,-1.13489 -3.65372,-1.93163 -9.68948,-6.075 -21.05874,-18.439431 -29.05523,-31.598473 -1.99505,-3.283064 -5.10388,-9.521285 -6.348214,-12.738409 -0.890359,-2.301949 -1.058627,-2.564791 -1.547746,-2.417648 -0.30183,0.0908 -0.634521,0.243401 -0.739314,0.339114 -0.2733,0.249621 1.193812,4.9735 2.317718,7.462702 2.029416,4.494711 6.484916,12.003087 9.601106,16.179721 3.70591,4.967044 6.7579,8.511502 11.41464,13.256523 6.47164,6.59432 10.97084,10.17164 15.73146,12.50809 2.41839,1.18692 3.32372,1.41216 3.33009,0.82853 z m 13.10118,-1.71978 c 0.30079,-2.18925 0.66916,-3.28198 2.0012,-5.93638 0.71396,-1.42273 1.29811,-2.6311 1.29811,-2.68527 0,-0.0542 -0.58208,0.18009 -1.29351,0.52057 -1.97582,0.9456 -4.38909,1.41247 -7.30541,1.41332 -2.78536,8.1e-4 -4.76726,-0.39098 -6.47165,-1.27936 l -1.02622,-0.5349 0.67174,1.50597 c 1.01084,2.26619 1.66677,4.27881 1.66677,5.1142 0,0.59425 0.14901,0.78496 0.72761,0.93121 0.40018,0.10116 2.454,0.62839 4.56404,1.17162 5.11447,1.31673 4.9551,1.32354 5.16732,-0.22098 z m -105.301048,-0.82422 2.362279,-1.8164 2.73331,1.83385 2.733309,1.83385 1.453206,-1.27421 c 0.799263,-0.70082 1.918403,-1.67311 2.486977,-2.16064 l 1.033772,-0.88643 2.232892,1.21715 c 1.22809,0.66944 2.333627,1.2143 2.456748,1.21082 0.471779,-0.0133 3.097557,-4.09594 3.696626,-5.74756 0.34554,-0.95265 0.628255,-1.76906 0.628255,-1.81425 0,-0.0452 -0.684606,0.32353 -1.521348,0.81937 -1.909273,1.13139 -5.552887,2.35653 -8.807706,2.96152 -3.550577,0.65996 -12.394881,0.65786 -15.7323,-0.004 -3.418981,-0.67777 -5.826114,-1.43109 -7.886503,-2.46813 -1.543495,-0.77687 -1.760384,-0.83043 -1.516369,-0.37448 0.156608,0.29262 0.764303,1.87076 1.350432,3.50697 0.586129,1.63621 1.108985,3.01823 1.161903,3.07115 0.05292,0.0529 1.028139,-0.44931 2.167158,-1.11607 l 2.070943,-1.21228 2.11796,2.11796 c 1.164879,1.16488 2.18506,2.11796 2.267069,2.11796 0.08201,0 1.212134,-0.81738 2.511387,-1.8164 z m 29.529445,-8.94211 c 5.78273,-6.33493 9.098907,-10.964413 12.288359,-17.154919 2.797617,-5.429979 3.660321,-8.002186 5.116077,-15.253897 l 1.268297,-6.317903 -0.637066,-0.159893 c -0.350385,-0.08794 -0.666743,-0.115829 -0.703017,-0.06197 -0.03627,0.05386 -0.458284,1.883851 -0.937801,4.066654 -2.441016,11.111723 -6.610003,19.754693 -13.974693,28.971757 -0.988335,1.236922 -3.6689,4.162731 -5.956812,6.501811 l -4.159839,4.25286 -0.183415,1.56058 -0.183416,1.56058 2.431177,-2.22951 c 1.337148,-1.22623 3.871615,-3.8075 5.632149,-5.73615 z m -18.226778,4.01746 c 4.822819,-0.87693 8.567811,-2.46072 10.836593,-4.5829 1.566077,-1.46488 2.297909,-2.797803 2.507434,-4.56691 0.132602,-1.119618 0.05434,-1.45366 -0.557006,-2.377467 -1.500213,-2.266974 -5.383342,-4.014939 -11.211007,-5.04656 -3.720433,-0.658595 -11.645257,-0.801361 -15.006003,-0.270332 -5.559226,0.878409 -9.862875,2.523884 -12.27632,4.693778 -1.60409,1.442215 -2.171979,2.418434 -2.190572,3.765666 -0.06,4.347715 5.950284,7.700745 15.922095,8.882655 1.943081,0.2303 9.756567,-0.0946 11.974786,-0.49793 z m -12.084986,-2.81216 c -3.280945,-0.47851 -7.015672,-1.78734 -8.368575,-2.93275 -2.196748,-1.859828 -1.495744,-4.33396 1.684572,-5.945548 4.535924,-2.298527 14.07357,-2.891246 20.450029,-1.270871 2.435623,0.618936 5.346603,2.149427 5.9404,3.123253 0.619187,1.015468 0.658211,2.351778 0.09383,3.213136 -1.031912,1.57489 -4.388025,3.01637 -8.621312,3.70293 -2.664303,0.43209 -8.571433,0.49014 -11.178944,0.10985 z m 105.810817,0.20078 c 1.89635,-0.60272 4.11757,-2.01107 4.81976,-3.05592 0.75351,-1.121224 0.77458,-2.466957 0.0568,-3.628339 -0.80183,-1.297386 -3.73362,-2.651266 -6.53552,-3.018058 -5.98425,-0.783386 -12.91098,2.245604 -12.31499,5.385218 0.43083,2.269509 1.99685,3.671729 5.11044,4.575879 1.6005,0.46478 7.09137,0.30446 8.8635,-0.25878 z m -8.6192,-2.16996 c -2.00605,-0.61806 -2.76064,-1.920995 -1.81142,-3.127735 2.56553,-3.261541 12.67957,-2.943404 12.67957,0.398835 0,1.81541 -3.10002,3.15192 -7.23774,3.12041 -1.33073,-0.0101 -2.96442,-0.18632 -3.63041,-0.39151 z m -35.20112,-9.530858 c 0.92662,-0.312243 -0.3367,-3.830476 -1.66665,-4.641479 -0.98855,-0.602814 -2.8008,-0.648546 -3.86628,-0.09757 -1.202,0.621578 -2.0082,2.676839 -1.68475,4.294983 l 0.14544,0.727601 3.35366,-0.08029 c 1.84451,-0.04416 3.51788,-0.135622 3.71858,-0.203254 z M 96.981773,91.043387 c 0.203714,-1.085885 -0.616257,-3.143336 -1.425296,-3.576321 -0.295161,-0.157965 -1.2428,-0.28721 -2.105864,-0.28721 -1.209866,0 -1.736459,0.131561 -2.299583,0.574514 -0.844487,0.664274 -1.707988,2.405127 -1.716415,3.460365 l -0.0058,0.727601 h 3.692163 3.692162 z M 94.81208,82.905 c 0.09512,-1.76909 0.161079,-5.192123 0.146568,-7.60674 l -0.02638,-4.390213 -0.633888,3.022351 c -0.562803,2.68342 -1.692736,10.505953 -1.694078,11.72811 -3.96e-4,0.360805 0.224147,0.463019 1.017161,0.463019 h 1.017669 z m 10.49166,2.954783 c 0,-0.14396 -0.21956,-0.828566 -0.48792,-1.521348 -0.5535,-1.428907 -4.66396,-8.422918 -4.47224,-7.609578 0.0686,0.29104 0.70183,2.523453 1.40716,4.960917 l 1.28242,4.431753 h 1.13529 c 0.62441,0 1.13529,-0.117785 1.13529,-0.261744 z M 87.643282,66.853943 c 1.742898,-0.843611 2.574262,-1.443975 3.612231,-2.60855 0.741553,-0.832004 1.348278,-1.585274 1.348278,-1.673932 0,-0.08866 -0.163295,-0.384517 -0.362878,-0.657463 -0.342602,-0.468537 -0.477031,-0.404434 -2.405875,1.14724 -3.059231,2.461026 -3.797177,2.77277 -6.623918,2.798267 -2.816178,0.0254 -5.236795,-0.635012 -7.638795,-2.084084 -0.854372,-0.515423 -1.601567,-0.937132 -1.660434,-0.937132 -0.286804,0 0.87036,1.837446 1.721642,2.733775 1.845093,1.942729 3.732316,2.588732 7.206489,2.466809 2.346504,-0.08235 2.711204,-0.172317 4.80326,-1.18493 z m 25.476278,0.455539 c 1.44841,-0.54192 3.37627,-2.223136 4.18464,-3.649272 l 0.49113,-0.866461 -1.94633,1.065501 c -1.07049,0.586026 -2.89625,1.325098 -4.05725,1.642383 -3.86912,1.057373 -6.5394,0.323081 -10.23047,-2.813248 -1.51163,-1.284444 -1.714883,-1.384012 -2.012204,-0.985733 -0.1819,0.243666 -0.330728,0.52353 -0.330728,0.621921 0,0.09839 0.922732,0.975745 2.050512,1.949676 4.14063,3.575768 7.85994,4.528367 11.8507,3.035233 z M 86.621248,64.08661 c 1.896887,-1.06019 4.887037,-3.678626 4.900172,-4.291017 0.01425,-0.664289 -3.233902,-3.414368 -5.234396,-4.431753 -1.589429,-0.808331 -3.62693,-0.962894 -5.725916,-0.434364 -1.050049,0.264406 -1.211153,0.413989 -1.63851,1.521348 -0.636085,1.648209 -0.593241,4.742967 0.09026,6.519756 0.637595,1.657454 1.4773,2.023671 4.354518,1.899117 1.569021,-0.06792 2.280784,-0.239217 3.253872,-0.783087 z m 24.629862,0.510407 c 0.92158,-0.277773 1.11468,-0.481073 1.55136,-1.633306 0.62575,-1.651118 0.65937,-4.261913 0.0805,-6.251025 -0.52987,-1.820712 -1.06761,-2.082217 -4.24528,-2.064491 -1.6816,0.0094 -2.38241,0.137622 -3.25321,0.59531 -1.56144,0.820687 -5.34524,3.942984 -5.35619,4.419797 -0.009,0.378843 2.48632,2.591893 4.44722,3.944621 1.83343,1.264799 4.54677,1.660888 6.77561,0.989094 z M 77.615472,61.659892 c -0.342646,-1.680221 -0.368335,-2.402989 -0.13538,-3.808832 0.158134,-0.954304 0.243454,-1.77916 0.1896,-1.833013 -0.174671,-0.174672 -1.614084,0.677161 -3.013645,1.78345 -1.230706,0.972816 -1.366762,1.183838 -1.366762,2.119829 0,0.936995 0.119531,1.121705 1.212531,1.873709 1.423049,0.979083 3.369387,2.105757 3.467764,2.00738 0.03783,-0.03783 -0.121515,-1.001968 -0.354108,-2.142523 z m 37.890058,1.1696 c 3.41526,-1.954014 3.92009,-3.398971 1.75929,-5.035573 -1.66017,-1.257424 -3.22605,-2.191355 -3.39346,-2.023948 -0.0747,0.07467 -6.1e-4,0.637687 0.16458,1.251148 0.36892,1.370076 0.37205,4.30433 0.006,5.550841 -0.14932,0.50836 -0.27149,0.954842 -0.27149,0.992183 0,0.189606 0.46051,-0.0054 1.73516,-0.734651 z M 97.20562,62.43714 c 2.328855,-1.105114 2.29214,-4.459985 -0.06103,-5.576637 -1.803969,-0.85604 -3.724215,0.0623 -4.325296,2.068527 -0.387587,1.293648 0.171264,2.610581 1.434718,3.380916 1.03506,0.631082 1.818588,0.664846 2.951608,0.127194 z m 27.41263,-1.433403 c 0,-0.535956 -0.41212,-1.289729 -1.33142,-2.435194 -2.21453,-2.759364 -2.15898,-3.219531 0.64829,-5.37038 1.29826,-0.994681 2.65898,-2.358907 3.57979,-3.588987 1.29501,-1.729967 1.60311,-1.994278 2.40324,-2.061675 0.77585,-0.06535 1.16328,0.132542 2.50527,1.279651 1.81214,1.548984 2.54603,1.909154 3.31244,1.625642 0.46131,-0.170648 -0.67267,-1.29243 -7.81551,-7.731481 -8.02121,-7.230873 -9.46067,-8.314484 -9.76526,-7.351153 -0.0606,0.191646 -0.18921,0.820719 -0.28582,1.39794 -0.14303,0.854619 -0.60129,1.485474 -2.468,3.397487 -2.45939,2.519085 -3.29051,3.093615 -4.47525,3.093615 -0.90178,0 -1.38896,0.425613 -1.38896,1.213431 0,0.383191 2.51546,3.401757 7.45236,8.94288 4.09879,4.600446 7.49206,8.364447 7.54059,8.364447 0.0485,0 0.0882,-0.349301 0.0882,-0.776223 z m -5.48844,-7.33181 c -0.95441,-0.470507 -1.77128,-1.652406 -2.00271,-2.897636 -0.14076,-0.757399 -0.0149,-0.932284 1.6676,-2.31639 1.00092,-0.823427 2.62171,-2.389521 3.60174,-3.48021 1.55925,-1.735291 1.89518,-1.983071 2.6886,-1.983071 1.64665,0 3.23736,1.665421 3.23736,3.389409 0,0.634961 -0.35281,1.065278 -2.01342,2.455725 -1.10738,0.927224 -2.24821,1.985676 -2.53518,2.352116 -1.34595,1.718712 -2.66366,2.914795 -3.205,2.90918 -0.31941,-0.0033 -0.96695,-0.196419 -1.43899,-0.429123 z m 4.78297,-3.933392 c 1.84321,-1.820616 3.35129,-3.510735 3.35129,-3.75582 0,-0.657131 -1.33002,-1.929766 -2.01678,-1.929766 -0.39845,0 -1.08459,0.554355 -2.07803,1.678905 -0.81574,0.923397 -2.25217,2.315053 -3.19207,3.092568 -1.23058,1.01797 -1.70892,1.590546 -1.70892,2.045599 0,0.685801 1.31564,2.178724 1.92,2.178724 0.20527,0 1.8813,-1.489595 3.72451,-3.31021 z m -9.26563,-1.439101 c -0.92808,-0.565892 -1.38743,-1.271497 -1.68412,-2.586967 -0.18785,-0.83294 -0.11716,-0.93245 1.82731,-2.572153 1.1125,-0.93813 2.49898,-2.297221 3.08106,-3.020203 0.58208,-0.722982 1.33656,-1.388874 1.67662,-1.479761 1.38111,-0.369121 3.74732,1.663037 3.74732,3.218289 0,0.464141 -0.8689,1.498248 -3.19066,3.797316 -3.47186,3.437935 -3.85234,3.62223 -5.45753,2.643479 z m 3.35566,-2.104088 c 0.74711,-0.858966 2.00543,-2.078081 2.79629,-2.709145 0.79085,-0.631065 1.43791,-1.347884 1.43791,-1.592933 0,-0.561663 -1.19049,-1.995946 -1.82342,-2.196831 -0.35315,-0.112084 -1.24463,0.60983 -3.42795,2.775909 -1.62288,1.610063 -2.95068,3.123859 -2.95068,3.363992 0,0.649299 1.3343,1.920762 2.01569,1.920762 0.39485,0 1.0489,-0.523248 1.95216,-1.561754 z m -43.630813,7.316418 c 3.96573,-4.401987 7.37925,-8.203439 7.585599,-8.447671 0.668498,-0.791223 0.182683,-1.463035 -1.202571,-1.662982 -1.144559,-0.165205 -1.47091,-0.404289 -3.935405,-2.883071 -2.460884,-2.47515 -2.703366,-2.809738 -2.877417,-3.970397 -0.145448,-0.969917 -0.335824,-1.333879 -0.810933,-1.550354 -0.55711,-0.253836 -0.818604,-0.106776 -2.54652,1.432127 -12.248966,10.909073 -14.90473,13.305678 -14.991767,13.528818 -0.24497,0.628038 1.786038,-0.186528 3.16362,-1.268818 2.142417,-1.683178 2.712503,-1.903918 3.53138,-1.367369 0.364097,0.238565 1.130376,1.118654 1.702842,1.955752 1.173445,1.715891 1.891199,2.422002 4.069343,4.003334 2.300748,1.670341 2.295215,2.490041 -0.0347,5.140799 -0.778502,0.885706 -1.35074,1.791765 -1.35074,2.138707 0,0.51792 0.192076,0.954738 0.419814,0.954738 0.03687,0 3.311725,-3.601626 7.277455,-8.003613 z m -4.453793,-0.132291 c -0.285614,-0.25466 -1.12594,-1.177391 -1.867392,-2.050512 -0.741451,-0.873122 -2.134765,-2.242335 -3.096253,-3.042696 -1.729685,-1.439824 -1.746929,-1.467299 -1.631723,-2.599788 0.143438,-1.410007 1.116722,-2.511582 2.693892,-3.048977 l 1.117845,-0.380888 1.653379,1.965914 c 0.909359,1.081253 2.543694,2.765346 3.631857,3.742428 1.920624,1.724566 1.974502,1.806286 1.842539,2.794703 -0.145603,1.090575 -0.929559,2.110238 -2.084399,2.711101 -0.953262,0.495982 -1.63184,0.46857 -2.259745,-0.09128 z m 2.556982,-1.409409 c 0.447754,-0.447755 0.815044,-1.013299 0.816199,-1.256766 0.0012,-0.243467 -0.991461,-1.395163 -2.205811,-2.559324 -1.214351,-1.164162 -2.692349,-2.701296 -3.284441,-3.415853 -1.059889,-1.279111 -1.089349,-1.293884 -1.905752,-0.955719 -0.898864,0.372322 -1.601893,1.194342 -1.601893,1.873021 0,0.559293 6.350516,7.075436 6.924932,7.10554 0.243466,0.01276 0.809011,-0.343145 1.256766,-0.790899 z m 1.422278,-4.014527 c -0.395348,-0.472941 -1.834348,-1.961773 -3.197779,-3.308516 -2.358533,-2.329668 -2.469887,-2.490339 -2.292116,-3.307279 0.347202,-1.595551 1.362931,-2.538241 3.071554,-2.850685 1.005966,-0.183954 1.040716,-0.162311 2.370103,1.476187 0.742042,0.914583 2.110239,2.335215 3.040436,3.156959 1.446378,1.277743 1.691269,1.622755 1.691269,2.382733 0,1.444664 -1.930023,3.310493 -3.42439,3.310493 -0.297144,0 -0.863729,-0.386951 -1.259077,-0.859892 z m 2.307522,-0.598049 c 0.784974,-0.405926 1.317615,-1.124889 1.317615,-1.778526 0,-0.573755 -5.494626,-6.023912 -6.073062,-6.023912 -0.638566,0 -1.767404,1.001528 -1.985381,1.76147 -0.132161,0.460758 0.146343,0.843455 1.444104,1.984367 0.884314,0.777435 2.157594,2.098124 2.829511,2.934865 0.671918,0.836742 1.328044,1.521348 1.458059,1.521348 0.130014,0 0.584133,-0.179825 1.009154,-0.399612 z m 14.019124,7.791426 c -2.635138,-2.446341 -4.040041,-3.272868 -6.235544,-3.668469 -2.77985,-0.500894 -6.068715,0.493684 -8.300776,2.510217 -1.761537,1.591442 -2.606219,3.606754 -1.009448,2.408422 2.418289,-1.814857 6.257269,-2.9699 9.176704,-2.761016 2.125844,0.152104 3.68052,0.91172 6.157359,3.008493 1.497087,1.267361 1.705447,1.368323 2.062222,0.999264 0.355324,-0.367559 0.161591,-0.628964 -1.850517,-2.496911 z m 12.19757,0.837548 c 2.27097,-1.851509 3.69828,-2.402934 6.22761,-2.405968 3.00342,-0.0036 5.45036,0.757378 8.17421,2.54211 l 0.75848,0.49698 -0.51674,-0.881696 c -0.75851,-1.29419 -2.87241,-3.178228 -4.24944,-3.787352 -2.8595,-1.264895 -6.34507,-0.790193 -9.0505,1.232595 -2.27865,1.703695 -4.388467,3.96998 -4.186317,4.496776 0.189986,0.495094 0.07251,0.565074 2.842697,-1.693445 z m 0.76168,-5.094117 c 0.90908,-1.69803 1.21152,-3.332957 0.94514,-5.109298 -0.15902,-1.060415 -0.34664,-1.341507 -1.4222,-2.130729 -0.68145,-0.500039 -1.31437,-0.912114 -1.40649,-0.915721 -0.0921,-0.0036 0.0174,0.499454 0.24331,1.117915 0.24168,0.661528 0.41926,2.050367 0.43134,3.373424 0.0255,2.792458 -0.43535,3.896924 -2.746454,6.58215 -1.559297,1.811717 -1.624078,1.939971 -1.161267,2.299098 0.45029,0.349411 0.64574,0.213528 2.403211,-1.670775 1.05218,-1.128116 2.27321,-2.723844 2.71341,-3.546064 z m -9.538742,5.083221 c 0.306837,-0.194164 0.180368,-0.476529 -0.661455,-1.476819 -2.718364,-3.230078 -3.36642,-4.576521 -3.368947,-6.999548 -9.9e-4,-0.949556 0.190157,-2.435769 0.424773,-3.302696 0.234615,-0.866927 0.401661,-1.599008 0.371213,-1.626846 -0.189873,-0.173601 -2.604933,1.709198 -2.740577,2.136574 -0.09125,0.287509 -0.160862,1.329362 -0.154691,2.315228 0.01574,2.514419 1.016761,4.566059 3.506866,7.187491 1.052615,1.10813 1.988006,2.012959 2.078646,2.010731 0.09064,-0.0022 0.335518,-0.11208 0.544172,-0.244115 z m 4.338088,-2.293174 c 2.137934,-2.473495 2.847944,-3.793427 3.011644,-5.598768 0.15833,-1.746074 -0.45412,-4.580758 -1.213847,-5.618169 -1.101145,-1.503628 -4.508048,-2.030002 -6.596229,-1.019131 -1.321089,0.639528 -1.897102,1.652147 -2.427658,4.267765 -0.561126,2.766328 0.112704,4.628134 2.866268,7.919559 1.978767,2.365285 2.353922,2.369479 4.359822,0.04874 z M 87.120503,50.601359 c -0.369441,-0.676183 -0.469813,-1.481677 -0.469813,-3.770297 0,-3.475158 0.416445,-4.557572 2.704152,-7.028568 3.990587,-4.31031 8.757949,-4.309289 12.870938,0.0028 1.90196,1.993998 2.73201,3.778977 2.95956,6.364358 0.14272,1.621588 0.0764,2.274137 -0.36307,3.569382 -0.29574,0.871759 -0.50539,1.61734 -0.46588,1.656848 0.0395,0.03951 0.62979,-0.17498 1.31174,-0.476639 1.64752,-0.728776 4.40183,-0.923174 6.19686,-0.437372 l 1.40189,0.379406 -0.4928,-0.559883 c -0.27105,-0.307935 -1.36131,-1.537677 -2.42282,-2.73276 -1.79849,-2.024808 -1.92195,-2.241167 -1.8118,-3.174987 0.065,-0.55116 0.20136,-1.188617 0.303,-1.416571 0.12895,-0.28924 -1.74046,-3.04711 -6.18744,-9.128087 C 99.150297,29.056494 96.182367,25.1 96.059619,25.056779 95.683881,24.924477 82.959465,42.280597 83.005677,42.862373 c 0.02312,0.291041 0.120055,0.902323 0.215415,1.358405 0.15765,0.753997 -0.003,1.027706 -1.770371,3.016538 -1.069064,1.203014 -2.269927,2.573994 -2.668586,3.046621 L 78.057302,51.14326 79.3113,50.751484 c 1.849359,-0.577779 4.937456,-0.518452 6.545643,0.125752 1.780578,0.713261 1.801472,0.708699 1.26356,-0.275832 z m 1.480535,-17.576438 c 4.807072,-6.532143 6.631699,-9.202934 6.427056,-9.407577 -0.271261,-0.27126 -7.501931,6.509589 -14.796589,13.876092 l -2.450452,2.474586 1.12754,1.091998 c 1.114784,1.079645 1.811176,1.401484 2.582743,1.193623 0.21828,-0.0588 3.417646,-4.21173 7.109702,-9.228722 z m 13.566272,8.166311 c -2.611779,-3.297646 -6.223865,-4.427138 -9.216285,-2.881917 -1.264805,0.653119 -4.051386,3.121566 -4.051386,3.588854 0,0.110694 0.971976,-0.281927 2.159945,-0.872491 2.051115,-1.019652 2.281913,-1.073754 4.580612,-1.073754 2.342394,0 2.497131,0.03851 4.785344,1.190896 1.30057,0.654993 2.40879,1.166497 2.46271,1.136676 0.0539,-0.02982 -0.2705,-0.51954 -0.72094,-1.088264 z m 10.4709,0.11454 0.97672,-0.895101 -0.89489,-1.02312 c -2.45315,-2.804668 -18.455034,-18.81626 -17.548864,-17.559512 1.267108,1.757324 11.511304,15.761646 13.499594,18.454613 1.70157,2.304626 2.37857,2.47921 3.96744,1.02312 z m 4.13151,-4.926257 c 0.0462,-0.930733 0.0102,-0.95897 -19.271157,-15.14656 l -2.910405,-2.141528 2.381241,2.518284 c 1.309682,1.385056 5.774511,5.981222 9.921831,10.213702 l 7.5406,7.695418 1.14727,-1.132644 c 0.85123,-0.840375 1.15846,-1.358179 1.19062,-2.006672 z M 85.707474,30.593917 c 4.71996,-4.625246 8.45783,-8.486123 8.306377,-8.579726 -0.285774,-0.176618 -18.575512,13.050853 -18.935859,13.694757 -0.112229,0.200541 -0.07678,0.701471 0.07878,1.113177 0.272311,0.720708 1.51325,2.215646 1.820018,2.192545 0.08191,-0.0062 4.010722,-3.795507 8.730682,-8.420753 z"
       id="path18" /></g></svg>
